<svg width="504" height="184" viewBox="0 0 504 184" fill="none" xmlns="http://www.w3.org/2000/svg">
<path d="M159.64 44.44C156.854 44.44 154.463 44.0293 152.468 43.208C150.474 42.3867 148.963 41.316 147.936 39.996C146.939 38.6467 146.411 37.18 146.352 35.596C146.352 35.3613 146.44 35.156 146.616 34.98C146.822 34.7747 147.056 34.672 147.32 34.672H152.864C153.216 34.672 153.495 34.7453 153.7 34.892C153.935 35.0093 154.17 35.2 154.404 35.464C154.786 36.2267 155.402 36.8573 156.252 37.356C157.103 37.8547 158.232 38.104 159.64 38.104C161.312 38.104 162.588 37.84 163.468 37.312C164.348 36.784 164.788 36.0653 164.788 35.156C164.788 34.5107 164.554 33.9827 164.084 33.572C163.644 33.1613 162.94 32.7947 161.972 32.472C161.004 32.1493 159.567 31.7827 157.66 31.372C154.14 30.6387 151.5 29.568 149.74 28.16C148.01 26.7227 147.144 24.684 147.144 22.044C147.144 20.2547 147.643 18.656 148.64 17.248C149.638 15.84 151.06 14.74 152.908 13.948C154.756 13.156 156.912 12.76 159.376 12.76C161.928 12.76 164.143 13.2 166.02 14.08C167.898 14.96 169.32 16.0747 170.288 17.424C171.286 18.744 171.814 20.0493 171.872 21.34C171.872 21.604 171.784 21.824 171.608 22C171.432 22.176 171.212 22.264 170.948 22.264H165.14C164.788 22.264 164.495 22.2053 164.26 22.088C164.055 21.9707 163.864 21.78 163.688 21.516C163.512 20.8413 163.028 20.2693 162.236 19.8C161.474 19.3307 160.52 19.096 159.376 19.096C158.056 19.096 157.044 19.3307 156.34 19.8C155.636 20.2693 155.284 20.9587 155.284 21.868C155.284 22.484 155.475 22.9973 155.856 23.408C156.267 23.8187 156.912 24.2 157.792 24.552C158.702 24.8747 159.992 25.212 161.664 25.564C164.392 26.0627 166.563 26.6933 168.176 27.456C169.819 28.1893 171.022 29.1573 171.784 30.36C172.547 31.5333 172.928 33.0147 172.928 34.804C172.928 36.7693 172.356 38.4853 171.212 39.952C170.098 41.3893 168.528 42.504 166.504 43.296C164.51 44.0587 162.222 44.44 159.64 44.44ZM185.252 44.44C182.671 44.44 180.588 43.5747 179.004 41.844C177.42 40.084 176.628 37.6347 176.628 34.496V22.22C176.628 21.8973 176.731 21.6333 176.936 21.428C177.141 21.2227 177.405 21.12 177.728 21.12H183.228C183.551 21.12 183.815 21.2227 184.02 21.428C184.255 21.6333 184.372 21.8973 184.372 22.22V34.232C184.372 37.1067 185.648 38.544 188.2 38.544C189.432 38.544 190.4 38.1627 191.104 37.4C191.808 36.6373 192.16 35.5813 192.16 34.232V22.22C192.16 21.8973 192.263 21.6333 192.468 21.428C192.703 21.2227 192.967 21.12 193.26 21.12H198.76C199.083 21.12 199.347 21.2227 199.552 21.428C199.757 21.6333 199.86 21.8973 199.86 22.22V42.9C199.86 43.1933 199.757 43.4573 199.552 43.692C199.347 43.8973 199.083 44 198.76 44H193.656C193.363 44 193.099 43.8973 192.864 43.692C192.659 43.4573 192.556 43.1933 192.556 42.9V41.228C191.031 43.3693 188.596 44.44 185.252 44.44ZM219.027 44.44C216.094 44.44 213.821 43.4573 212.207 41.492V42.9C212.207 43.1933 212.105 43.4573 211.899 43.692C211.694 43.8973 211.43 44 211.107 44H206.135C205.842 44 205.578 43.8973 205.343 43.692C205.138 43.4573 205.035 43.1933 205.035 42.9V13.86C205.035 13.5373 205.138 13.2733 205.343 13.068C205.578 12.8627 205.842 12.76 206.135 12.76H211.503C211.826 12.76 212.09 12.8627 212.295 13.068C212.501 13.2733 212.603 13.5373 212.603 13.86V23.276C214.246 21.5453 216.387 20.68 219.027 20.68C221.873 20.68 224.117 21.604 225.759 23.452C227.402 25.3 228.282 27.808 228.399 30.976C228.429 31.3573 228.443 31.8853 228.443 32.56C228.443 33.2053 228.429 33.7187 228.399 34.1C228.253 37.3853 227.373 39.9373 225.759 41.756C224.146 43.5453 221.902 44.44 219.027 44.44ZM216.651 38.544C218.03 38.544 219.013 38.1333 219.599 37.312C220.215 36.4907 220.567 35.3613 220.655 33.924C220.714 33.3373 220.743 32.8827 220.743 32.56C220.743 32.2373 220.714 31.7827 220.655 31.196C220.567 29.7587 220.215 28.6293 219.599 27.808C219.013 26.9867 218.03 26.576 216.651 26.576C215.361 26.576 214.378 26.972 213.703 27.764C213.029 28.556 212.662 29.5533 212.603 30.756L212.559 32.384L212.603 34.056C212.691 35.376 213.043 36.4613 213.659 37.312C214.305 38.1333 215.302 38.544 216.651 38.544ZM242.209 44.44C239.833 44.44 237.839 44.1027 236.225 43.428C234.641 42.7533 233.468 41.9467 232.705 41.008C231.943 40.0693 231.561 39.2333 231.561 38.5C231.561 38.2067 231.664 37.972 231.869 37.796C232.104 37.5907 232.353 37.488 232.617 37.488H237.633C237.809 37.488 237.971 37.5613 238.117 37.708C238.469 37.9427 238.733 38.1333 238.909 38.28C239.555 38.7493 240.112 39.1013 240.581 39.336C241.08 39.5413 241.681 39.644 242.385 39.644C243.236 39.644 243.925 39.4827 244.453 39.16C245.011 38.808 245.289 38.324 245.289 37.708C245.289 37.2093 245.143 36.8133 244.849 36.52C244.585 36.2267 244.057 35.948 243.265 35.684C242.473 35.3907 241.271 35.0827 239.657 34.76C237.223 34.2613 235.345 33.4547 234.025 32.34C232.735 31.196 232.089 29.6707 232.089 27.764C232.089 26.5613 232.471 25.4173 233.233 24.332C233.996 23.2467 235.125 22.3667 236.621 21.692C238.147 21.0173 239.951 20.68 242.033 20.68C244.116 20.68 245.935 21.0027 247.489 21.648C249.044 22.2933 250.217 23.0853 251.009 24.024C251.831 24.9333 252.241 25.7693 252.241 26.532C252.241 26.796 252.139 27.0307 251.933 27.236C251.757 27.4413 251.537 27.544 251.273 27.544H246.697C246.463 27.544 246.243 27.4707 246.037 27.324C245.656 27.1187 245.319 26.8987 245.025 26.664C244.527 26.2827 244.057 25.9893 243.617 25.784C243.177 25.5787 242.635 25.476 241.989 25.476C241.227 25.476 240.611 25.652 240.141 26.004C239.701 26.356 239.481 26.8107 239.481 27.368C239.481 27.808 239.599 28.1747 239.833 28.468C240.097 28.7613 240.625 29.0547 241.417 29.348C242.239 29.612 243.441 29.8907 245.025 30.184C247.871 30.6827 249.939 31.5627 251.229 32.824C252.549 34.0853 253.209 35.5667 253.209 37.268C253.209 39.4387 252.241 41.184 250.305 42.504C248.369 43.7947 245.671 44.44 242.209 44.44ZM267.63 44.44C264.315 44.44 261.631 43.56 259.578 41.8C257.524 40.0107 256.424 37.532 256.278 34.364L256.234 32.604L256.278 30.8C256.395 27.632 257.48 25.1533 259.534 23.364C261.616 21.5747 264.315 20.68 267.63 20.68C270.123 20.68 272.22 21.1347 273.922 22.044C275.652 22.924 276.928 23.9947 277.75 25.256C278.6 26.488 279.055 27.6173 279.114 28.644C279.143 28.9373 279.04 29.2013 278.806 29.436C278.6 29.6413 278.336 29.744 278.014 29.744H272.426C272.103 29.744 271.854 29.6707 271.678 29.524C271.502 29.3773 271.34 29.1573 271.194 28.864C270.842 27.9547 270.387 27.3093 269.83 26.928C269.302 26.5467 268.612 26.356 267.762 26.356C265.356 26.356 264.11 27.9107 264.022 31.02L263.978 32.692L264.022 34.144C264.08 35.728 264.418 36.9013 265.034 37.664C265.679 38.3973 266.588 38.764 267.762 38.764C268.671 38.764 269.39 38.5733 269.918 38.192C270.446 37.8107 270.871 37.1653 271.194 36.256C271.34 35.9627 271.502 35.7427 271.678 35.596C271.854 35.4493 272.103 35.376 272.426 35.376H278.014C278.307 35.376 278.556 35.4787 278.762 35.684C278.996 35.86 279.114 36.0947 279.114 36.388C279.114 37.3267 278.703 38.4267 277.882 39.688C277.09 40.9493 275.828 42.064 274.098 43.032C272.367 43.9707 270.211 44.44 267.63 44.44ZM284.167 44C283.844 44 283.58 43.8973 283.375 43.692C283.169 43.4867 283.067 43.2227 283.067 42.9V22.22C283.067 21.8973 283.169 21.6333 283.375 21.428C283.58 21.2227 283.844 21.12 284.167 21.12H289.227C289.549 21.12 289.813 21.2373 290.019 21.472C290.253 21.6773 290.371 21.9267 290.371 22.22V23.98C291.984 22.0733 294.155 21.12 296.883 21.12H298.819C299.141 21.12 299.405 21.2227 299.611 21.428C299.816 21.6333 299.919 21.8973 299.919 22.22V26.752C299.919 27.0453 299.816 27.3093 299.611 27.544C299.405 27.7493 299.141 27.852 298.819 27.852H294.551C293.348 27.852 292.409 28.1893 291.735 28.864C291.089 29.5093 290.767 30.4333 290.767 31.636V42.9C290.767 43.2227 290.649 43.4867 290.415 43.692C290.209 43.8973 289.945 44 289.623 44H284.167ZM304.103 17.82C303.781 17.82 303.517 17.7173 303.311 17.512C303.106 17.3067 303.003 17.0427 303.003 16.72V12.76C303.003 12.4373 303.106 12.1733 303.311 11.968C303.517 11.7627 303.781 11.66 304.103 11.66H309.383C309.706 11.66 309.97 11.7627 310.175 11.968C310.381 12.1733 310.483 12.4373 310.483 12.76V16.72C310.483 17.0427 310.381 17.3067 310.175 17.512C309.97 17.7173 309.706 17.82 309.383 17.82H304.103ZM304.147 44C303.825 44 303.561 43.8973 303.355 43.692C303.15 43.4867 303.047 43.2227 303.047 42.9V22.22C303.047 21.8973 303.15 21.6333 303.355 21.428C303.561 21.2227 303.825 21.12 304.147 21.12H309.339C309.662 21.12 309.926 21.2227 310.131 21.428C310.337 21.6333 310.439 21.8973 310.439 22.22V42.9C310.439 43.1933 310.337 43.4573 310.131 43.692C309.926 43.8973 309.662 44 309.339 44H304.147ZM329.629 44.44C326.696 44.44 324.422 43.4573 322.809 41.492V42.9C322.809 43.1933 322.706 43.4573 322.501 43.692C322.296 43.8973 322.032 44 321.709 44H316.737C316.444 44 316.18 43.8973 315.945 43.692C315.74 43.4573 315.637 43.1933 315.637 42.9V13.86C315.637 13.5373 315.74 13.2733 315.945 13.068C316.18 12.8627 316.444 12.76 316.737 12.76H322.105C322.428 12.76 322.692 12.8627 322.897 13.068C323.102 13.2733 323.205 13.5373 323.205 13.86V23.276C324.848 21.5453 326.989 20.68 329.629 20.68C332.474 20.68 334.718 21.604 336.361 23.452C338.004 25.3 338.884 27.808 339.001 30.976C339.03 31.3573 339.045 31.8853 339.045 32.56C339.045 33.2053 339.03 33.7187 339.001 34.1C338.854 37.3853 337.974 39.9373 336.361 41.756C334.748 43.5453 332.504 44.44 329.629 44.44ZM327.253 38.544C328.632 38.544 329.614 38.1333 330.201 37.312C330.817 36.4907 331.169 35.3613 331.257 33.924C331.316 33.3373 331.345 32.8827 331.345 32.56C331.345 32.2373 331.316 31.7827 331.257 31.196C331.169 29.7587 330.817 28.6293 330.201 27.808C329.614 26.9867 328.632 26.576 327.253 26.576C325.962 26.576 324.98 26.972 324.305 27.764C323.63 28.556 323.264 29.5533 323.205 30.756L323.161 32.384L323.205 34.056C323.293 35.376 323.645 36.4613 324.261 37.312C324.906 38.1333 325.904 38.544 327.253 38.544ZM353.955 44.44C350.435 44.44 347.663 43.4867 345.639 41.58C343.615 39.6733 342.559 36.9013 342.471 33.264V31.724C342.588 28.2627 343.659 25.564 345.683 23.628C347.736 21.6627 350.479 20.68 353.911 20.68C356.404 20.68 358.501 21.1933 360.203 22.22C361.933 23.2173 363.224 24.596 364.075 26.356C364.955 28.116 365.395 30.14 365.395 32.428V33.484C365.395 33.7773 365.292 34.0413 365.087 34.276C364.881 34.4813 364.617 34.584 364.295 34.584H350.215V34.892C350.273 36.2707 350.611 37.3853 351.227 38.236C351.843 39.0867 352.737 39.512 353.911 39.512C354.644 39.512 355.245 39.3653 355.715 39.072C356.184 38.7493 356.609 38.368 356.991 37.928C357.255 37.6053 357.46 37.4147 357.607 37.356C357.783 37.268 358.047 37.224 358.399 37.224H363.855C364.119 37.224 364.339 37.312 364.515 37.488C364.72 37.6347 364.823 37.84 364.823 38.104C364.823 38.8667 364.383 39.7467 363.503 40.744C362.652 41.7413 361.405 42.6067 359.763 43.34C358.12 44.0733 356.184 44.44 353.955 44.44ZM357.651 30.228V30.14C357.651 28.7027 357.313 27.5733 356.639 26.752C355.993 25.9013 355.084 25.476 353.911 25.476C352.767 25.476 351.857 25.9013 351.183 26.752C350.537 27.5733 350.215 28.7027 350.215 30.14V30.228H357.651Z" fill="#180202"/>
<path opacity="0.7" d="M108.518 80C108.411 80 108.32 79.968 108.246 79.904C108.182 79.8293 108.15 79.7387 108.15 79.632V69.168C108.15 69.0613 108.182 68.976 108.246 68.912C108.32 68.8373 108.411 68.8 108.518 68.8H109.366C109.472 68.8 109.558 68.8373 109.622 68.912C109.696 68.976 109.734 69.0613 109.734 69.168V78.608H115.046C115.163 78.608 115.254 78.6453 115.318 78.72C115.392 78.784 115.43 78.8747 115.43 78.992V79.632C115.43 79.7387 115.392 79.8293 115.318 79.904C115.243 79.968 115.152 80 115.046 80H108.518ZM120.194 80.16C119.02 80.16 118.108 79.8293 117.458 79.168C116.818 78.5067 116.476 77.6267 116.434 76.528L116.418 75.84L116.434 75.152C116.476 74.064 116.823 73.1893 117.474 72.528C118.124 71.856 119.031 71.52 120.194 71.52C121.356 71.52 122.263 71.856 122.914 72.528C123.564 73.1893 123.911 74.064 123.954 75.152C123.964 75.2693 123.97 75.4987 123.97 75.84C123.97 76.1813 123.964 76.4107 123.954 76.528C123.911 77.6267 123.564 78.5067 122.914 79.168C122.274 79.8293 121.367 80.16 120.194 80.16ZM120.194 78.928C120.866 78.928 121.394 78.7147 121.778 78.288C122.172 77.8613 122.386 77.248 122.418 76.448C122.428 76.3413 122.434 76.1387 122.434 75.84C122.434 75.5413 122.428 75.3387 122.418 75.232C122.386 74.432 122.172 73.8187 121.778 73.392C121.394 72.9653 120.866 72.752 120.194 72.752C119.522 72.752 118.988 72.9653 118.594 73.392C118.199 73.8187 117.991 74.432 117.97 75.232L117.954 75.84L117.97 76.448C117.991 77.248 118.199 77.8613 118.594 78.288C118.988 78.7147 119.522 78.928 120.194 78.928ZM126.341 80C126.234 80 126.144 79.968 126.069 79.904C126.005 79.8293 125.973 79.7387 125.973 79.632V72.064C125.973 71.9573 126.005 71.8667 126.069 71.792C126.144 71.7173 126.234 71.68 126.341 71.68H127.077C127.184 71.68 127.274 71.7173 127.349 71.792C127.424 71.8667 127.461 71.9573 127.461 72.064V72.768C127.898 72.0427 128.645 71.68 129.701 71.68H130.325C130.432 71.68 130.517 71.7173 130.581 71.792C130.656 71.856 130.693 71.9413 130.693 72.048V72.704C130.693 72.8107 130.656 72.896 130.581 72.96C130.517 73.024 130.432 73.056 130.325 73.056H129.365C128.789 73.056 128.336 73.2267 128.005 73.568C127.674 73.8987 127.509 74.352 127.509 74.928V79.632C127.509 79.7387 127.472 79.8293 127.397 79.904C127.322 79.968 127.232 80 127.125 80H126.341ZM135.223 80.16C134.124 80.16 133.244 79.824 132.583 79.152C131.932 78.4693 131.575 77.5413 131.511 76.368L131.495 75.824L131.511 75.296C131.586 74.144 131.948 73.2267 132.599 72.544C133.26 71.8613 134.13 71.52 135.207 71.52C136.391 71.52 137.308 71.8987 137.959 72.656C138.61 73.4027 138.935 74.416 138.935 75.696V75.968C138.935 76.0747 138.898 76.1653 138.823 76.24C138.759 76.304 138.674 76.336 138.567 76.336H133.031V76.48C133.063 77.1733 133.271 77.7653 133.655 78.256C134.05 78.736 134.567 78.976 135.207 78.976C135.698 78.976 136.098 78.88 136.407 78.688C136.727 78.4853 136.962 78.2773 137.111 78.064C137.207 77.936 137.276 77.8613 137.319 77.84C137.372 77.808 137.463 77.792 137.591 77.792H138.375C138.471 77.792 138.551 77.8187 138.615 77.872C138.679 77.9253 138.711 78 138.711 78.096C138.711 78.3307 138.562 78.6133 138.263 78.944C137.975 79.2747 137.564 79.5627 137.031 79.808C136.508 80.0427 135.906 80.16 135.223 80.16ZM137.415 75.232V75.184C137.415 74.448 137.212 73.8507 136.807 73.392C136.412 72.9227 135.879 72.688 135.207 72.688C134.535 72.688 134.002 72.9227 133.607 73.392C133.223 73.8507 133.031 74.448 133.031 75.184V75.232H137.415ZM141.216 80C141.109 80 141.019 79.968 140.944 79.904C140.88 79.8293 140.848 79.7387 140.848 79.632V72.048C140.848 71.9413 140.88 71.856 140.944 71.792C141.019 71.7173 141.109 71.68 141.216 71.68H141.936C142.043 71.68 142.128 71.7173 142.192 71.792C142.267 71.856 142.304 71.9413 142.304 72.048V72.608C142.859 71.8827 143.632 71.52 144.624 71.52C145.808 71.52 146.645 72.0107 147.136 72.992C147.392 72.544 147.755 72.1867 148.224 71.92C148.693 71.6533 149.221 71.52 149.808 71.52C150.683 71.52 151.397 71.8187 151.952 72.416C152.507 73.0133 152.784 73.8773 152.784 75.008V79.632C152.784 79.7387 152.747 79.8293 152.672 79.904C152.608 79.968 152.523 80 152.416 80H151.664C151.557 80 151.467 79.968 151.392 79.904C151.328 79.8293 151.296 79.7387 151.296 79.632V75.152C151.296 74.32 151.12 73.7227 150.768 73.36C150.427 72.9973 149.973 72.816 149.408 72.816C148.907 72.816 148.475 73.0027 148.112 73.376C147.749 73.7387 147.568 74.3307 147.568 75.152V79.632C147.568 79.7387 147.531 79.8293 147.456 79.904C147.392 79.968 147.307 80 147.2 80H146.448C146.341 80 146.251 79.968 146.176 79.904C146.112 79.8293 146.08 79.7387 146.08 79.632V75.152C146.08 74.32 145.899 73.7227 145.536 73.36C145.184 72.9973 144.736 72.816 144.192 72.816C143.691 72.816 143.259 73.0027 142.896 73.376C142.533 73.7387 142.352 74.3253 142.352 75.136V79.632C142.352 79.7387 142.315 79.8293 142.24 79.904C142.176 79.968 142.091 80 141.984 80H141.216ZM159.229 70.128C159.122 70.128 159.031 70.096 158.957 70.032C158.893 69.9573 158.861 69.8667 158.861 69.76V68.896C158.861 68.7893 158.893 68.6987 158.957 68.624C159.031 68.5493 159.122 68.512 159.229 68.512H160.237C160.343 68.512 160.434 68.5493 160.509 68.624C160.583 68.6987 160.621 68.7893 160.621 68.896V69.76C160.621 69.8667 160.583 69.9573 160.509 70.032C160.434 70.096 160.343 70.128 160.237 70.128H159.229ZM159.357 80C159.25 80 159.159 79.968 159.085 79.904C159.021 79.8293 158.989 79.7387 158.989 79.632V72.048C158.989 71.9413 159.021 71.856 159.085 71.792C159.159 71.7173 159.25 71.68 159.357 71.68H160.125C160.231 71.68 160.317 71.7173 160.381 71.792C160.455 71.856 160.493 71.9413 160.493 72.048V79.632C160.493 79.7387 160.455 79.8293 160.381 79.904C160.317 79.968 160.231 80 160.125 80H159.357ZM163.248 83.04C163.141 83.04 163.05 83.0027 162.976 82.928C162.912 82.864 162.88 82.7787 162.88 82.672V72.048C162.88 71.9413 162.912 71.856 162.976 71.792C163.05 71.7173 163.141 71.68 163.248 71.68H163.984C164.09 71.68 164.176 71.7173 164.24 71.792C164.314 71.856 164.352 71.9413 164.352 72.048V72.752C164.949 71.9307 165.824 71.52 166.976 71.52C168.096 71.52 168.933 71.872 169.488 72.576C170.053 73.28 170.357 74.1867 170.4 75.296C170.41 75.4133 170.416 75.5947 170.416 75.84C170.416 76.0853 170.41 76.2667 170.4 76.384C170.357 77.4827 170.053 78.3893 169.488 79.104C168.922 79.808 168.085 80.16 166.976 80.16C165.866 80.16 165.002 79.76 164.384 78.96V82.672C164.384 82.7787 164.352 82.864 164.288 82.928C164.224 83.0027 164.138 83.04 164.032 83.04H163.248ZM166.64 78.864C167.397 78.864 167.946 78.6293 168.288 78.16C168.64 77.6907 168.832 77.072 168.864 76.304C168.874 76.1973 168.88 76.0427 168.88 75.84C168.88 73.824 168.133 72.816 166.64 72.816C165.904 72.816 165.349 73.0613 164.976 73.552C164.613 74.032 164.416 74.608 164.384 75.28L164.368 75.888L164.384 76.512C164.405 77.1413 164.608 77.6907 164.992 78.16C165.376 78.6293 165.925 78.864 166.64 78.864ZM175.275 80.16C174.528 80.16 173.899 80.0427 173.387 79.808C172.886 79.5627 172.507 79.2853 172.251 78.976C172.006 78.6667 171.883 78.4107 171.883 78.208C171.883 78.1013 171.92 78.0213 171.995 77.968C172.08 77.904 172.166 77.872 172.251 77.872H172.971C173.078 77.872 173.174 77.9253 173.259 78.032C173.515 78.3307 173.792 78.5653 174.091 78.736C174.39 78.9067 174.79 78.992 175.291 78.992C175.846 78.992 176.294 78.8853 176.635 78.672C176.987 78.448 177.163 78.144 177.163 77.76C177.163 77.504 177.088 77.296 176.939 77.136C176.8 76.9653 176.555 76.8213 176.203 76.704C175.862 76.576 175.35 76.4373 174.667 76.288C173.739 76.0853 173.078 75.792 172.683 75.408C172.299 75.024 172.107 74.528 172.107 73.92C172.107 73.5147 172.224 73.1307 172.459 72.768C172.704 72.3947 173.056 72.096 173.515 71.872C173.984 71.6373 174.544 71.52 175.195 71.52C175.878 71.52 176.459 71.632 176.939 71.856C177.419 72.08 177.776 72.3467 178.011 72.656C178.256 72.9547 178.379 73.2053 178.379 73.408C178.379 73.504 178.342 73.584 178.267 73.648C178.203 73.712 178.123 73.744 178.027 73.744H177.355C177.227 73.744 177.12 73.6907 177.035 73.584C176.864 73.3813 176.715 73.2267 176.587 73.12C176.47 73.0027 176.294 72.9013 176.059 72.816C175.835 72.7307 175.547 72.688 175.195 72.688C174.683 72.688 174.288 72.8 174.011 73.024C173.734 73.2373 173.595 73.52 173.595 73.872C173.595 74.096 173.654 74.288 173.771 74.448C173.888 74.5973 174.112 74.736 174.443 74.864C174.784 74.992 175.275 75.1253 175.915 75.264C176.928 75.4773 177.643 75.7867 178.059 76.192C178.486 76.5867 178.699 77.0933 178.699 77.712C178.699 78.1707 178.566 78.5867 178.299 78.96C178.032 79.3333 177.638 79.6267 177.115 79.84C176.603 80.0533 175.99 80.16 175.275 80.16ZM183.655 80.16C182.642 80.16 181.858 79.8347 181.303 79.184C180.749 78.5227 180.471 77.648 180.471 76.56V72.048C180.471 71.9413 180.503 71.856 180.567 71.792C180.642 71.7173 180.733 71.68 180.839 71.68H181.639C181.746 71.68 181.831 71.7173 181.895 71.792C181.97 71.856 182.007 71.9413 182.007 72.048V76.48C182.007 78.0693 182.701 78.864 184.087 78.864C184.759 78.864 185.293 78.656 185.687 78.24C186.082 77.8133 186.279 77.2267 186.279 76.48V72.048C186.279 71.9413 186.311 71.856 186.375 71.792C186.45 71.7173 186.541 71.68 186.647 71.68H187.447C187.554 71.68 187.639 71.7173 187.703 71.792C187.767 71.856 187.799 71.9413 187.799 72.048V79.632C187.799 79.7387 187.767 79.8293 187.703 79.904C187.639 79.968 187.554 80 187.447 80H186.695C186.589 80 186.498 79.968 186.423 79.904C186.359 79.8293 186.327 79.7387 186.327 79.632V78.928C186.029 79.3333 185.666 79.6427 185.239 79.856C184.813 80.0587 184.285 80.16 183.655 80.16ZM190.544 80C190.438 80 190.347 79.968 190.272 79.904C190.208 79.8293 190.176 79.7387 190.176 79.632V72.048C190.176 71.9413 190.208 71.856 190.272 71.792C190.347 71.7173 190.438 71.68 190.544 71.68H191.264C191.371 71.68 191.456 71.7173 191.52 71.792C191.595 71.856 191.632 71.9413 191.632 72.048V72.608C192.187 71.8827 192.96 71.52 193.952 71.52C195.136 71.52 195.974 72.0107 196.464 72.992C196.72 72.544 197.083 72.1867 197.552 71.92C198.022 71.6533 198.55 71.52 199.136 71.52C200.011 71.52 200.726 71.8187 201.28 72.416C201.835 73.0133 202.112 73.8773 202.112 75.008V79.632C202.112 79.7387 202.075 79.8293 202 79.904C201.936 79.968 201.851 80 201.744 80H200.992C200.886 80 200.795 79.968 200.72 79.904C200.656 79.8293 200.624 79.7387 200.624 79.632V75.152C200.624 74.32 200.448 73.7227 200.096 73.36C199.755 72.9973 199.302 72.816 198.736 72.816C198.235 72.816 197.803 73.0027 197.44 73.376C197.078 73.7387 196.896 74.3307 196.896 75.152V79.632C196.896 79.7387 196.859 79.8293 196.784 79.904C196.72 79.968 196.635 80 196.528 80H195.776C195.67 80 195.579 79.968 195.504 79.904C195.44 79.8293 195.408 79.7387 195.408 79.632V75.152C195.408 74.32 195.227 73.7227 194.864 73.36C194.512 72.9973 194.064 72.816 193.52 72.816C193.019 72.816 192.587 73.0027 192.224 73.376C191.862 73.7387 191.68 74.3253 191.68 75.136V79.632C191.68 79.7387 191.643 79.8293 191.568 79.904C191.504 79.968 191.419 80 191.312 80H190.544ZM211.357 80.16C210.247 80.16 209.41 79.7973 208.845 79.072C208.279 78.3467 207.981 77.4293 207.949 76.32L207.933 75.84L207.949 75.36C207.981 74.2613 208.279 73.3493 208.845 72.624C209.41 71.888 210.247 71.52 211.357 71.52C212.455 71.52 213.319 71.9093 213.949 72.688V69.008C213.949 68.9013 213.981 68.816 214.045 68.752C214.119 68.6773 214.21 68.64 214.317 68.64H215.085C215.191 68.64 215.277 68.6773 215.341 68.752C215.415 68.816 215.453 68.9013 215.453 69.008V79.632C215.453 79.7387 215.415 79.8293 215.341 79.904C215.277 79.968 215.191 80 215.085 80H214.365C214.258 80 214.167 79.968 214.093 79.904C214.029 79.8293 213.997 79.7387 213.997 79.632V78.96C213.378 79.76 212.498 80.16 211.357 80.16ZM211.693 78.864C212.429 78.864 212.978 78.624 213.341 78.144C213.714 77.6533 213.917 77.072 213.949 76.4C213.959 76.2827 213.965 76.08 213.965 75.792C213.965 75.4933 213.959 75.2853 213.949 75.168C213.927 74.5387 213.725 73.9893 213.341 73.52C212.957 73.0507 212.407 72.816 211.693 72.816C210.935 72.816 210.381 73.0507 210.029 73.52C209.687 73.9893 209.501 74.608 209.469 75.376L209.453 75.84C209.453 77.856 210.199 78.864 211.693 78.864ZM221.24 80.16C220.067 80.16 219.155 79.8293 218.504 79.168C217.864 78.5067 217.523 77.6267 217.48 76.528L217.464 75.84L217.48 75.152C217.523 74.064 217.87 73.1893 218.52 72.528C219.171 71.856 220.078 71.52 221.24 71.52C222.403 71.52 223.31 71.856 223.96 72.528C224.611 73.1893 224.958 74.064 225 75.152C225.011 75.2693 225.016 75.4987 225.016 75.84C225.016 76.1813 225.011 76.4107 225 76.528C224.958 77.6267 224.611 78.5067 223.96 79.168C223.32 79.8293 222.414 80.16 221.24 80.16ZM221.24 78.928C221.912 78.928 222.44 78.7147 222.824 78.288C223.219 77.8613 223.432 77.248 223.464 76.448C223.475 76.3413 223.48 76.1387 223.48 75.84C223.48 75.5413 223.475 75.3387 223.464 75.232C223.432 74.432 223.219 73.8187 222.824 73.392C222.44 72.9653 221.912 72.752 221.24 72.752C220.568 72.752 220.035 72.9653 219.64 73.392C219.246 73.8187 219.038 74.432 219.016 75.232L219 75.84L219.016 76.448C219.038 77.248 219.246 77.8613 219.64 78.288C220.035 78.7147 220.568 78.928 221.24 78.928ZM227.404 80C227.297 80 227.207 79.968 227.132 79.904C227.068 79.8293 227.036 79.7387 227.036 79.632V69.008C227.036 68.9013 227.068 68.816 227.132 68.752C227.207 68.6773 227.297 68.64 227.404 68.64H228.156C228.263 68.64 228.348 68.6773 228.412 68.752C228.487 68.816 228.524 68.9013 228.524 69.008V79.632C228.524 79.7387 228.487 79.8293 228.412 79.904C228.348 79.968 228.263 80 228.156 80H227.404ZM234.319 80.16C233.145 80.16 232.233 79.8293 231.583 79.168C230.943 78.5067 230.601 77.6267 230.559 76.528L230.543 75.84L230.559 75.152C230.601 74.064 230.948 73.1893 231.599 72.528C232.249 71.856 233.156 71.52 234.319 71.52C235.481 71.52 236.388 71.856 237.039 72.528C237.689 73.1893 238.036 74.064 238.079 75.152C238.089 75.2693 238.095 75.4987 238.095 75.84C238.095 76.1813 238.089 76.4107 238.079 76.528C238.036 77.6267 237.689 78.5067 237.039 79.168C236.399 79.8293 235.492 80.16 234.319 80.16ZM234.319 78.928C234.991 78.928 235.519 78.7147 235.903 78.288C236.297 77.8613 236.511 77.248 236.543 76.448C236.553 76.3413 236.559 76.1387 236.559 75.84C236.559 75.5413 236.553 75.3387 236.543 75.232C236.511 74.432 236.297 73.8187 235.903 73.392C235.519 72.9653 234.991 72.752 234.319 72.752C233.647 72.752 233.113 72.9653 232.719 73.392C232.324 73.8187 232.116 74.432 232.095 75.232L232.079 75.84L232.095 76.448C232.116 77.248 232.324 77.8613 232.719 78.288C233.113 78.7147 233.647 78.928 234.319 78.928ZM240.466 80C240.359 80 240.269 79.968 240.194 79.904C240.13 79.8293 240.098 79.7387 240.098 79.632V72.064C240.098 71.9573 240.13 71.8667 240.194 71.792C240.269 71.7173 240.359 71.68 240.466 71.68H241.202C241.309 71.68 241.399 71.7173 241.474 71.792C241.549 71.8667 241.586 71.9573 241.586 72.064V72.768C242.023 72.0427 242.77 71.68 243.826 71.68H244.45C244.557 71.68 244.642 71.7173 244.706 71.792C244.781 71.856 244.818 71.9413 244.818 72.048V72.704C244.818 72.8107 244.781 72.896 244.706 72.96C244.642 73.024 244.557 73.056 244.45 73.056H243.49C242.914 73.056 242.461 73.2267 242.13 73.568C241.799 73.8987 241.634 74.352 241.634 74.928V79.632C241.634 79.7387 241.597 79.8293 241.522 79.904C241.447 79.968 241.357 80 241.25 80H240.466ZM252.603 80.16C251.856 80.16 251.227 80.0427 250.715 79.808C250.214 79.5627 249.835 79.2853 249.579 78.976C249.334 78.6667 249.211 78.4107 249.211 78.208C249.211 78.1013 249.248 78.0213 249.323 77.968C249.408 77.904 249.494 77.872 249.579 77.872H250.299C250.406 77.872 250.502 77.9253 250.587 78.032C250.843 78.3307 251.12 78.5653 251.419 78.736C251.718 78.9067 252.118 78.992 252.619 78.992C253.174 78.992 253.622 78.8853 253.963 78.672C254.315 78.448 254.491 78.144 254.491 77.76C254.491 77.504 254.416 77.296 254.267 77.136C254.128 76.9653 253.883 76.8213 253.531 76.704C253.19 76.576 252.678 76.4373 251.995 76.288C251.067 76.0853 250.406 75.792 250.011 75.408C249.627 75.024 249.435 74.528 249.435 73.92C249.435 73.5147 249.552 73.1307 249.787 72.768C250.032 72.3947 250.384 72.096 250.843 71.872C251.312 71.6373 251.872 71.52 252.523 71.52C253.206 71.52 253.787 71.632 254.267 71.856C254.747 72.08 255.104 72.3467 255.339 72.656C255.584 72.9547 255.707 73.2053 255.707 73.408C255.707 73.504 255.67 73.584 255.595 73.648C255.531 73.712 255.451 73.744 255.355 73.744H254.683C254.555 73.744 254.448 73.6907 254.363 73.584C254.192 73.3813 254.043 73.2267 253.915 73.12C253.798 73.0027 253.622 72.9013 253.387 72.816C253.163 72.7307 252.875 72.688 252.523 72.688C252.011 72.688 251.616 72.8 251.339 73.024C251.062 73.2373 250.923 73.52 250.923 73.872C250.923 74.096 250.982 74.288 251.099 74.448C251.216 74.5973 251.44 74.736 251.771 74.864C252.112 74.992 252.603 75.1253 253.243 75.264C254.256 75.4773 254.971 75.7867 255.387 76.192C255.814 76.5867 256.027 77.0933 256.027 77.712C256.027 78.1707 255.894 78.5867 255.627 78.96C255.36 79.3333 254.966 79.6267 254.443 79.84C253.931 80.0533 253.318 80.16 252.603 80.16ZM258.119 70.128C258.013 70.128 257.922 70.096 257.847 70.032C257.783 69.9573 257.751 69.8667 257.751 69.76V68.896C257.751 68.7893 257.783 68.6987 257.847 68.624C257.922 68.5493 258.013 68.512 258.119 68.512H259.127C259.234 68.512 259.325 68.5493 259.399 68.624C259.474 68.6987 259.511 68.7893 259.511 68.896V69.76C259.511 69.8667 259.474 69.9573 259.399 70.032C259.325 70.096 259.234 70.128 259.127 70.128H258.119ZM258.247 80C258.141 80 258.05 79.968 257.975 79.904C257.911 79.8293 257.879 79.7387 257.879 79.632V72.048C257.879 71.9413 257.911 71.856 257.975 71.792C258.05 71.7173 258.141 71.68 258.247 71.68H259.015C259.122 71.68 259.207 71.7173 259.271 71.792C259.346 71.856 259.383 71.9413 259.383 72.048V79.632C259.383 79.7387 259.346 79.8293 259.271 79.904C259.207 79.968 259.122 80 259.015 80H258.247ZM265.002 80C263.317 80 262.474 79.0613 262.474 77.184V72.96H261.226C261.12 72.96 261.029 72.928 260.954 72.864C260.89 72.7893 260.858 72.6987 260.858 72.592V72.048C260.858 71.9413 260.89 71.856 260.954 71.792C261.029 71.7173 261.12 71.68 261.226 71.68H262.474V69.008C262.474 68.9013 262.506 68.816 262.57 68.752C262.645 68.6773 262.736 68.64 262.842 68.64H263.594C263.701 68.64 263.786 68.6773 263.85 68.752C263.925 68.816 263.962 68.9013 263.962 69.008V71.68H265.946C266.053 71.68 266.138 71.7173 266.202 71.792C266.277 71.856 266.314 71.9413 266.314 72.048V72.592C266.314 72.6987 266.277 72.7893 266.202 72.864C266.138 72.928 266.053 72.96 265.946 72.96H263.962V77.072C263.962 77.6053 264.053 78.0107 264.234 78.288C264.416 78.5547 264.714 78.688 265.13 78.688H266.106C266.213 78.688 266.298 78.7253 266.362 78.8C266.437 78.864 266.474 78.9493 266.474 79.056V79.632C266.474 79.7387 266.437 79.8293 266.362 79.904C266.298 79.968 266.213 80 266.106 80H265.002ZM274.246 80.16C273.724 80.16 273.238 80.0533 272.79 79.84C272.342 79.6267 271.985 79.3387 271.718 78.976C271.462 78.6027 271.334 78.192 271.334 77.744C271.334 77.04 271.622 76.464 272.198 76.016C272.785 75.5573 273.574 75.2587 274.566 75.12L276.95 74.784V74.32C276.95 73.232 276.326 72.688 275.078 72.688C274.609 72.688 274.225 72.7893 273.926 72.992C273.628 73.184 273.404 73.4133 273.254 73.68C273.222 73.776 273.18 73.8453 273.126 73.888C273.084 73.9307 273.02 73.952 272.934 73.952H272.246C272.15 73.952 272.065 73.92 271.99 73.856C271.926 73.7813 271.894 73.696 271.894 73.6C271.905 73.344 272.022 73.056 272.246 72.736C272.481 72.4053 272.838 72.1227 273.318 71.888C273.798 71.6427 274.39 71.52 275.094 71.52C276.289 71.52 277.148 71.8027 277.67 72.368C278.193 72.9227 278.454 73.616 278.454 74.448V79.632C278.454 79.7387 278.417 79.8293 278.342 79.904C278.278 79.968 278.193 80 278.086 80H277.35C277.244 80 277.153 79.968 277.078 79.904C277.014 79.8293 276.982 79.7387 276.982 79.632V78.944C276.748 79.2853 276.406 79.5733 275.958 79.808C275.51 80.0427 274.94 80.16 274.246 80.16ZM274.582 78.96C275.276 78.96 275.841 78.736 276.278 78.288C276.726 77.8293 276.95 77.1733 276.95 76.32V75.872L275.094 76.144C274.337 76.2507 273.766 76.432 273.382 76.688C272.998 76.9333 272.806 77.248 272.806 77.632C272.806 78.0587 272.982 78.3893 273.334 78.624C273.686 78.848 274.102 78.96 274.582 78.96ZM281.122 80C281.016 80 280.925 79.968 280.85 79.904C280.786 79.8293 280.754 79.7387 280.754 79.632V72.048C280.754 71.9413 280.786 71.856 280.85 71.792C280.925 71.7173 281.016 71.68 281.122 71.68H281.842C281.949 71.68 282.034 71.7173 282.098 71.792C282.173 71.856 282.21 71.9413 282.21 72.048V72.608C282.765 71.8827 283.538 71.52 284.53 71.52C285.714 71.52 286.552 72.0107 287.042 72.992C287.298 72.544 287.661 72.1867 288.13 71.92C288.6 71.6533 289.128 71.52 289.714 71.52C290.589 71.52 291.304 71.8187 291.858 72.416C292.413 73.0133 292.69 73.8773 292.69 75.008V79.632C292.69 79.7387 292.653 79.8293 292.578 79.904C292.514 79.968 292.429 80 292.322 80H291.57C291.464 80 291.373 79.968 291.298 79.904C291.234 79.8293 291.202 79.7387 291.202 79.632V75.152C291.202 74.32 291.026 73.7227 290.674 73.36C290.333 72.9973 289.88 72.816 289.314 72.816C288.813 72.816 288.381 73.0027 288.018 73.376C287.656 73.7387 287.474 74.3307 287.474 75.152V79.632C287.474 79.7387 287.437 79.8293 287.362 79.904C287.298 79.968 287.213 80 287.106 80H286.354C286.248 80 286.157 79.968 286.082 79.904C286.018 79.8293 285.986 79.7387 285.986 79.632V75.152C285.986 74.32 285.805 73.7227 285.442 73.36C285.09 72.9973 284.642 72.816 284.098 72.816C283.597 72.816 283.165 73.0027 282.802 73.376C282.44 73.7387 282.258 74.3253 282.258 75.136V79.632C282.258 79.7387 282.221 79.8293 282.146 79.904C282.082 79.968 281.997 80 281.89 80H281.122ZM298.301 80.16C297.202 80.16 296.322 79.824 295.661 79.152C295.01 78.4693 294.653 77.5413 294.589 76.368L294.573 75.824L294.589 75.296C294.664 74.144 295.026 73.2267 295.677 72.544C296.338 71.8613 297.208 71.52 298.285 71.52C299.469 71.52 300.386 71.8987 301.037 72.656C301.688 73.4027 302.013 74.416 302.013 75.696V75.968C302.013 76.0747 301.976 76.1653 301.901 76.24C301.837 76.304 301.752 76.336 301.645 76.336H296.109V76.48C296.141 77.1733 296.349 77.7653 296.733 78.256C297.128 78.736 297.645 78.976 298.285 78.976C298.776 78.976 299.176 78.88 299.485 78.688C299.805 78.4853 300.04 78.2773 300.189 78.064C300.285 77.936 300.354 77.8613 300.397 77.84C300.45 77.808 300.541 77.792 300.669 77.792H301.453C301.549 77.792 301.629 77.8187 301.693 77.872C301.757 77.9253 301.789 78 301.789 78.096C301.789 78.3307 301.64 78.6133 301.341 78.944C301.053 79.2747 300.642 79.5627 300.109 79.808C299.586 80.0427 298.984 80.16 298.301 80.16ZM300.493 75.232V75.184C300.493 74.448 300.29 73.8507 299.885 73.392C299.49 72.9227 298.957 72.688 298.285 72.688C297.613 72.688 297.08 72.9227 296.685 73.392C296.301 73.8507 296.109 74.448 296.109 75.184V75.232H300.493ZM307.127 80C305.442 80 304.599 79.0613 304.599 77.184V72.96H303.351C303.245 72.96 303.154 72.928 303.079 72.864C303.015 72.7893 302.983 72.6987 302.983 72.592V72.048C302.983 71.9413 303.015 71.856 303.079 71.792C303.154 71.7173 303.245 71.68 303.351 71.68H304.599V69.008C304.599 68.9013 304.631 68.816 304.695 68.752C304.77 68.6773 304.861 68.64 304.967 68.64H305.719C305.826 68.64 305.911 68.6773 305.975 68.752C306.05 68.816 306.087 68.9013 306.087 69.008V71.68H308.071C308.178 71.68 308.263 71.7173 308.327 71.792C308.402 71.856 308.439 71.9413 308.439 72.048V72.592C308.439 72.6987 308.402 72.7893 308.327 72.864C308.263 72.928 308.178 72.96 308.071 72.96H306.087V77.072C306.087 77.6053 306.178 78.0107 306.359 78.288C306.541 78.5547 306.839 78.688 307.255 78.688H308.231C308.338 78.688 308.423 78.7253 308.487 78.8C308.562 78.864 308.599 78.9493 308.599 79.056V79.632C308.599 79.7387 308.562 79.8293 308.487 79.904C308.423 79.968 308.338 80 308.231 80H307.127ZM310.017 81.2C309.932 81.2 309.863 81.168 309.809 81.104C309.767 81.04 309.751 80.96 309.761 80.864L310.129 78.576C310.172 78.2667 310.321 78.112 310.577 78.112H311.649C311.724 78.112 311.783 78.1387 311.825 78.192C311.879 78.2453 311.905 78.3093 311.905 78.384C311.905 78.4373 311.889 78.5227 311.857 78.64L311.009 80.832C310.956 80.96 310.897 81.0507 310.833 81.104C310.769 81.168 310.673 81.2 310.545 81.2H310.017ZM321.396 80.16C320.254 80.16 319.358 79.84 318.708 79.2C318.068 78.5493 317.726 77.6427 317.684 76.48L317.668 75.84L317.684 75.2C317.726 74.0373 318.068 73.136 318.708 72.496C319.358 71.8453 320.254 71.52 321.396 71.52C322.164 71.52 322.814 71.6587 323.348 71.936C323.881 72.2133 324.276 72.5547 324.532 72.96C324.798 73.3653 324.942 73.7707 324.964 74.176C324.974 74.2827 324.942 74.368 324.868 74.432C324.793 74.496 324.702 74.528 324.596 74.528H323.828C323.721 74.528 323.641 74.5067 323.588 74.464C323.534 74.4213 323.481 74.336 323.428 74.208C323.246 73.696 322.99 73.3333 322.66 73.12C322.329 72.896 321.913 72.784 321.412 72.784C320.75 72.784 320.222 72.992 319.828 73.408C319.444 73.8133 319.236 74.4373 319.204 75.28L319.188 75.856L319.204 76.4C319.236 77.2533 319.444 77.8827 319.828 78.288C320.212 78.6933 320.74 78.896 321.412 78.896C321.913 78.896 322.329 78.7893 322.66 78.576C322.99 78.352 323.246 77.984 323.428 77.472C323.481 77.344 323.534 77.2587 323.588 77.216C323.641 77.1627 323.721 77.136 323.828 77.136H324.596C324.702 77.136 324.793 77.1733 324.868 77.248C324.942 77.312 324.974 77.3973 324.964 77.504C324.942 77.8987 324.798 78.304 324.532 78.72C324.276 79.1253 323.881 79.4667 323.348 79.744C322.825 80.0213 322.174 80.16 321.396 80.16ZM330.272 80.16C329.098 80.16 328.186 79.8293 327.536 79.168C326.896 78.5067 326.554 77.6267 326.512 76.528L326.496 75.84L326.512 75.152C326.554 74.064 326.901 73.1893 327.552 72.528C328.202 71.856 329.109 71.52 330.272 71.52C331.434 71.52 332.341 71.856 332.992 72.528C333.642 73.1893 333.989 74.064 334.032 75.152C334.042 75.2693 334.048 75.4987 334.048 75.84C334.048 76.1813 334.042 76.4107 334.032 76.528C333.989 77.6267 333.642 78.5067 332.992 79.168C332.352 79.8293 331.445 80.16 330.272 80.16ZM330.272 78.928C330.944 78.928 331.472 78.7147 331.856 78.288C332.25 77.8613 332.464 77.248 332.496 76.448C332.506 76.3413 332.512 76.1387 332.512 75.84C332.512 75.5413 332.506 75.3387 332.496 75.232C332.464 74.432 332.25 73.8187 331.856 73.392C331.472 72.9653 330.944 72.752 330.272 72.752C329.6 72.752 329.066 72.9653 328.672 73.392C328.277 73.8187 328.069 74.432 328.048 75.232L328.032 75.84L328.048 76.448C328.069 77.248 328.277 77.8613 328.672 78.288C329.066 78.7147 329.6 78.928 330.272 78.928ZM336.419 80C336.313 80 336.222 79.968 336.147 79.904C336.083 79.8293 336.051 79.7387 336.051 79.632V72.048C336.051 71.9413 336.083 71.856 336.147 71.792C336.222 71.7173 336.313 71.68 336.419 71.68H337.171C337.278 71.68 337.363 71.7173 337.427 71.792C337.502 71.856 337.539 71.9413 337.539 72.048V72.752C337.849 72.3573 338.211 72.0533 338.627 71.84C339.054 71.6267 339.582 71.52 340.211 71.52C341.235 71.52 342.03 71.8507 342.595 72.512C343.171 73.1627 343.459 74.032 343.459 75.12V79.632C343.459 79.7387 343.422 79.8293 343.347 79.904C343.283 79.968 343.198 80 343.091 80H342.291C342.185 80 342.094 79.968 342.019 79.904C341.955 79.8293 341.923 79.7387 341.923 79.632V75.2C341.923 74.4427 341.737 73.856 341.363 73.44C341.001 73.024 340.473 72.816 339.779 72.816C339.107 72.816 338.574 73.0293 338.179 73.456C337.785 73.872 337.587 74.4533 337.587 75.2V79.632C337.587 79.7387 337.55 79.8293 337.475 79.904C337.411 79.968 337.326 80 337.219 80H336.419ZM348.634 80.16C347.888 80.16 347.258 80.0427 346.746 79.808C346.245 79.5627 345.866 79.2853 345.61 78.976C345.365 78.6667 345.242 78.4107 345.242 78.208C345.242 78.1013 345.28 78.0213 345.354 77.968C345.44 77.904 345.525 77.872 345.61 77.872H346.33C346.437 77.872 346.533 77.9253 346.618 78.032C346.874 78.3307 347.152 78.5653 347.45 78.736C347.749 78.9067 348.149 78.992 348.65 78.992C349.205 78.992 349.653 78.8853 349.994 78.672C350.346 78.448 350.522 78.144 350.522 77.76C350.522 77.504 350.448 77.296 350.298 77.136C350.16 76.9653 349.914 76.8213 349.562 76.704C349.221 76.576 348.709 76.4373 348.026 76.288C347.098 76.0853 346.437 75.792 346.042 75.408C345.658 75.024 345.466 74.528 345.466 73.92C345.466 73.5147 345.584 73.1307 345.818 72.768C346.064 72.3947 346.416 72.096 346.874 71.872C347.344 71.6373 347.904 71.52 348.554 71.52C349.237 71.52 349.818 71.632 350.298 71.856C350.778 72.08 351.136 72.3467 351.37 72.656C351.616 72.9547 351.738 73.2053 351.738 73.408C351.738 73.504 351.701 73.584 351.626 73.648C351.562 73.712 351.482 73.744 351.386 73.744H350.714C350.586 73.744 350.48 73.6907 350.394 73.584C350.224 73.3813 350.074 73.2267 349.946 73.12C349.829 73.0027 349.653 72.9013 349.418 72.816C349.194 72.7307 348.906 72.688 348.554 72.688C348.042 72.688 347.648 72.8 347.37 73.024C347.093 73.2373 346.954 73.52 346.954 73.872C346.954 74.096 347.013 74.288 347.13 74.448C347.248 74.5973 347.472 74.736 347.802 74.864C348.144 74.992 348.634 75.1253 349.274 75.264C350.288 75.4773 351.002 75.7867 351.418 76.192C351.845 76.5867 352.058 77.0933 352.058 77.712C352.058 78.1707 351.925 78.5867 351.658 78.96C351.392 79.3333 350.997 79.6267 350.474 79.84C349.962 80.0533 349.349 80.16 348.634 80.16ZM357.239 80.16C356.14 80.16 355.26 79.824 354.599 79.152C353.948 78.4693 353.591 77.5413 353.527 76.368L353.511 75.824L353.527 75.296C353.601 74.144 353.964 73.2267 354.615 72.544C355.276 71.8613 356.145 71.52 357.223 71.52C358.407 71.52 359.324 71.8987 359.975 72.656C360.625 73.4027 360.951 74.416 360.951 75.696V75.968C360.951 76.0747 360.913 76.1653 360.839 76.24C360.775 76.304 360.689 76.336 360.583 76.336H355.047V76.48C355.079 77.1733 355.287 77.7653 355.671 78.256C356.065 78.736 356.583 78.976 357.223 78.976C357.713 78.976 358.113 78.88 358.423 78.688C358.743 78.4853 358.977 78.2773 359.127 78.064C359.223 77.936 359.292 77.8613 359.335 77.84C359.388 77.808 359.479 77.792 359.607 77.792H360.391C360.487 77.792 360.567 77.8187 360.631 77.872C360.695 77.9253 360.727 78 360.727 78.096C360.727 78.3307 360.577 78.6133 360.279 78.944C359.991 79.2747 359.58 79.5627 359.047 79.808C358.524 80.0427 357.921 80.16 357.239 80.16ZM359.431 75.232V75.184C359.431 74.448 359.228 73.8507 358.823 73.392C358.428 72.9227 357.895 72.688 357.223 72.688C356.551 72.688 356.017 72.9227 355.623 73.392C355.239 73.8507 355.047 74.448 355.047 75.184V75.232H359.431ZM366.224 80.16C365.082 80.16 364.186 79.84 363.536 79.2C362.896 78.5493 362.554 77.6427 362.512 76.48L362.496 75.84L362.512 75.2C362.554 74.0373 362.896 73.136 363.536 72.496C364.186 71.8453 365.082 71.52 366.224 71.52C366.992 71.52 367.642 71.6587 368.176 71.936C368.709 72.2133 369.104 72.5547 369.36 72.96C369.626 73.3653 369.77 73.7707 369.792 74.176C369.802 74.2827 369.77 74.368 369.696 74.432C369.621 74.496 369.53 74.528 369.424 74.528H368.656C368.549 74.528 368.469 74.5067 368.416 74.464C368.362 74.4213 368.309 74.336 368.256 74.208C368.074 73.696 367.818 73.3333 367.488 73.12C367.157 72.896 366.741 72.784 366.24 72.784C365.578 72.784 365.05 72.992 364.656 73.408C364.272 73.8133 364.064 74.4373 364.032 75.28L364.016 75.856L364.032 76.4C364.064 77.2533 364.272 77.8827 364.656 78.288C365.04 78.6933 365.568 78.896 366.24 78.896C366.741 78.896 367.157 78.7893 367.488 78.576C367.818 78.352 368.074 77.984 368.256 77.472C368.309 77.344 368.362 77.2587 368.416 77.216C368.469 77.1627 368.549 77.136 368.656 77.136H369.424C369.53 77.136 369.621 77.1733 369.696 77.248C369.77 77.312 369.802 77.3973 369.792 77.504C369.77 77.8987 369.626 78.304 369.36 78.72C369.104 79.1253 368.709 79.4667 368.176 79.744C367.653 80.0213 367.002 80.16 366.224 80.16ZM374.94 80C373.254 80 372.412 79.0613 372.412 77.184V72.96H371.164C371.057 72.96 370.966 72.928 370.892 72.864C370.828 72.7893 370.796 72.6987 370.796 72.592V72.048C370.796 71.9413 370.828 71.856 370.892 71.792C370.966 71.7173 371.057 71.68 371.164 71.68H372.412V69.008C372.412 68.9013 372.444 68.816 372.508 68.752C372.582 68.6773 372.673 68.64 372.78 68.64H373.532C373.638 68.64 373.724 68.6773 373.788 68.752C373.862 68.816 373.9 68.9013 373.9 69.008V71.68H375.884C375.99 71.68 376.076 71.7173 376.14 71.792C376.214 71.856 376.252 71.9413 376.252 72.048V72.592C376.252 72.6987 376.214 72.7893 376.14 72.864C376.076 72.928 375.99 72.96 375.884 72.96H373.9V77.072C373.9 77.6053 373.99 78.0107 374.172 78.288C374.353 78.5547 374.652 78.688 375.068 78.688H376.044C376.15 78.688 376.236 78.7253 376.3 78.8C376.374 78.864 376.412 78.9493 376.412 79.056V79.632C376.412 79.7387 376.374 79.8293 376.3 79.904C376.236 79.968 376.15 80 376.044 80H374.94ZM381.27 80.16C380.171 80.16 379.291 79.824 378.63 79.152C377.979 78.4693 377.622 77.5413 377.558 76.368L377.542 75.824L377.558 75.296C377.632 74.144 377.995 73.2267 378.646 72.544C379.307 71.8613 380.176 71.52 381.254 71.52C382.438 71.52 383.355 71.8987 384.006 72.656C384.656 73.4027 384.982 74.416 384.982 75.696V75.968C384.982 76.0747 384.944 76.1653 384.87 76.24C384.806 76.304 384.72 76.336 384.614 76.336H379.078V76.48C379.11 77.1733 379.318 77.7653 379.702 78.256C380.096 78.736 380.614 78.976 381.254 78.976C381.744 78.976 382.144 78.88 382.454 78.688C382.774 78.4853 383.008 78.2773 383.158 78.064C383.254 77.936 383.323 77.8613 383.366 77.84C383.419 77.808 383.51 77.792 383.638 77.792H384.422C384.518 77.792 384.598 77.8187 384.662 77.872C384.726 77.9253 384.758 78 384.758 78.096C384.758 78.3307 384.608 78.6133 384.31 78.944C384.022 79.2747 383.611 79.5627 383.078 79.808C382.555 80.0427 381.952 80.16 381.27 80.16ZM383.462 75.232V75.184C383.462 74.448 383.259 73.8507 382.854 73.392C382.459 72.9227 381.926 72.688 381.254 72.688C380.582 72.688 380.048 72.9227 379.654 73.392C379.27 73.8507 379.078 74.448 379.078 75.184V75.232H383.462ZM390.096 80C388.411 80 387.568 79.0613 387.568 77.184V72.96H386.32C386.213 72.96 386.123 72.928 386.048 72.864C385.984 72.7893 385.952 72.6987 385.952 72.592V72.048C385.952 71.9413 385.984 71.856 386.048 71.792C386.123 71.7173 386.213 71.68 386.32 71.68H387.568V69.008C387.568 68.9013 387.6 68.816 387.664 68.752C387.739 68.6773 387.829 68.64 387.936 68.64H388.688C388.795 68.64 388.88 68.6773 388.944 68.752C389.019 68.816 389.056 68.9013 389.056 69.008V71.68H391.04C391.147 71.68 391.232 71.7173 391.296 71.792C391.371 71.856 391.408 71.9413 391.408 72.048V72.592C391.408 72.6987 391.371 72.7893 391.296 72.864C391.232 72.928 391.147 72.96 391.04 72.96H389.056V77.072C389.056 77.6053 389.147 78.0107 389.328 78.288C389.509 78.5547 389.808 78.688 390.224 78.688H391.2C391.307 78.688 391.392 78.7253 391.456 78.8C391.531 78.864 391.568 78.9493 391.568 79.056V79.632C391.568 79.7387 391.531 79.8293 391.456 79.904C391.392 79.968 391.307 80 391.2 80H390.096ZM396.202 80.16C395.189 80.16 394.405 79.8347 393.85 79.184C393.295 78.5227 393.018 77.648 393.018 76.56V72.048C393.018 71.9413 393.05 71.856 393.114 71.792C393.189 71.7173 393.279 71.68 393.386 71.68H394.186C394.293 71.68 394.378 71.7173 394.442 71.792C394.517 71.856 394.554 71.9413 394.554 72.048V76.48C394.554 78.0693 395.247 78.864 396.634 78.864C397.306 78.864 397.839 78.656 398.234 78.24C398.629 77.8133 398.826 77.2267 398.826 76.48V72.048C398.826 71.9413 398.858 71.856 398.922 71.792C398.997 71.7173 399.087 71.68 399.194 71.68H399.994C400.101 71.68 400.186 71.7173 400.25 71.792C400.314 71.856 400.346 71.9413 400.346 72.048V79.632C400.346 79.7387 400.314 79.8293 400.25 79.904C400.186 79.968 400.101 80 399.994 80H399.242C399.135 80 399.045 79.968 398.97 79.904C398.906 79.8293 398.874 79.7387 398.874 79.632V78.928C398.575 79.3333 398.213 79.6427 397.786 79.856C397.359 80.0587 396.831 80.16 396.202 80.16ZM403.091 80C402.984 80 402.894 79.968 402.819 79.904C402.755 79.8293 402.723 79.7387 402.723 79.632V72.064C402.723 71.9573 402.755 71.8667 402.819 71.792C402.894 71.7173 402.984 71.68 403.091 71.68H403.827C403.934 71.68 404.024 71.7173 404.099 71.792C404.174 71.8667 404.211 71.9573 404.211 72.064V72.768C404.648 72.0427 405.395 71.68 406.451 71.68H407.075C407.182 71.68 407.267 71.7173 407.331 71.792C407.406 71.856 407.443 71.9413 407.443 72.048V72.704C407.443 72.8107 407.406 72.896 407.331 72.96C407.267 73.024 407.182 73.056 407.075 73.056H406.115C405.539 73.056 405.086 73.2267 404.755 73.568C404.424 73.8987 404.259 74.352 404.259 74.928V79.632C404.259 79.7387 404.222 79.8293 404.147 79.904C404.072 79.968 403.982 80 403.875 80H403.091Z" fill="#180202"/>
<rect y="123" width="503" height="61" rx="30.5" fill="white"/>
<path opacity="0.3" d="M31.98 160C31.86 160 31.758 159.964 31.674 159.892C31.602 159.808 31.566 159.706 31.566 159.586V147.832C31.566 147.7 31.602 147.598 31.674 147.526C31.758 147.442 31.86 147.4 31.98 147.4H39.414C39.534 147.4 39.63 147.442 39.702 147.526C39.786 147.598 39.828 147.7 39.828 147.832V148.516C39.828 148.636 39.792 148.738 39.72 148.822C39.648 148.894 39.546 148.93 39.414 148.93H33.294V152.872H39.018C39.138 152.872 39.234 152.914 39.306 152.998C39.39 153.07 39.432 153.172 39.432 153.304V153.97C39.432 154.09 39.39 154.192 39.306 154.276C39.234 154.348 39.138 154.384 39.018 154.384H33.294V158.47H39.558C39.69 158.47 39.792 158.506 39.864 158.578C39.936 158.65 39.972 158.752 39.972 158.884V159.586C39.972 159.706 39.93 159.808 39.846 159.892C39.774 159.964 39.678 160 39.558 160H31.98ZM42.662 160C42.542 160 42.44 159.964 42.356 159.892C42.284 159.808 42.248 159.706 42.248 159.586V151.054C42.248 150.934 42.284 150.838 42.356 150.766C42.44 150.682 42.542 150.64 42.662 150.64H43.508C43.628 150.64 43.724 150.682 43.796 150.766C43.88 150.838 43.922 150.934 43.922 151.054V151.846C44.27 151.402 44.678 151.06 45.146 150.82C45.626 150.58 46.22 150.46 46.928 150.46C48.08 150.46 48.974 150.832 49.61 151.576C50.258 152.308 50.582 153.286 50.582 154.51V159.586C50.582 159.706 50.54 159.808 50.456 159.892C50.384 159.964 50.288 160 50.168 160H49.268C49.148 160 49.046 159.964 48.962 159.892C48.89 159.808 48.854 159.706 48.854 159.586V154.6C48.854 153.748 48.644 153.088 48.224 152.62C47.816 152.152 47.222 151.918 46.442 151.918C45.686 151.918 45.086 152.158 44.642 152.638C44.198 153.106 43.976 153.76 43.976 154.6V159.586C43.976 159.706 43.934 159.808 43.85 159.892C43.778 159.964 43.682 160 43.562 160H42.662ZM56.695 160C54.799 160 53.851 158.944 53.851 156.832V152.08H52.447C52.327 152.08 52.225 152.044 52.141 151.972C52.069 151.888 52.033 151.786 52.033 151.666V151.054C52.033 150.934 52.069 150.838 52.141 150.766C52.225 150.682 52.327 150.64 52.447 150.64H53.851V147.634C53.851 147.514 53.887 147.418 53.959 147.346C54.043 147.262 54.145 147.22 54.265 147.22H55.111C55.231 147.22 55.327 147.262 55.399 147.346C55.483 147.418 55.525 147.514 55.525 147.634V150.64H57.757C57.877 150.64 57.973 150.682 58.045 150.766C58.129 150.838 58.171 150.934 58.171 151.054V151.666C58.171 151.786 58.129 151.888 58.045 151.972C57.973 152.044 57.877 152.08 57.757 152.08H55.525V156.706C55.525 157.306 55.627 157.762 55.831 158.074C56.035 158.374 56.371 158.524 56.839 158.524H57.937C58.057 158.524 58.153 158.566 58.225 158.65C58.309 158.722 58.351 158.818 58.351 158.938V159.586C58.351 159.706 58.309 159.808 58.225 159.892C58.153 159.964 58.057 160 57.937 160H56.695ZM63.8162 160.18C62.5802 160.18 61.5902 159.802 60.8462 159.046C60.1142 158.278 59.7122 157.234 59.6402 155.914L59.6222 155.302L59.6402 154.708C59.7242 153.412 60.1322 152.38 60.8642 151.612C61.6082 150.844 62.5862 150.46 63.7982 150.46C65.1302 150.46 66.1622 150.886 66.8942 151.738C67.6262 152.578 67.9922 153.718 67.9922 155.158V155.464C67.9922 155.584 67.9502 155.686 67.8662 155.77C67.7942 155.842 67.6982 155.878 67.5782 155.878H61.3502V156.04C61.3862 156.82 61.6202 157.486 62.0522 158.038C62.4962 158.578 63.0782 158.848 63.7982 158.848C64.3502 158.848 64.8002 158.74 65.1482 158.524C65.5082 158.296 65.7722 158.062 65.9402 157.822C66.0482 157.678 66.1262 157.594 66.1742 157.57C66.2342 157.534 66.3362 157.516 66.4802 157.516H67.3622C67.4702 157.516 67.5602 157.546 67.6322 157.606C67.7042 157.666 67.7402 157.75 67.7402 157.858C67.7402 158.122 67.5722 158.44 67.2362 158.812C66.9122 159.184 66.4502 159.508 65.8502 159.784C65.2622 160.048 64.5842 160.18 63.8162 160.18ZM66.2822 154.636V154.582C66.2822 153.754 66.0542 153.082 65.5982 152.566C65.1542 152.038 64.5542 151.774 63.7982 151.774C63.0422 151.774 62.4422 152.038 61.9982 152.566C61.5662 153.082 61.3502 153.754 61.3502 154.582V154.636H66.2822ZM70.5585 160C70.4385 160 70.3365 159.964 70.2525 159.892C70.1805 159.808 70.1445 159.706 70.1445 159.586V151.072C70.1445 150.952 70.1805 150.85 70.2525 150.766C70.3365 150.682 70.4385 150.64 70.5585 150.64H71.3865C71.5065 150.64 71.6085 150.682 71.6925 150.766C71.7765 150.85 71.8185 150.952 71.8185 151.072V151.864C72.3105 151.048 73.1505 150.64 74.3385 150.64H75.0405C75.1605 150.64 75.2565 150.682 75.3285 150.766C75.4125 150.838 75.4545 150.934 75.4545 151.054V151.792C75.4545 151.912 75.4125 152.008 75.3285 152.08C75.2565 152.152 75.1605 152.188 75.0405 152.188H73.9605C73.3125 152.188 72.8025 152.38 72.4305 152.764C72.0585 153.136 71.8725 153.646 71.8725 154.294V159.586C71.8725 159.706 71.8305 159.808 71.7465 159.892C71.6625 159.964 71.5605 160 71.4405 160H70.5585ZM84.4593 160C84.3393 160 84.2373 159.964 84.1533 159.892C84.0813 159.808 84.0453 159.706 84.0453 159.586V155.338L79.7073 147.994C79.7073 147.97 79.7013 147.934 79.6893 147.886C79.6653 147.838 79.6533 147.796 79.6533 147.76C79.6533 147.664 79.6893 147.58 79.7613 147.508C79.8333 147.436 79.9173 147.4 80.0133 147.4H80.9493C81.1533 147.4 81.3093 147.502 81.4173 147.706L84.9273 153.538L88.4373 147.706C88.5693 147.502 88.7313 147.4 88.9233 147.4H89.8413C89.9493 147.4 90.0393 147.436 90.1113 147.508C90.1833 147.58 90.2193 147.664 90.2193 147.76C90.2193 147.82 90.1953 147.898 90.1473 147.994L85.8273 155.338V159.586C85.8273 159.706 85.7853 159.808 85.7013 159.892C85.6173 159.964 85.5153 160 85.3953 160H84.4593ZM94.4219 160.18C93.1019 160.18 92.0759 159.808 91.3439 159.064C90.6239 158.32 90.2399 157.33 90.1919 156.094L90.1739 155.32L90.1919 154.546C90.2399 153.322 90.6299 152.338 91.3619 151.594C92.0939 150.838 93.1139 150.46 94.4219 150.46C95.7299 150.46 96.7499 150.838 97.4819 151.594C98.2139 152.338 98.6039 153.322 98.6519 154.546C98.6639 154.678 98.6699 154.936 98.6699 155.32C98.6699 155.704 98.6639 155.962 98.6519 156.094C98.6039 157.33 98.2139 158.32 97.4819 159.064C96.7619 159.808 95.7419 160.18 94.4219 160.18ZM94.4219 158.794C95.1779 158.794 95.7719 158.554 96.2039 158.074C96.6479 157.594 96.8879 156.904 96.9239 156.004C96.9359 155.884 96.9419 155.656 96.9419 155.32C96.9419 154.984 96.9359 154.756 96.9239 154.636C96.8879 153.736 96.6479 153.046 96.2039 152.566C95.7719 152.086 95.1779 151.846 94.4219 151.846C93.6659 151.846 93.0659 152.086 92.6219 152.566C92.1779 153.046 91.9439 153.736 91.9199 154.636L91.9019 155.32L91.9199 156.004C91.9439 156.904 92.1779 157.594 92.6219 158.074C93.0659 158.554 93.6659 158.794 94.4219 158.794ZM104.416 160.18C103.276 160.18 102.394 159.814 101.77 159.082C101.146 158.338 100.834 157.354 100.834 156.13V151.054C100.834 150.934 100.87 150.838 100.942 150.766C101.026 150.682 101.128 150.64 101.248 150.64H102.148C102.268 150.64 102.364 150.682 102.436 150.766C102.52 150.838 102.562 150.934 102.562 151.054V156.04C102.562 157.828 103.342 158.722 104.902 158.722C105.658 158.722 106.258 158.488 106.702 158.02C107.146 157.54 107.368 156.88 107.368 156.04V151.054C107.368 150.934 107.404 150.838 107.476 150.766C107.56 150.682 107.662 150.64 107.782 150.64H108.682C108.802 150.64 108.898 150.682 108.97 150.766C109.042 150.838 109.078 150.934 109.078 151.054V159.586C109.078 159.706 109.042 159.808 108.97 159.892C108.898 159.964 108.802 160 108.682 160H107.836C107.716 160 107.614 159.964 107.53 159.892C107.458 159.808 107.422 159.706 107.422 159.586V158.794C107.086 159.25 106.678 159.598 106.198 159.838C105.718 160.066 105.124 160.18 104.416 160.18ZM112.166 160C112.046 160 111.944 159.964 111.86 159.892C111.788 159.808 111.752 159.706 111.752 159.586V151.072C111.752 150.952 111.788 150.85 111.86 150.766C111.944 150.682 112.046 150.64 112.166 150.64H112.994C113.114 150.64 113.216 150.682 113.3 150.766C113.384 150.85 113.426 150.952 113.426 151.072V151.864C113.918 151.048 114.758 150.64 115.946 150.64H116.648C116.768 150.64 116.864 150.682 116.936 150.766C117.02 150.838 117.062 150.934 117.062 151.054V151.792C117.062 151.912 117.02 152.008 116.936 152.08C116.864 152.152 116.768 152.188 116.648 152.188H115.568C114.92 152.188 114.41 152.38 114.038 152.764C113.666 153.136 113.48 153.646 113.48 154.294V159.586C113.48 159.706 113.438 159.808 113.354 159.892C113.27 159.964 113.168 160 113.048 160H112.166ZM126.324 160.18C125.088 160.18 124.098 159.802 123.354 159.046C122.622 158.278 122.22 157.234 122.148 155.914L122.13 155.302L122.148 154.708C122.232 153.412 122.64 152.38 123.372 151.612C124.116 150.844 125.094 150.46 126.306 150.46C127.638 150.46 128.67 150.886 129.402 151.738C130.134 152.578 130.5 153.718 130.5 155.158V155.464C130.5 155.584 130.458 155.686 130.374 155.77C130.302 155.842 130.206 155.878 130.086 155.878H123.858V156.04C123.894 156.82 124.128 157.486 124.56 158.038C125.004 158.578 125.586 158.848 126.306 158.848C126.858 158.848 127.308 158.74 127.656 158.524C128.016 158.296 128.28 158.062 128.448 157.822C128.556 157.678 128.634 157.594 128.682 157.57C128.742 157.534 128.844 157.516 128.988 157.516H129.87C129.978 157.516 130.068 157.546 130.14 157.606C130.212 157.666 130.248 157.75 130.248 157.858C130.248 158.122 130.08 158.44 129.744 158.812C129.42 159.184 128.958 159.508 128.358 159.784C127.77 160.048 127.092 160.18 126.324 160.18ZM128.79 154.636V154.582C128.79 153.754 128.562 153.082 128.106 152.566C127.662 152.038 127.062 151.774 126.306 151.774C125.55 151.774 124.95 152.038 124.506 152.566C124.074 153.082 123.858 153.754 123.858 154.582V154.636H128.79ZM133.066 160C132.946 160 132.844 159.964 132.76 159.892C132.688 159.808 132.652 159.706 132.652 159.586V151.054C132.652 150.934 132.688 150.838 132.76 150.766C132.844 150.682 132.946 150.64 133.066 150.64H133.876C133.996 150.64 134.092 150.682 134.164 150.766C134.248 150.838 134.29 150.934 134.29 151.054V151.684C134.914 150.868 135.784 150.46 136.9 150.46C138.232 150.46 139.174 151.012 139.726 152.116C140.014 151.612 140.422 151.21 140.95 150.91C141.478 150.61 142.072 150.46 142.732 150.46C143.716 150.46 144.52 150.796 145.144 151.468C145.768 152.14 146.08 153.112 146.08 154.384V159.586C146.08 159.706 146.038 159.808 145.954 159.892C145.882 159.964 145.786 160 145.666 160H144.82C144.7 160 144.598 159.964 144.514 159.892C144.442 159.808 144.406 159.706 144.406 159.586V154.546C144.406 153.61 144.208 152.938 143.812 152.53C143.428 152.122 142.918 151.918 142.282 151.918C141.718 151.918 141.232 152.128 140.824 152.548C140.416 152.956 140.212 153.622 140.212 154.546V159.586C140.212 159.706 140.17 159.808 140.086 159.892C140.014 159.964 139.918 160 139.798 160H138.952C138.832 160 138.73 159.964 138.646 159.892C138.574 159.808 138.538 159.706 138.538 159.586V154.546C138.538 153.61 138.334 152.938 137.926 152.53C137.53 152.122 137.026 151.918 136.414 151.918C135.85 151.918 135.364 152.128 134.956 152.548C134.548 152.956 134.344 153.616 134.344 154.528V159.586C134.344 159.706 134.302 159.808 134.218 159.892C134.146 159.964 134.05 160 133.93 160H133.066ZM151.258 160.18C150.67 160.18 150.124 160.06 149.62 159.82C149.116 159.58 148.714 159.256 148.414 158.848C148.126 158.428 147.982 157.966 147.982 157.462C147.982 156.67 148.306 156.022 148.954 155.518C149.614 155.002 150.502 154.666 151.618 154.51L154.3 154.132V153.61C154.3 152.386 153.598 151.774 152.194 151.774C151.666 151.774 151.234 151.888 150.898 152.116C150.562 152.332 150.31 152.59 150.142 152.89C150.106 152.998 150.058 153.076 149.998 153.124C149.95 153.172 149.878 153.196 149.782 153.196H149.008C148.9 153.196 148.804 153.16 148.72 153.088C148.648 153.004 148.612 152.908 148.612 152.8C148.624 152.512 148.756 152.188 149.008 151.828C149.272 151.456 149.674 151.138 150.214 150.874C150.754 150.598 151.42 150.46 152.212 150.46C153.556 150.46 154.522 150.778 155.11 151.414C155.698 152.038 155.992 152.818 155.992 153.754V159.586C155.992 159.706 155.95 159.808 155.866 159.892C155.794 159.964 155.698 160 155.578 160H154.75C154.63 160 154.528 159.964 154.444 159.892C154.372 159.808 154.336 159.706 154.336 159.586V158.812C154.072 159.196 153.688 159.52 153.184 159.784C152.68 160.048 152.038 160.18 151.258 160.18ZM151.636 158.83C152.416 158.83 153.052 158.578 153.544 158.074C154.048 157.558 154.3 156.82 154.3 155.86V155.356L152.212 155.662C151.36 155.782 150.718 155.986 150.286 156.274C149.854 156.55 149.638 156.904 149.638 157.336C149.638 157.816 149.836 158.188 150.232 158.452C150.628 158.704 151.096 158.83 151.636 158.83ZM158.85 148.894C158.73 148.894 158.628 148.858 158.544 148.786C158.472 148.702 158.436 148.6 158.436 148.48V147.508C158.436 147.388 158.472 147.286 158.544 147.202C158.628 147.118 158.73 147.076 158.85 147.076H159.984C160.104 147.076 160.206 147.118 160.29 147.202C160.374 147.286 160.416 147.388 160.416 147.508V148.48C160.416 148.6 160.374 148.702 160.29 148.786C160.206 148.858 160.104 148.894 159.984 148.894H158.85ZM158.994 160C158.874 160 158.772 159.964 158.688 159.892C158.616 159.808 158.58 159.706 158.58 159.586V151.054C158.58 150.934 158.616 150.838 158.688 150.766C158.772 150.682 158.874 150.64 158.994 150.64H159.858C159.978 150.64 160.074 150.682 160.146 150.766C160.23 150.838 160.272 150.934 160.272 151.054V159.586C160.272 159.706 160.23 159.808 160.146 159.892C160.074 159.964 159.978 160 159.858 160H158.994ZM163.371 160C163.251 160 163.149 159.964 163.065 159.892C162.993 159.808 162.957 159.706 162.957 159.586V147.634C162.957 147.514 162.993 147.418 163.065 147.346C163.149 147.262 163.251 147.22 163.371 147.22H164.217C164.337 147.22 164.433 147.262 164.505 147.346C164.589 147.418 164.631 147.514 164.631 147.634V159.586C164.631 159.706 164.589 159.808 164.505 159.892C164.433 159.964 164.337 160 164.217 160H163.371ZM174.338 160.18C173.75 160.18 173.204 160.06 172.7 159.82C172.196 159.58 171.794 159.256 171.494 158.848C171.206 158.428 171.062 157.966 171.062 157.462C171.062 156.67 171.386 156.022 172.034 155.518C172.694 155.002 173.582 154.666 174.698 154.51L177.38 154.132V153.61C177.38 152.386 176.678 151.774 175.274 151.774C174.746 151.774 174.314 151.888 173.978 152.116C173.642 152.332 173.39 152.59 173.222 152.89C173.186 152.998 173.138 153.076 173.078 153.124C173.03 153.172 172.958 153.196 172.862 153.196H172.088C171.98 153.196 171.884 153.16 171.8 153.088C171.728 153.004 171.692 152.908 171.692 152.8C171.704 152.512 171.836 152.188 172.088 151.828C172.352 151.456 172.754 151.138 173.294 150.874C173.834 150.598 174.5 150.46 175.292 150.46C176.636 150.46 177.602 150.778 178.19 151.414C178.778 152.038 179.072 152.818 179.072 153.754V159.586C179.072 159.706 179.03 159.808 178.946 159.892C178.874 159.964 178.778 160 178.658 160H177.83C177.71 160 177.608 159.964 177.524 159.892C177.452 159.808 177.416 159.706 177.416 159.586V158.812C177.152 159.196 176.768 159.52 176.264 159.784C175.76 160.048 175.118 160.18 174.338 160.18ZM174.716 158.83C175.496 158.83 176.132 158.578 176.624 158.074C177.128 157.558 177.38 156.82 177.38 155.86V155.356L175.292 155.662C174.44 155.782 173.798 155.986 173.366 156.274C172.934 156.55 172.718 156.904 172.718 157.336C172.718 157.816 172.916 158.188 173.312 158.452C173.708 158.704 174.176 158.83 174.716 158.83ZM185.08 160.18C183.832 160.18 182.89 159.772 182.254 158.956C181.618 158.14 181.282 157.108 181.246 155.86L181.228 155.32L181.246 154.78C181.282 153.544 181.618 152.518 182.254 151.702C182.89 150.874 183.832 150.46 185.08 150.46C186.316 150.46 187.288 150.898 187.996 151.774V147.634C187.996 147.514 188.032 147.418 188.104 147.346C188.188 147.262 188.29 147.22 188.41 147.22H189.274C189.394 147.22 189.49 147.262 189.562 147.346C189.646 147.418 189.688 147.514 189.688 147.634V159.586C189.688 159.706 189.646 159.808 189.562 159.892C189.49 159.964 189.394 160 189.274 160H188.464C188.344 160 188.242 159.964 188.158 159.892C188.086 159.808 188.05 159.706 188.05 159.586V158.83C187.354 159.73 186.364 160.18 185.08 160.18ZM185.458 158.722C186.286 158.722 186.904 158.452 187.312 157.912C187.732 157.36 187.96 156.706 187.996 155.95C188.008 155.818 188.014 155.59 188.014 155.266C188.014 154.93 188.008 154.696 187.996 154.564C187.972 153.856 187.744 153.238 187.312 152.71C186.88 152.182 186.262 151.918 185.458 151.918C184.606 151.918 183.982 152.182 183.586 152.71C183.202 153.238 182.992 153.934 182.956 154.798L182.938 155.32C182.938 157.588 183.778 158.722 185.458 158.722ZM195.785 160.18C194.537 160.18 193.595 159.772 192.959 158.956C192.323 158.14 191.987 157.108 191.951 155.86L191.933 155.32L191.951 154.78C191.987 153.544 192.323 152.518 192.959 151.702C193.595 150.874 194.537 150.46 195.785 150.46C197.021 150.46 197.993 150.898 198.701 151.774V147.634C198.701 147.514 198.737 147.418 198.809 147.346C198.893 147.262 198.995 147.22 199.115 147.22H199.979C200.099 147.22 200.195 147.262 200.267 147.346C200.351 147.418 200.393 147.514 200.393 147.634V159.586C200.393 159.706 200.351 159.808 200.267 159.892C200.195 159.964 200.099 160 199.979 160H199.169C199.049 160 198.947 159.964 198.863 159.892C198.791 159.808 198.755 159.706 198.755 159.586V158.83C198.059 159.73 197.069 160.18 195.785 160.18ZM196.163 158.722C196.991 158.722 197.609 158.452 198.017 157.912C198.437 157.36 198.665 156.706 198.701 155.95C198.713 155.818 198.719 155.59 198.719 155.266C198.719 154.93 198.713 154.696 198.701 154.564C198.677 153.856 198.449 153.238 198.017 152.71C197.585 152.182 196.967 151.918 196.163 151.918C195.311 151.918 194.687 152.182 194.291 152.71C193.907 153.238 193.697 153.934 193.661 154.798L193.643 155.32C193.643 157.588 194.483 158.722 196.163 158.722ZM203.484 160C203.364 160 203.262 159.964 203.178 159.892C203.106 159.808 203.07 159.706 203.07 159.586V151.072C203.07 150.952 203.106 150.85 203.178 150.766C203.262 150.682 203.364 150.64 203.484 150.64H204.312C204.432 150.64 204.534 150.682 204.618 150.766C204.702 150.85 204.744 150.952 204.744 151.072V151.864C205.236 151.048 206.076 150.64 207.264 150.64H207.966C208.086 150.64 208.182 150.682 208.254 150.766C208.338 150.838 208.38 150.934 208.38 151.054V151.792C208.38 151.912 208.338 152.008 208.254 152.08C208.182 152.152 208.086 152.188 207.966 152.188H206.886C206.238 152.188 205.728 152.38 205.356 152.764C204.984 153.136 204.798 153.646 204.798 154.294V159.586C204.798 159.706 204.756 159.808 204.672 159.892C204.588 159.964 204.486 160 204.366 160H203.484ZM213.476 160.18C212.24 160.18 211.25 159.802 210.506 159.046C209.774 158.278 209.372 157.234 209.3 155.914L209.282 155.302L209.3 154.708C209.384 153.412 209.792 152.38 210.524 151.612C211.268 150.844 212.246 150.46 213.458 150.46C214.79 150.46 215.822 150.886 216.554 151.738C217.286 152.578 217.652 153.718 217.652 155.158V155.464C217.652 155.584 217.61 155.686 217.526 155.77C217.454 155.842 217.358 155.878 217.238 155.878H211.01V156.04C211.046 156.82 211.28 157.486 211.712 158.038C212.156 158.578 212.738 158.848 213.458 158.848C214.01 158.848 214.46 158.74 214.808 158.524C215.168 158.296 215.432 158.062 215.6 157.822C215.708 157.678 215.786 157.594 215.834 157.57C215.894 157.534 215.996 157.516 216.14 157.516H217.022C217.13 157.516 217.22 157.546 217.292 157.606C217.364 157.666 217.4 157.75 217.4 157.858C217.4 158.122 217.232 158.44 216.896 158.812C216.572 159.184 216.11 159.508 215.51 159.784C214.922 160.048 214.244 160.18 213.476 160.18ZM215.942 154.636V154.582C215.942 153.754 215.714 153.082 215.258 152.566C214.814 152.038 214.214 151.774 213.458 151.774C212.702 151.774 212.102 152.038 211.658 152.566C211.226 153.082 211.01 153.754 211.01 154.582V154.636H215.942ZM223.045 160.18C222.205 160.18 221.497 160.048 220.921 159.784C220.357 159.508 219.931 159.196 219.643 158.848C219.367 158.5 219.229 158.212 219.229 157.984C219.229 157.864 219.271 157.774 219.355 157.714C219.451 157.642 219.547 157.606 219.643 157.606H220.453C220.573 157.606 220.681 157.666 220.777 157.786C221.065 158.122 221.377 158.386 221.713 158.578C222.049 158.77 222.499 158.866 223.063 158.866C223.687 158.866 224.191 158.746 224.575 158.506C224.971 158.254 225.169 157.912 225.169 157.48C225.169 157.192 225.085 156.958 224.917 156.778C224.761 156.586 224.485 156.424 224.089 156.292C223.705 156.148 223.129 155.992 222.361 155.824C221.317 155.596 220.573 155.266 220.129 154.834C219.697 154.402 219.481 153.844 219.481 153.16C219.481 152.704 219.613 152.272 219.877 151.864C220.153 151.444 220.549 151.108 221.065 150.856C221.593 150.592 222.223 150.46 222.955 150.46C223.723 150.46 224.377 150.586 224.917 150.838C225.457 151.09 225.859 151.39 226.123 151.738C226.399 152.074 226.537 152.356 226.537 152.584C226.537 152.692 226.495 152.782 226.411 152.854C226.339 152.926 226.249 152.962 226.141 152.962H225.385C225.241 152.962 225.121 152.902 225.025 152.782C224.833 152.554 224.665 152.38 224.521 152.26C224.389 152.128 224.191 152.014 223.927 151.918C223.675 151.822 223.351 151.774 222.955 151.774C222.379 151.774 221.935 151.9 221.623 152.152C221.311 152.392 221.155 152.71 221.155 153.106C221.155 153.358 221.221 153.574 221.353 153.754C221.485 153.922 221.737 154.078 222.109 154.222C222.493 154.366 223.045 154.516 223.765 154.672C224.905 154.912 225.709 155.26 226.177 155.716C226.657 156.16 226.897 156.73 226.897 157.426C226.897 157.942 226.747 158.41 226.447 158.83C226.147 159.25 225.703 159.58 225.115 159.82C224.539 160.06 223.849 160.18 223.045 160.18ZM232.22 160.18C231.38 160.18 230.672 160.048 230.096 159.784C229.532 159.508 229.106 159.196 228.818 158.848C228.542 158.5 228.404 158.212 228.404 157.984C228.404 157.864 228.446 157.774 228.53 157.714C228.626 157.642 228.722 157.606 228.818 157.606H229.628C229.748 157.606 229.856 157.666 229.952 157.786C230.24 158.122 230.552 158.386 230.888 158.578C231.224 158.77 231.674 158.866 232.238 158.866C232.862 158.866 233.366 158.746 233.75 158.506C234.146 158.254 234.344 157.912 234.344 157.48C234.344 157.192 234.26 156.958 234.092 156.778C233.936 156.586 233.66 156.424 233.264 156.292C232.88 156.148 232.304 155.992 231.536 155.824C230.492 155.596 229.748 155.266 229.304 154.834C228.872 154.402 228.656 153.844 228.656 153.16C228.656 152.704 228.788 152.272 229.052 151.864C229.328 151.444 229.724 151.108 230.24 150.856C230.768 150.592 231.398 150.46 232.13 150.46C232.898 150.46 233.552 150.586 234.092 150.838C234.632 151.09 235.034 151.39 235.298 151.738C235.574 152.074 235.712 152.356 235.712 152.584C235.712 152.692 235.67 152.782 235.586 152.854C235.514 152.926 235.424 152.962 235.316 152.962H234.56C234.416 152.962 234.296 152.902 234.2 152.782C234.008 152.554 233.84 152.38 233.696 152.26C233.564 152.128 233.366 152.014 233.102 151.918C232.85 151.822 232.526 151.774 232.13 151.774C231.554 151.774 231.11 151.9 230.798 152.152C230.486 152.392 230.33 152.71 230.33 153.106C230.33 153.358 230.396 153.574 230.528 153.754C230.66 153.922 230.912 154.078 231.284 154.222C231.668 154.366 232.22 154.516 232.94 154.672C234.08 154.912 234.884 155.26 235.352 155.716C235.832 156.16 236.072 156.73 236.072 157.426C236.072 157.942 235.922 158.41 235.622 158.83C235.322 159.25 234.878 159.58 234.29 159.82C233.714 160.06 233.024 160.18 232.22 160.18Z" fill="#180202"/>
<rect x="337" y="123" width="167" height="61" rx="30.5" fill="#FF4948"/>
<path d="M374.062 161.22C372.757 161.22 371.635 161.022 370.696 160.626C369.757 160.23 369.046 159.709 368.562 159.064C368.078 158.419 367.821 157.722 367.792 156.974C367.792 156.842 367.836 156.732 367.924 156.644C368.012 156.556 368.122 156.512 368.254 156.512H370.212C370.388 156.512 370.52 156.549 370.608 156.622C370.711 156.681 370.806 156.783 370.894 156.93C371.041 157.429 371.378 157.847 371.906 158.184C372.434 158.521 373.153 158.69 374.062 158.69C375.103 158.69 375.888 158.521 376.416 158.184C376.944 157.832 377.208 157.348 377.208 156.732C377.208 156.321 377.069 155.984 376.79 155.72C376.526 155.456 376.123 155.229 375.58 155.038C375.052 154.847 374.26 154.613 373.204 154.334C371.473 153.923 370.205 153.381 369.398 152.706C368.606 152.017 368.21 151.041 368.21 149.78C368.21 148.929 368.437 148.174 368.892 147.514C369.361 146.854 370.029 146.333 370.894 145.952C371.774 145.571 372.793 145.38 373.952 145.38C375.155 145.38 376.196 145.593 377.076 146.018C377.956 146.443 378.623 146.979 379.078 147.624C379.547 148.255 379.797 148.885 379.826 149.516C379.826 149.648 379.782 149.758 379.694 149.846C379.606 149.934 379.496 149.978 379.364 149.978H377.318C377.01 149.978 376.797 149.839 376.68 149.56C376.592 149.091 376.299 148.702 375.8 148.394C375.301 148.071 374.685 147.91 373.952 147.91C373.131 147.91 372.485 148.064 372.016 148.372C371.547 148.68 371.312 149.127 371.312 149.714C371.312 150.125 371.429 150.462 371.664 150.726C371.899 150.99 372.265 151.225 372.764 151.43C373.277 151.635 374.011 151.863 374.964 152.112C376.255 152.405 377.281 152.735 378.044 153.102C378.821 153.469 379.393 153.931 379.76 154.488C380.127 155.045 380.31 155.757 380.31 156.622C380.31 157.561 380.046 158.382 379.518 159.086C379.005 159.775 378.271 160.303 377.318 160.67C376.379 161.037 375.294 161.22 374.062 161.22ZM386.813 161.22C385.464 161.22 384.401 160.78 383.623 159.9C382.846 159.005 382.457 157.795 382.457 156.27V150.088C382.457 149.941 382.509 149.817 382.611 149.714C382.714 149.611 382.839 149.56 382.985 149.56H384.921C385.083 149.56 385.207 149.611 385.295 149.714C385.398 149.802 385.449 149.927 385.449 150.088V156.138C385.449 157.957 386.249 158.866 387.847 158.866C388.61 158.866 389.211 158.624 389.651 158.14C390.106 157.656 390.333 156.989 390.333 156.138V150.088C390.333 149.941 390.385 149.817 390.487 149.714C390.59 149.611 390.715 149.56 390.861 149.56H392.797C392.959 149.56 393.083 149.611 393.171 149.714C393.274 149.802 393.325 149.927 393.325 150.088V160.472C393.325 160.619 393.274 160.743 393.171 160.846C393.083 160.949 392.959 161 392.797 161H391.015C390.869 161 390.744 160.949 390.641 160.846C390.539 160.743 390.487 160.619 390.487 160.472V159.57C389.666 160.67 388.441 161.22 386.813 161.22ZM402.567 161.22C401.057 161.22 399.883 160.699 399.047 159.658V160.472C399.047 160.619 398.996 160.743 398.893 160.846C398.805 160.949 398.681 161 398.519 161H396.781C396.635 161 396.51 160.949 396.407 160.846C396.305 160.743 396.253 160.619 396.253 160.472V145.908C396.253 145.747 396.305 145.622 396.407 145.534C396.51 145.431 396.635 145.38 396.781 145.38H398.651C398.813 145.38 398.937 145.431 399.025 145.534C399.128 145.622 399.179 145.747 399.179 145.908V150.792C400.015 149.824 401.145 149.34 402.567 149.34C404.049 149.34 405.185 149.824 405.977 150.792C406.769 151.76 407.195 153.014 407.253 154.554C407.268 154.73 407.275 154.965 407.275 155.258C407.275 155.566 407.268 155.808 407.253 155.984C407.195 157.568 406.769 158.837 405.977 159.79C405.185 160.743 404.049 161.22 402.567 161.22ZM401.753 158.866C403.337 158.866 404.181 157.891 404.283 155.94C404.298 155.793 404.305 155.573 404.305 155.28C404.305 154.987 404.298 154.767 404.283 154.62C404.181 152.669 403.337 151.694 401.753 151.694C400.932 151.694 400.301 151.958 399.861 152.486C399.436 152.999 399.209 153.623 399.179 154.356L399.157 155.192L399.179 156.05C399.223 156.842 399.451 157.509 399.861 158.052C400.272 158.595 400.903 158.866 401.753 158.866ZM414.057 161.22C412.957 161.22 412.033 161.059 411.285 160.736C410.537 160.399 409.98 160.01 409.613 159.57C409.261 159.115 409.085 158.727 409.085 158.404C409.085 158.257 409.137 158.14 409.239 158.052C409.342 157.964 409.459 157.92 409.591 157.92H411.329C411.461 157.92 411.571 157.971 411.659 158.074C411.718 158.118 411.872 158.25 412.121 158.47C412.371 158.705 412.664 158.888 413.001 159.02C413.339 159.152 413.713 159.218 414.123 159.218C414.71 159.218 415.194 159.101 415.575 158.866C415.957 158.631 416.147 158.309 416.147 157.898C416.147 157.59 416.059 157.341 415.883 157.15C415.722 156.959 415.421 156.791 414.981 156.644C414.541 156.483 413.889 156.314 413.023 156.138C411.777 155.874 410.853 155.471 410.251 154.928C409.665 154.385 409.371 153.667 409.371 152.772C409.371 152.185 409.547 151.635 409.899 151.122C410.251 150.594 410.772 150.169 411.461 149.846C412.165 149.509 413.001 149.34 413.969 149.34C414.952 149.34 415.803 149.501 416.521 149.824C417.24 150.132 417.783 150.506 418.149 150.946C418.531 151.371 418.721 151.753 418.721 152.09C418.721 152.222 418.67 152.339 418.567 152.442C418.479 152.53 418.369 152.574 418.237 152.574H416.609C416.492 152.574 416.367 152.523 416.235 152.42C416.133 152.347 415.971 152.207 415.751 152.002C415.531 151.797 415.275 151.635 414.981 151.518C414.688 151.401 414.343 151.342 413.947 151.342C413.405 151.342 412.979 151.459 412.671 151.694C412.378 151.929 412.231 152.237 412.231 152.618C412.231 152.897 412.305 153.124 412.451 153.3C412.598 153.476 412.884 153.645 413.309 153.806C413.735 153.967 414.373 154.129 415.223 154.29C416.631 154.569 417.636 155.001 418.237 155.588C418.853 156.175 419.161 156.893 419.161 157.744C419.161 158.771 418.714 159.607 417.819 160.252C416.925 160.897 415.671 161.22 414.057 161.22ZM426.382 161.22C424.769 161.22 423.478 160.773 422.51 159.878C421.557 158.983 421.051 157.744 420.992 156.16L420.97 155.28L420.992 154.4C421.051 152.816 421.557 151.577 422.51 150.682C423.478 149.787 424.769 149.34 426.382 149.34C427.526 149.34 428.494 149.545 429.286 149.956C430.093 150.367 430.687 150.873 431.068 151.474C431.464 152.061 431.677 152.618 431.706 153.146C431.721 153.293 431.67 153.417 431.552 153.52C431.45 153.623 431.325 153.674 431.178 153.674H429.242C429.096 153.674 428.978 153.645 428.89 153.586C428.817 153.513 428.744 153.395 428.67 153.234C428.45 152.662 428.157 152.251 427.79 152.002C427.438 151.753 426.984 151.628 426.426 151.628C425.678 151.628 425.092 151.87 424.666 152.354C424.241 152.823 424.014 153.542 423.984 154.51L423.962 155.324L423.984 156.05C424.043 157.971 424.857 158.932 426.426 158.932C426.998 158.932 427.46 158.807 427.812 158.558C428.164 158.309 428.45 157.898 428.67 157.326C428.744 157.165 428.817 157.055 428.89 156.996C428.978 156.923 429.096 156.886 429.242 156.886H431.178C431.325 156.886 431.45 156.937 431.552 157.04C431.67 157.143 431.721 157.267 431.706 157.414C431.677 157.927 431.472 158.477 431.09 159.064C430.709 159.651 430.122 160.157 429.33 160.582C428.538 161.007 427.556 161.22 426.382 161.22ZM434.529 161C434.382 161 434.257 160.949 434.155 160.846C434.052 160.743 434.001 160.619 434.001 160.472V150.11C434.001 149.963 434.052 149.839 434.155 149.736C434.257 149.619 434.382 149.56 434.529 149.56H436.311C436.472 149.56 436.604 149.611 436.707 149.714C436.809 149.817 436.861 149.949 436.861 150.11V151.012C437.213 150.543 437.653 150.183 438.181 149.934C438.723 149.685 439.339 149.56 440.029 149.56H440.931C441.092 149.56 441.217 149.611 441.305 149.714C441.407 149.802 441.459 149.927 441.459 150.088V151.672C441.459 151.819 441.407 151.943 441.305 152.046C441.217 152.149 441.092 152.2 440.931 152.2H439.215C438.525 152.2 437.983 152.398 437.587 152.794C437.191 153.19 436.993 153.733 436.993 154.422V160.472C436.993 160.619 436.941 160.743 436.839 160.846C436.736 160.949 436.604 161 436.443 161H434.529ZM443.615 147.668C443.468 147.668 443.343 147.617 443.241 147.514C443.138 147.411 443.087 147.287 443.087 147.14V145.556C443.087 145.409 443.138 145.285 443.241 145.182C443.343 145.079 443.468 145.028 443.615 145.028H445.617C445.763 145.028 445.888 145.079 445.991 145.182C446.108 145.285 446.167 145.409 446.167 145.556V147.14C446.167 147.287 446.115 147.411 446.013 147.514C445.91 147.617 445.778 147.668 445.617 147.668H443.615ZM443.703 161C443.556 161 443.431 160.949 443.329 160.846C443.226 160.743 443.175 160.619 443.175 160.472V150.088C443.175 149.941 443.226 149.817 443.329 149.714C443.431 149.611 443.556 149.56 443.703 149.56H445.529C445.69 149.56 445.815 149.611 445.903 149.714C446.005 149.802 446.057 149.927 446.057 150.088V160.472C446.057 160.619 446.005 160.743 445.903 160.846C445.815 160.949 445.69 161 445.529 161H443.703ZM455.311 161.22C453.801 161.22 452.627 160.699 451.791 159.658V160.472C451.791 160.619 451.74 160.743 451.637 160.846C451.549 160.949 451.425 161 451.263 161H449.525C449.379 161 449.254 160.949 449.151 160.846C449.049 160.743 448.997 160.619 448.997 160.472V145.908C448.997 145.747 449.049 145.622 449.151 145.534C449.254 145.431 449.379 145.38 449.525 145.38H451.395C451.557 145.38 451.681 145.431 451.769 145.534C451.872 145.622 451.923 145.747 451.923 145.908V150.792C452.759 149.824 453.889 149.34 455.311 149.34C456.793 149.34 457.929 149.824 458.721 150.792C459.513 151.76 459.939 153.014 459.997 154.554C460.012 154.73 460.019 154.965 460.019 155.258C460.019 155.566 460.012 155.808 459.997 155.984C459.939 157.568 459.513 158.837 458.721 159.79C457.929 160.743 456.793 161.22 455.311 161.22ZM454.497 158.866C456.081 158.866 456.925 157.891 457.027 155.94C457.042 155.793 457.049 155.573 457.049 155.28C457.049 154.987 457.042 154.767 457.027 154.62C456.925 152.669 456.081 151.694 454.497 151.694C453.676 151.694 453.045 151.958 452.605 152.486C452.18 152.999 451.953 153.623 451.923 154.356L451.901 155.192L451.923 156.05C451.967 156.842 452.195 157.509 452.605 158.052C453.016 158.595 453.647 158.866 454.497 158.866ZM467.396 161.22C465.768 161.22 464.47 160.751 463.502 159.812C462.548 158.859 462.042 157.524 461.984 155.808L461.962 155.258L461.984 154.708C462.057 153.036 462.57 151.723 463.524 150.77C464.492 149.817 465.782 149.34 467.396 149.34C469.126 149.34 470.461 149.868 471.4 150.924C472.353 151.98 472.83 153.388 472.83 155.148V155.61C472.83 155.757 472.778 155.881 472.676 155.984C472.573 156.087 472.441 156.138 472.28 156.138H464.976V156.314C465.005 157.121 465.225 157.803 465.636 158.36C466.061 158.903 466.64 159.174 467.374 159.174C468.239 159.174 468.936 158.837 469.464 158.162C469.596 158.001 469.698 157.898 469.772 157.854C469.86 157.81 469.984 157.788 470.146 157.788H472.038C472.17 157.788 472.28 157.832 472.368 157.92C472.47 157.993 472.522 158.089 472.522 158.206C472.522 158.558 472.309 158.976 471.884 159.46C471.473 159.929 470.879 160.34 470.102 160.692C469.324 161.044 468.422 161.22 467.396 161.22ZM469.838 154.29V154.224C469.838 153.359 469.618 152.662 469.178 152.134C468.752 151.606 468.158 151.342 467.396 151.342C466.633 151.342 466.039 151.606 465.614 152.134C465.188 152.662 464.976 153.359 464.976 154.224V154.29H469.838Z" fill="white"/>
</svg>
