<svg width="151" height="31" viewBox="0 0 151 31" fill="none" xmlns="http://www.w3.org/2000/svg">
<g opacity="0.7">
<path d="M11 25.5C16.5228 25.5 21 21.0228 21 15.5C21 9.97715 16.5228 5.5 11 5.5C5.47715 5.5 1 9.97715 1 15.5C1 21.0228 5.47715 25.5 11 25.5Z" stroke="black" stroke-width="2" stroke-linecap="round" stroke-linejoin="round"/>
<path d="M11 19.5L15 15.5L11 11.5" stroke="black" stroke-width="2" stroke-linecap="round" stroke-linejoin="round"/>
<path d="M7 15.5H15" stroke="black" stroke-width="2" stroke-linecap="round" stroke-linejoin="round"/>
</g>
<path opacity="0.7" d="M42.424 23.22C41.3093 23.22 40.3487 23.022 39.542 22.626C38.7353 22.23 38.112 21.7093 37.672 21.064C37.2467 20.4187 37.0193 19.7293 36.99 18.996V18.952C36.99 18.8347 37.034 18.7393 37.122 18.666C37.21 18.5927 37.3127 18.556 37.43 18.556H38.618C38.926 18.556 39.124 18.7173 39.212 19.04C39.4173 19.8173 39.8133 20.3967 40.4 20.778C40.9867 21.1593 41.6613 21.35 42.424 21.35C43.4067 21.35 44.2207 21.0567 44.866 20.47C45.526 19.8687 45.856 19.04 45.856 17.984C45.856 17.0307 45.526 16.2607 44.866 15.674C44.2207 15.0873 43.4067 14.794 42.424 14.794C41.896 14.794 41.4707 14.8673 41.148 15.014C40.8253 15.146 40.5027 15.3367 40.18 15.586C40.004 15.718 39.85 15.8207 39.718 15.894C39.6007 15.9527 39.4687 15.982 39.322 15.982H38.178C38.046 15.982 37.9287 15.938 37.826 15.85C37.7233 15.7473 37.6793 15.63 37.694 15.498L38.398 8.15C38.4127 7.974 38.464 7.842 38.552 7.754C38.6547 7.65133 38.7867 7.6 38.948 7.6H46.626C46.7727 7.6 46.89 7.65133 46.978 7.754C47.0807 7.842 47.132 7.95933 47.132 8.106V8.964C47.132 9.11067 47.0807 9.23533 46.978 9.338C46.89 9.426 46.7727 9.47 46.626 9.47H40.29L39.872 13.804C40.664 13.3053 41.6173 13.056 42.732 13.056C43.7 13.056 44.5873 13.254 45.394 13.65C46.2153 14.046 46.8607 14.618 47.33 15.366C47.814 16.114 48.056 16.994 48.056 18.006C48.056 19.0913 47.814 20.03 47.33 20.822C46.8607 21.5993 46.2007 22.1933 45.35 22.604C44.4993 23.0147 43.524 23.22 42.424 23.22ZM49.9425 23C49.8252 23 49.7225 22.956 49.6345 22.868C49.5465 22.78 49.5025 22.6773 49.5025 22.56C49.5025 22.4427 49.5098 22.362 49.5245 22.318L54.9805 8.084C55.0978 7.76133 55.3325 7.6 55.6845 7.6H57.1805C57.5325 7.6 57.7672 7.76133 57.8845 8.084L63.3185 22.318L63.3625 22.56C63.3625 22.6773 63.3185 22.78 63.2305 22.868C63.1425 22.956 63.0398 23 62.9225 23H61.8005C61.6392 23 61.5145 22.9633 61.4265 22.89C61.3385 22.802 61.2798 22.714 61.2505 22.626L60.0405 19.502H52.8245L51.6145 22.626C51.5852 22.714 51.5192 22.802 51.4165 22.89C51.3285 22.9633 51.2112 23 51.0645 23H49.9425ZM59.4025 17.61L56.4325 9.8L53.4625 17.61H59.4025ZM76.0713 23.22C74.1059 23.22 72.6099 22.692 71.5833 21.636C70.5713 20.58 70.0286 19.1207 69.9553 17.258C69.9406 16.862 69.9333 16.2167 69.9333 15.322C69.9333 14.4127 69.9406 13.7527 69.9553 13.342C70.0286 11.494 70.5786 10.042 71.6053 8.986C72.6319 7.91533 74.1206 7.38 76.0713 7.38C77.3766 7.38 78.4839 7.61467 79.3933 8.084C80.3026 8.53867 80.9919 9.14 81.4613 9.888C81.9306 10.636 82.1873 11.4353 82.2313 12.286V12.33C82.2313 12.4473 82.1799 12.55 82.0773 12.638C81.9893 12.7113 81.8866 12.748 81.7693 12.748H80.5593C80.2659 12.748 80.0826 12.5793 80.0093 12.242C79.7599 11.142 79.3126 10.372 78.6673 9.932C78.0219 9.47733 77.1566 9.25 76.0713 9.25C73.5486 9.25 72.2433 10.6507 72.1553 13.452C72.1406 13.848 72.1333 14.4567 72.1333 15.278C72.1333 16.0993 72.1406 16.7227 72.1553 17.148C72.2433 19.9493 73.5486 21.35 76.0713 21.35C77.1566 21.35 78.0219 21.13 78.6673 20.69C79.3273 20.2353 79.7746 19.458 80.0093 18.358C80.0533 18.1673 80.1193 18.0353 80.2073 17.962C80.2953 17.8887 80.4126 17.852 80.5593 17.852H81.7693C81.9013 17.852 82.0113 17.896 82.0993 17.984C82.2019 18.0573 82.2459 18.16 82.2313 18.292C82.1873 19.1573 81.9306 19.964 81.4613 20.712C80.9919 21.46 80.3026 22.0687 79.3933 22.538C78.4839 22.9927 77.3766 23.22 76.0713 23.22ZM85.4216 23C85.275 23 85.1503 22.956 85.0476 22.868C84.9596 22.7653 84.9156 22.6407 84.9156 22.494V7.886C84.9156 7.73933 84.9596 7.622 85.0476 7.534C85.1503 7.43133 85.275 7.38 85.4216 7.38H86.5216C86.6683 7.38 86.7856 7.43133 86.8736 7.534C86.9763 7.622 87.0276 7.73933 87.0276 7.886V13.012C87.453 12.4693 87.9516 12.0587 88.5236 11.78C89.0956 11.4867 89.807 11.34 90.6576 11.34C92.0656 11.34 93.1583 11.7947 93.9356 12.704C94.7276 13.5987 95.1236 14.794 95.1236 16.29V22.494C95.1236 22.6407 95.0723 22.7653 94.9696 22.868C94.8816 22.956 94.7643 23 94.6176 23H93.5176C93.371 23 93.2463 22.956 93.1436 22.868C93.0556 22.7653 93.0116 22.6407 93.0116 22.494V16.4C93.0116 15.3587 92.755 14.552 92.2416 13.98C91.743 13.408 91.017 13.122 90.0636 13.122C89.1396 13.122 88.399 13.4153 87.8416 14.002C87.299 14.574 87.0276 15.3733 87.0276 16.4V22.494C87.0276 22.6407 86.9763 22.7653 86.8736 22.868C86.7856 22.956 86.6683 23 86.5216 23H85.4216ZM101.49 23.22C100.771 23.22 100.104 23.0733 99.4879 22.78C98.8719 22.4867 98.3805 22.0907 98.0139 21.592C97.6619 21.0787 97.4859 20.514 97.4859 19.898C97.4859 18.93 97.8819 18.138 98.6739 17.522C99.4805 16.8913 100.566 16.4807 101.93 16.29L105.208 15.828V15.19C105.208 13.694 104.35 12.946 102.634 12.946C101.989 12.946 101.461 13.0853 101.05 13.364C100.639 13.628 100.331 13.9433 100.126 14.31C100.082 14.442 100.023 14.5373 99.9499 14.596C99.8912 14.6547 99.8032 14.684 99.6859 14.684H98.7399C98.6079 14.684 98.4905 14.64 98.3879 14.552C98.2999 14.4493 98.2559 14.332 98.2559 14.2C98.2705 13.848 98.4319 13.452 98.7399 13.012C99.0625 12.5573 99.5539 12.1687 100.214 11.846C100.874 11.5087 101.688 11.34 102.656 11.34C104.299 11.34 105.479 11.7287 106.198 12.506C106.917 13.2687 107.276 14.222 107.276 15.366V22.494C107.276 22.6407 107.225 22.7653 107.122 22.868C107.034 22.956 106.917 23 106.77 23H105.758C105.611 23 105.487 22.956 105.384 22.868C105.296 22.7653 105.252 22.6407 105.252 22.494V21.548C104.929 22.0173 104.46 22.4133 103.844 22.736C103.228 23.0587 102.443 23.22 101.49 23.22ZM101.952 21.57C102.905 21.57 103.683 21.262 104.284 20.646C104.9 20.0153 105.208 19.1133 105.208 17.94V17.324L102.656 17.698C101.615 17.8447 100.83 18.094 100.302 18.446C99.7739 18.7833 99.5099 19.216 99.5099 19.744C99.5099 20.3307 99.7519 20.7853 100.236 21.108C100.72 21.416 101.292 21.57 101.952 21.57ZM110.945 23C110.798 23 110.673 22.956 110.571 22.868C110.483 22.7653 110.439 22.6407 110.439 22.494V12.088C110.439 11.9413 110.483 11.8167 110.571 11.714C110.673 11.6113 110.798 11.56 110.945 11.56H111.957C112.103 11.56 112.228 11.6113 112.331 11.714C112.433 11.8167 112.485 11.9413 112.485 12.088V13.056C113.086 12.0587 114.113 11.56 115.565 11.56H116.423C116.569 11.56 116.687 11.6113 116.775 11.714C116.877 11.802 116.929 11.9193 116.929 12.066V12.968C116.929 13.1147 116.877 13.232 116.775 13.32C116.687 13.408 116.569 13.452 116.423 13.452H115.103C114.311 13.452 113.687 13.6867 113.233 14.156C112.778 14.6107 112.551 15.234 112.551 16.026V22.494C112.551 22.6407 112.499 22.7653 112.397 22.868C112.294 22.956 112.169 23 112.023 23H110.945ZM123.246 27.84C122.043 27.84 121.075 27.6347 120.342 27.224C119.608 26.828 119.088 26.3733 118.78 25.86C118.472 25.3467 118.303 24.8847 118.274 24.474C118.259 24.3273 118.303 24.2027 118.406 24.1C118.523 23.9973 118.648 23.946 118.78 23.946H119.836C119.968 23.946 120.078 23.9753 120.166 24.034C120.254 24.1073 120.327 24.232 120.386 24.408C120.562 24.8773 120.848 25.2807 121.244 25.618C121.654 25.97 122.285 26.146 123.136 26.146C124.221 26.146 125.02 25.9113 125.534 25.442C126.047 24.9873 126.304 24.1733 126.304 23V21.504C125.922 21.988 125.438 22.3767 124.852 22.67C124.265 22.9487 123.568 23.088 122.762 23.088C121.207 23.088 120.041 22.5967 119.264 21.614C118.501 20.6167 118.098 19.3553 118.054 17.83L118.032 17.214L118.054 16.62C118.098 15.1093 118.508 13.8553 119.286 12.858C120.063 11.846 121.222 11.34 122.762 11.34C124.302 11.34 125.504 11.9047 126.37 13.034V12.088C126.37 11.9413 126.414 11.8167 126.502 11.714C126.604 11.6113 126.729 11.56 126.876 11.56H127.888C128.034 11.56 128.159 11.6113 128.262 11.714C128.364 11.8167 128.416 11.9413 128.416 12.088V22.758C128.416 26.146 126.692 27.84 123.246 27.84ZM123.202 21.328C124.199 21.328 124.954 20.998 125.468 20.338C125.981 19.678 126.26 18.8933 126.304 17.984C126.318 17.852 126.326 17.5953 126.326 17.214C126.326 16.8473 126.318 16.598 126.304 16.466C126.26 15.5567 125.981 14.772 125.468 14.112C124.969 13.452 124.214 13.122 123.202 13.122C122.16 13.122 121.405 13.4447 120.936 14.09C120.466 14.7353 120.21 15.586 120.166 16.642L120.144 17.214L120.166 17.808C120.21 18.8493 120.466 19.7 120.936 20.36C121.405 21.0053 122.16 21.328 123.202 21.328ZM136.263 23.22C134.752 23.22 133.542 22.758 132.633 21.834C131.738 20.8953 131.247 19.6193 131.159 18.006L131.137 17.258L131.159 16.532C131.261 14.948 131.76 13.6867 132.655 12.748C133.564 11.8093 134.759 11.34 136.241 11.34C137.869 11.34 139.13 11.8607 140.025 12.902C140.919 13.9287 141.367 15.322 141.367 17.082V17.456C141.367 17.6027 141.315 17.7273 141.213 17.83C141.125 17.918 141.007 17.962 140.861 17.962H133.249V18.16C133.293 19.1133 133.579 19.9273 134.107 20.602C134.649 21.262 135.361 21.592 136.241 21.592C136.915 21.592 137.465 21.46 137.891 21.196C138.331 20.9173 138.653 20.6313 138.859 20.338C138.991 20.162 139.086 20.0593 139.145 20.03C139.218 19.986 139.343 19.964 139.519 19.964H140.597C140.729 19.964 140.839 20.0007 140.927 20.074C141.015 20.1473 141.059 20.25 141.059 20.382C141.059 20.7047 140.853 21.0933 140.443 21.548C140.047 22.0027 139.482 22.3987 138.749 22.736C138.03 23.0587 137.201 23.22 136.263 23.22ZM139.277 16.444V16.378C139.277 15.366 138.998 14.5447 138.441 13.914C137.898 13.2687 137.165 12.946 136.241 12.946C135.317 12.946 134.583 13.2687 134.041 13.914C133.513 14.5447 133.249 15.366 133.249 16.378V16.444H139.277ZM144.503 23C144.356 23 144.232 22.956 144.129 22.868C144.041 22.7653 143.997 22.6407 143.997 22.494V12.088C143.997 11.9413 144.041 11.8167 144.129 11.714C144.232 11.6113 144.356 11.56 144.503 11.56H145.515C145.662 11.56 145.786 11.6113 145.889 11.714C145.992 11.8167 146.043 11.9413 146.043 12.088V13.056C146.644 12.0587 147.671 11.56 149.123 11.56H149.981C150.128 11.56 150.245 11.6113 150.333 11.714C150.436 11.802 150.487 11.9193 150.487 12.066V12.968C150.487 13.1147 150.436 13.232 150.333 13.32C150.245 13.408 150.128 13.452 149.981 13.452H148.661C147.869 13.452 147.246 13.6867 146.791 14.156C146.336 14.6107 146.109 15.234 146.109 16.026V22.494C146.109 22.6407 146.058 22.7653 145.955 22.868C145.852 22.956 145.728 23 145.581 23H144.503Z" fill="black"/>
</svg>
