<svg width="222" height="31" viewBox="0 0 222 31" fill="none" xmlns="http://www.w3.org/2000/svg">
<g opacity="0.7">
<path d="M11 25.5C16.5228 25.5 21 21.0228 21 15.5C21 9.97715 16.5228 5.5 11 5.5C5.47715 5.5 1 9.97715 1 15.5C1 21.0228 5.47715 25.5 11 25.5Z" stroke="black" stroke-width="2" stroke-linecap="round" stroke-linejoin="round"/>
<path d="M11 19.5L15 15.5L11 11.5" stroke="black" stroke-width="2" stroke-linecap="round" stroke-linejoin="round"/>
<path d="M7 15.5H15" stroke="black" stroke-width="2" stroke-linecap="round" stroke-linejoin="round"/>
</g>
<path opacity="0.7" d="M42.864 23.22C41.6467 23.22 40.5907 23.0293 39.696 22.648C38.816 22.2667 38.1413 21.768 37.672 21.152C37.2027 20.5213 36.9533 19.8467 36.924 19.128C36.924 19.0107 36.968 18.908 37.056 18.82C37.1587 18.7173 37.276 18.666 37.408 18.666H38.53C38.8087 18.666 38.9993 18.8127 39.102 19.106C39.234 19.722 39.608 20.25 40.224 20.69C40.8547 21.13 41.7347 21.35 42.864 21.35C44.0813 21.35 44.998 21.1373 45.614 20.712C46.23 20.272 46.538 19.6633 46.538 18.886C46.538 18.3873 46.384 17.984 46.076 17.676C45.7827 17.368 45.3427 17.0967 44.756 16.862C44.1693 16.6273 43.2893 16.334 42.116 15.982C40.972 15.6593 40.0627 15.3147 39.388 14.948C38.7133 14.5813 38.2073 14.1267 37.87 13.584C37.5327 13.0413 37.364 12.3593 37.364 11.538C37.364 10.746 37.5767 10.0347 38.002 9.404C38.442 8.77333 39.0653 8.282 39.872 7.93C40.6787 7.56333 41.6393 7.38 42.754 7.38C43.898 7.38 44.8807 7.58533 45.702 7.996C46.5233 8.392 47.1467 8.898 47.572 9.514C47.9973 10.13 48.2247 10.746 48.254 11.362C48.254 11.4793 48.21 11.582 48.122 11.67C48.0487 11.758 47.9387 11.802 47.792 11.802H46.626C46.318 11.802 46.1273 11.6627 46.054 11.384C45.966 10.768 45.6213 10.262 45.02 9.866C44.4187 9.45533 43.6633 9.25 42.754 9.25C41.7567 9.25 40.972 9.44067 40.4 9.822C39.828 10.2033 39.542 10.768 39.542 11.516C39.542 12.0147 39.674 12.4253 39.938 12.748C40.2167 13.0707 40.6347 13.3567 41.192 13.606C41.7493 13.8407 42.5633 14.112 43.634 14.42C44.8807 14.7573 45.8633 15.1093 46.582 15.476C47.3007 15.828 47.836 16.2753 48.188 16.818C48.54 17.346 48.716 18.0207 48.716 18.842C48.716 20.206 48.188 21.2767 47.132 22.054C46.076 22.8313 44.6533 23.22 42.864 23.22ZM55.9995 23.22C54.3862 23.22 53.1322 22.7653 52.2375 21.856C51.3575 20.9467 50.8882 19.7367 50.8295 18.226L50.8075 17.28L50.8295 16.334C50.8882 14.838 51.3649 13.6353 52.2595 12.726C53.1542 11.802 54.4009 11.34 55.9995 11.34C57.5982 11.34 58.8449 11.802 59.7395 12.726C60.6342 13.6353 61.1109 14.838 61.1695 16.334C61.1842 16.4953 61.1915 16.8107 61.1915 17.28C61.1915 17.7493 61.1842 18.0647 61.1695 18.226C61.1109 19.7367 60.6342 20.9467 59.7395 21.856C58.8595 22.7653 57.6129 23.22 55.9995 23.22ZM55.9995 21.526C56.9235 21.526 57.6495 21.2327 58.1775 20.646C58.7202 20.0593 59.0135 19.216 59.0575 18.116C59.0722 17.9693 59.0795 17.6907 59.0795 17.28C59.0795 16.8693 59.0722 16.5907 59.0575 16.444C59.0135 15.344 58.7202 14.5007 58.1775 13.914C57.6495 13.3273 56.9235 13.034 55.9995 13.034C55.0755 13.034 54.3422 13.3273 53.7995 13.914C53.2569 14.5007 52.9709 15.344 52.9415 16.444L52.9195 17.28L52.9415 18.116C52.9709 19.216 53.2569 20.0593 53.7995 20.646C54.3422 21.2327 55.0755 21.526 55.9995 21.526ZM64.4744 27.18C64.3277 27.18 64.203 27.1287 64.1004 27.026C64.0124 26.938 63.9684 26.8207 63.9684 26.674V12.066C63.9684 11.9193 64.0124 11.802 64.1004 11.714C64.203 11.6113 64.3277 11.56 64.4744 11.56H65.4864C65.633 11.56 65.7504 11.6113 65.8384 11.714C65.941 11.802 65.9924 11.9193 65.9924 12.066V13.034C66.8137 11.9047 68.0164 11.34 69.6004 11.34C71.1404 11.34 72.2917 11.824 73.0544 12.792C73.8317 13.76 74.2497 15.0067 74.3084 16.532C74.323 16.6933 74.3304 16.9427 74.3304 17.28C74.3304 17.6173 74.323 17.8667 74.3084 18.028C74.2497 19.5387 73.8317 20.7853 73.0544 21.768C72.277 22.736 71.1257 23.22 69.6004 23.22C68.075 23.22 66.887 22.67 66.0364 21.57V26.674C66.0364 26.8207 65.9924 26.938 65.9044 27.026C65.8164 27.1287 65.699 27.18 65.5524 27.18H64.4744ZM69.1384 21.438C70.1797 21.438 70.935 21.1153 71.4044 20.47C71.8884 19.8247 72.1524 18.974 72.1964 17.918C72.211 17.7713 72.2184 17.5587 72.2184 17.28C72.2184 14.508 71.1917 13.122 69.1384 13.122C68.1264 13.122 67.3637 13.4593 66.8504 14.134C66.3517 14.794 66.0804 15.586 66.0364 16.51L66.0144 17.346L66.0364 18.204C66.0657 19.0693 66.3444 19.8247 66.8724 20.47C67.4004 21.1153 68.1557 21.438 69.1384 21.438ZM77.5798 23C77.4332 23 77.3085 22.956 77.2058 22.868C77.1178 22.7653 77.0738 22.6407 77.0738 22.494V7.886C77.0738 7.73933 77.1178 7.622 77.2058 7.534C77.3085 7.43133 77.4332 7.38 77.5798 7.38H78.6798C78.8265 7.38 78.9438 7.43133 79.0318 7.534C79.1345 7.622 79.1858 7.73933 79.1858 7.886V13.012C79.6112 12.4693 80.1098 12.0587 80.6818 11.78C81.2538 11.4867 81.9652 11.34 82.8158 11.34C84.2238 11.34 85.3165 11.7947 86.0938 12.704C86.8858 13.5987 87.2818 14.794 87.2818 16.29V22.494C87.2818 22.6407 87.2305 22.7653 87.1278 22.868C87.0398 22.956 86.9225 23 86.7758 23H85.6758C85.5292 23 85.4045 22.956 85.3018 22.868C85.2138 22.7653 85.1698 22.6407 85.1698 22.494V16.4C85.1698 15.3587 84.9132 14.552 84.3998 13.98C83.9012 13.408 83.1752 13.122 82.2218 13.122C81.2978 13.122 80.5572 13.4153 79.9998 14.002C79.4572 14.574 79.1858 15.3733 79.1858 16.4V22.494C79.1858 22.6407 79.1345 22.7653 79.0318 22.868C78.9438 22.956 78.8265 23 78.6798 23H77.5798ZM90.7881 9.426C90.6414 9.426 90.5167 9.382 90.4141 9.294C90.3261 9.19133 90.2821 9.06667 90.2821 8.92V7.732C90.2821 7.58533 90.3261 7.46067 90.4141 7.358C90.5167 7.25533 90.6414 7.204 90.7881 7.204H92.1741C92.3207 7.204 92.4454 7.25533 92.5481 7.358C92.6507 7.46067 92.7021 7.58533 92.7021 7.732V8.92C92.7021 9.06667 92.6507 9.19133 92.5481 9.294C92.4454 9.382 92.3207 9.426 92.1741 9.426H90.7881ZM90.9641 23C90.8174 23 90.6927 22.956 90.5901 22.868C90.5021 22.7653 90.4581 22.6407 90.4581 22.494V12.066C90.4581 11.9193 90.5021 11.802 90.5901 11.714C90.6927 11.6113 90.8174 11.56 90.9641 11.56H92.0201C92.1667 11.56 92.2841 11.6113 92.3721 11.714C92.4747 11.802 92.5261 11.9193 92.5261 12.066V22.494C92.5261 22.6407 92.4747 22.7653 92.3721 22.868C92.2841 22.956 92.1667 23 92.0201 23H90.9641ZM99.7462 23.22C98.7195 23.22 97.8542 23.0587 97.1502 22.736C96.4609 22.3987 95.9402 22.0173 95.5882 21.592C95.2509 21.1667 95.0822 20.8147 95.0822 20.536C95.0822 20.3893 95.1335 20.2793 95.2362 20.206C95.3535 20.118 95.4709 20.074 95.5882 20.074H96.5782C96.7249 20.074 96.8569 20.1473 96.9742 20.294C97.3262 20.7047 97.7075 21.0273 98.1182 21.262C98.5289 21.4967 99.0789 21.614 99.7682 21.614C100.531 21.614 101.147 21.4673 101.616 21.174C102.1 20.866 102.342 20.448 102.342 19.92C102.342 19.568 102.24 19.282 102.034 19.062C101.844 18.8273 101.506 18.6293 101.022 18.468C100.553 18.292 99.8489 18.1013 98.9102 17.896C97.6342 17.6173 96.7249 17.214 96.1822 16.686C95.6542 16.158 95.3902 15.476 95.3902 14.64C95.3902 14.0827 95.5515 13.5547 95.8742 13.056C96.2115 12.5427 96.6955 12.132 97.3262 11.824C97.9715 11.5013 98.7415 11.34 99.6362 11.34C100.575 11.34 101.374 11.494 102.034 11.802C102.694 12.11 103.186 12.4767 103.508 12.902C103.846 13.3127 104.014 13.6573 104.014 13.936C104.014 14.068 103.963 14.178 103.86 14.266C103.772 14.354 103.662 14.398 103.53 14.398H102.606C102.43 14.398 102.284 14.3247 102.166 14.178C101.932 13.8993 101.726 13.6867 101.55 13.54C101.389 13.3787 101.147 13.2393 100.824 13.122C100.516 13.0047 100.12 12.946 99.6362 12.946C98.9322 12.946 98.3895 13.1 98.0082 13.408C97.6269 13.7013 97.4362 14.09 97.4362 14.574C97.4362 14.882 97.5169 15.146 97.6782 15.366C97.8395 15.5713 98.1475 15.762 98.6022 15.938C99.0715 16.114 99.7462 16.2973 100.626 16.488C102.02 16.7813 103.002 17.2067 103.574 17.764C104.161 18.3067 104.454 19.0033 104.454 19.854C104.454 20.4847 104.271 21.0567 103.904 21.57C103.538 22.0833 102.995 22.4867 102.276 22.78C101.572 23.0733 100.729 23.22 99.7462 23.22ZM111.446 23C109.128 23 107.97 21.7093 107.97 19.128V13.32H106.254C106.107 13.32 105.982 13.276 105.88 13.188C105.792 13.0853 105.748 12.9607 105.748 12.814V12.066C105.748 11.9193 105.792 11.802 105.88 11.714C105.982 11.6113 106.107 11.56 106.254 11.56H107.97V7.886C107.97 7.73933 108.014 7.622 108.102 7.534C108.204 7.43133 108.329 7.38 108.476 7.38H109.51C109.656 7.38 109.774 7.43133 109.862 7.534C109.964 7.622 110.016 7.73933 110.016 7.886V11.56H112.744C112.89 11.56 113.008 11.6113 113.096 11.714C113.198 11.802 113.25 11.9193 113.25 12.066V12.814C113.25 12.9607 113.198 13.0853 113.096 13.188C113.008 13.276 112.89 13.32 112.744 13.32H110.016V18.974C110.016 19.7073 110.14 20.2647 110.39 20.646C110.639 21.0127 111.05 21.196 111.622 21.196H112.964C113.11 21.196 113.228 21.2473 113.316 21.35C113.418 21.438 113.47 21.5553 113.47 21.702V22.494C113.47 22.6407 113.418 22.7653 113.316 22.868C113.228 22.956 113.11 23 112.964 23H111.446ZM115.903 9.426C115.757 9.426 115.632 9.382 115.529 9.294C115.441 9.19133 115.397 9.06667 115.397 8.92V7.732C115.397 7.58533 115.441 7.46067 115.529 7.358C115.632 7.25533 115.757 7.204 115.903 7.204H117.289C117.436 7.204 117.561 7.25533 117.663 7.358C117.766 7.46067 117.817 7.58533 117.817 7.732V8.92C117.817 9.06667 117.766 9.19133 117.663 9.294C117.561 9.382 117.436 9.426 117.289 9.426H115.903ZM116.079 23C115.933 23 115.808 22.956 115.705 22.868C115.617 22.7653 115.573 22.6407 115.573 22.494V12.066C115.573 11.9193 115.617 11.802 115.705 11.714C115.808 11.6113 115.933 11.56 116.079 11.56H117.135C117.282 11.56 117.399 11.6113 117.487 11.714C117.59 11.802 117.641 11.9193 117.641 12.066V22.494C117.641 22.6407 117.59 22.7653 117.487 22.868C117.399 22.956 117.282 23 117.135 23H116.079ZM125.521 23.22C123.952 23.22 122.72 22.78 121.825 21.9C120.945 21.0053 120.476 19.7587 120.417 18.16L120.395 17.28L120.417 16.4C120.476 14.8013 120.945 13.562 121.825 12.682C122.72 11.7873 123.952 11.34 125.521 11.34C126.577 11.34 127.472 11.5307 128.205 11.912C128.939 12.2933 129.481 12.7627 129.833 13.32C130.2 13.8773 130.398 14.4347 130.427 14.992C130.442 15.1387 130.398 15.256 130.295 15.344C130.193 15.432 130.068 15.476 129.921 15.476H128.865C128.719 15.476 128.609 15.4467 128.535 15.388C128.462 15.3293 128.389 15.212 128.315 15.036C128.066 14.332 127.714 13.8333 127.259 13.54C126.805 13.232 126.233 13.078 125.543 13.078C124.634 13.078 123.908 13.364 123.365 13.936C122.837 14.4933 122.551 15.3513 122.507 16.51L122.485 17.302L122.507 18.05C122.551 19.2233 122.837 20.0887 123.365 20.646C123.893 21.2033 124.619 21.482 125.543 21.482C126.233 21.482 126.805 21.3353 127.259 21.042C127.714 20.734 128.066 20.228 128.315 19.524C128.389 19.348 128.462 19.2307 128.535 19.172C128.609 19.0987 128.719 19.062 128.865 19.062H129.921C130.068 19.062 130.193 19.1133 130.295 19.216C130.398 19.304 130.442 19.4213 130.427 19.568C130.398 20.1107 130.2 20.668 129.833 21.24C129.481 21.7973 128.939 22.2667 128.205 22.648C127.487 23.0293 126.592 23.22 125.521 23.22ZM136.23 23.22C135.511 23.22 134.844 23.0733 134.228 22.78C133.612 22.4867 133.121 22.0907 132.754 21.592C132.402 21.0787 132.226 20.514 132.226 19.898C132.226 18.93 132.622 18.138 133.414 17.522C134.221 16.8913 135.306 16.4807 136.67 16.29L139.948 15.828V15.19C139.948 13.694 139.09 12.946 137.374 12.946C136.729 12.946 136.201 13.0853 135.79 13.364C135.379 13.628 135.071 13.9433 134.866 14.31C134.822 14.442 134.763 14.5373 134.69 14.596C134.631 14.6547 134.543 14.684 134.426 14.684H133.48C133.348 14.684 133.231 14.64 133.128 14.552C133.04 14.4493 132.996 14.332 132.996 14.2C133.011 13.848 133.172 13.452 133.48 13.012C133.803 12.5573 134.294 12.1687 134.954 11.846C135.614 11.5087 136.428 11.34 137.396 11.34C139.039 11.34 140.219 11.7287 140.938 12.506C141.657 13.2687 142.016 14.222 142.016 15.366V22.494C142.016 22.6407 141.965 22.7653 141.862 22.868C141.774 22.956 141.657 23 141.51 23H140.498C140.351 23 140.227 22.956 140.124 22.868C140.036 22.7653 139.992 22.6407 139.992 22.494V21.548C139.669 22.0173 139.2 22.4133 138.584 22.736C137.968 23.0587 137.183 23.22 136.23 23.22ZM136.692 21.57C137.645 21.57 138.423 21.262 139.024 20.646C139.64 20.0153 139.948 19.1133 139.948 17.94V17.324L137.396 17.698C136.355 17.8447 135.57 18.094 135.042 18.446C134.514 18.7833 134.25 19.216 134.25 19.744C134.25 20.3307 134.492 20.7853 134.976 21.108C135.46 21.416 136.032 21.57 136.692 21.57ZM149.537 23C147.22 23 146.061 21.7093 146.061 19.128V13.32H144.345C144.199 13.32 144.074 13.276 143.971 13.188C143.883 13.0853 143.839 12.9607 143.839 12.814V12.066C143.839 11.9193 143.883 11.802 143.971 11.714C144.074 11.6113 144.199 11.56 144.345 11.56H146.061V7.886C146.061 7.73933 146.105 7.622 146.193 7.534C146.296 7.43133 146.421 7.38 146.567 7.38H147.601C147.748 7.38 147.865 7.43133 147.953 7.534C148.056 7.622 148.107 7.73933 148.107 7.886V11.56H150.835C150.982 11.56 151.099 11.6113 151.187 11.714C151.29 11.802 151.341 11.9193 151.341 12.066V12.814C151.341 12.9607 151.29 13.0853 151.187 13.188C151.099 13.276 150.982 13.32 150.835 13.32H148.107V18.974C148.107 19.7073 148.232 20.2647 148.481 20.646C148.731 21.0127 149.141 21.196 149.713 21.196H151.055C151.202 21.196 151.319 21.2473 151.407 21.35C151.51 21.438 151.561 21.5553 151.561 21.702V22.494C151.561 22.6407 151.51 22.7653 151.407 22.868C151.319 22.956 151.202 23 151.055 23H149.537ZM158.241 23.22C156.73 23.22 155.52 22.758 154.611 21.834C153.716 20.8953 153.225 19.6193 153.137 18.006L153.115 17.258L153.137 16.532C153.24 14.948 153.738 13.6867 154.633 12.748C155.542 11.8093 156.738 11.34 158.219 11.34C159.847 11.34 161.108 11.8607 162.003 12.902C162.898 13.9287 163.345 15.322 163.345 17.082V17.456C163.345 17.6027 163.294 17.7273 163.191 17.83C163.103 17.918 162.986 17.962 162.839 17.962H155.227V18.16C155.271 19.1133 155.557 19.9273 156.085 20.602C156.628 21.262 157.339 21.592 158.219 21.592C158.894 21.592 159.444 21.46 159.869 21.196C160.309 20.9173 160.632 20.6313 160.837 20.338C160.969 20.162 161.064 20.0593 161.123 20.03C161.196 19.986 161.321 19.964 161.497 19.964H162.575C162.707 19.964 162.817 20.0007 162.905 20.074C162.993 20.1473 163.037 20.25 163.037 20.382C163.037 20.7047 162.832 21.0933 162.421 21.548C162.025 22.0027 161.46 22.3987 160.727 22.736C160.008 23.0587 159.18 23.22 158.241 23.22ZM161.255 16.444V16.378C161.255 15.366 160.976 14.5447 160.419 13.914C159.876 13.2687 159.143 12.946 158.219 12.946C157.295 12.946 156.562 13.2687 156.019 13.914C155.491 14.5447 155.227 15.366 155.227 16.378V16.444H161.255ZM170.156 23.22C168.63 23.22 167.479 22.7213 166.702 21.724C165.924 20.7267 165.514 19.4653 165.47 17.94L165.448 17.28L165.47 16.62C165.514 15.1093 165.924 13.8553 166.702 12.858C167.479 11.846 168.63 11.34 170.156 11.34C171.666 11.34 172.854 11.8753 173.72 12.946V7.886C173.72 7.73933 173.764 7.622 173.852 7.534C173.954 7.43133 174.079 7.38 174.226 7.38H175.282C175.428 7.38 175.546 7.43133 175.634 7.534C175.736 7.622 175.788 7.73933 175.788 7.886V22.494C175.788 22.6407 175.736 22.7653 175.634 22.868C175.546 22.956 175.428 23 175.282 23H174.292C174.145 23 174.02 22.956 173.918 22.868C173.83 22.7653 173.786 22.6407 173.786 22.494V21.57C172.935 22.67 171.725 23.22 170.156 23.22ZM170.618 21.438C171.63 21.438 172.385 21.108 172.884 20.448C173.397 19.7733 173.676 18.974 173.72 18.05C173.734 17.8887 173.742 17.61 173.742 17.214C173.742 16.8033 173.734 16.5173 173.72 16.356C173.69 15.4907 173.412 14.7353 172.884 14.09C172.356 13.4447 171.6 13.122 170.618 13.122C169.576 13.122 168.814 13.4447 168.33 14.09C167.86 14.7353 167.604 15.586 167.56 16.642L167.538 17.28C167.538 20.052 168.564 21.438 170.618 21.438ZM190.106 23.22C188.522 23.22 187.32 22.67 186.498 21.57V22.494C186.498 22.6407 186.447 22.7653 186.344 22.868C186.256 22.956 186.139 23 185.992 23H184.98C184.834 23 184.709 22.956 184.606 22.868C184.518 22.7653 184.474 22.6407 184.474 22.494V7.886C184.474 7.73933 184.518 7.622 184.606 7.534C184.709 7.43133 184.834 7.38 184.98 7.38H186.058C186.205 7.38 186.322 7.43133 186.41 7.534C186.498 7.622 186.542 7.73933 186.542 7.886V12.946C187.408 11.8753 188.596 11.34 190.106 11.34C191.632 11.34 192.783 11.846 193.56 12.858C194.338 13.8553 194.756 15.1093 194.814 16.62C194.829 16.7813 194.836 17.0013 194.836 17.28C194.836 17.5587 194.829 17.7787 194.814 17.94C194.756 19.4653 194.338 20.7267 193.56 21.724C192.783 22.7213 191.632 23.22 190.106 23.22ZM189.644 21.438C190.686 21.438 191.441 21.1153 191.91 20.47C192.394 19.8247 192.658 18.974 192.702 17.918C192.717 17.7713 192.724 17.5587 192.724 17.28C192.724 14.508 191.698 13.122 189.644 13.122C188.662 13.122 187.906 13.4447 187.378 14.09C186.85 14.7353 186.572 15.4907 186.542 16.356L186.52 17.214L186.542 18.05C186.586 18.974 186.858 19.7733 187.356 20.448C187.87 21.108 188.632 21.438 189.644 21.438ZM200.726 23.22C200.008 23.22 199.34 23.0733 198.724 22.78C198.108 22.4867 197.617 22.0907 197.25 21.592C196.898 21.0787 196.722 20.514 196.722 19.898C196.722 18.93 197.118 18.138 197.91 17.522C198.717 16.8913 199.802 16.4807 201.166 16.29L204.444 15.828V15.19C204.444 13.694 203.586 12.946 201.87 12.946C201.225 12.946 200.697 13.0853 200.286 13.364C199.876 13.628 199.568 13.9433 199.362 14.31C199.318 14.442 199.26 14.5373 199.186 14.596C199.128 14.6547 199.04 14.684 198.922 14.684H197.976C197.844 14.684 197.727 14.64 197.624 14.552C197.536 14.4493 197.492 14.332 197.492 14.2C197.507 13.848 197.668 13.452 197.976 13.012C198.299 12.5573 198.79 12.1687 199.45 11.846C200.11 11.5087 200.924 11.34 201.892 11.34C203.535 11.34 204.716 11.7287 205.434 12.506C206.153 13.2687 206.512 14.222 206.512 15.366V22.494C206.512 22.6407 206.461 22.7653 206.358 22.868C206.27 22.956 206.153 23 206.006 23H204.994C204.848 23 204.723 22.956 204.62 22.868C204.532 22.7653 204.488 22.6407 204.488 22.494V21.548C204.166 22.0173 203.696 22.4133 203.08 22.736C202.464 23.0587 201.68 23.22 200.726 23.22ZM201.188 21.57C202.142 21.57 202.919 21.262 203.52 20.646C204.136 20.0153 204.444 19.1133 204.444 17.94V17.324L201.892 17.698C200.851 17.8447 200.066 18.094 199.538 18.446C199.01 18.7833 198.746 19.216 198.746 19.744C198.746 20.3307 198.988 20.7853 199.472 21.108C199.956 21.416 200.528 21.57 201.188 21.57ZM214.361 27.84C213.158 27.84 212.19 27.6347 211.457 27.224C210.724 26.828 210.203 26.3733 209.895 25.86C209.587 25.3467 209.418 24.8847 209.389 24.474C209.374 24.3273 209.418 24.2027 209.521 24.1C209.638 23.9973 209.763 23.946 209.895 23.946H210.951C211.083 23.946 211.193 23.9753 211.281 24.034C211.369 24.1073 211.442 24.232 211.501 24.408C211.677 24.8773 211.963 25.2807 212.359 25.618C212.77 25.97 213.4 26.146 214.251 26.146C215.336 26.146 216.136 25.9113 216.649 25.442C217.162 24.9873 217.419 24.1733 217.419 23V21.504C217.038 21.988 216.554 22.3767 215.967 22.67C215.38 22.9487 214.684 23.088 213.877 23.088C212.322 23.088 211.156 22.5967 210.379 21.614C209.616 20.6167 209.213 19.3553 209.169 17.83L209.147 17.214L209.169 16.62C209.213 15.1093 209.624 13.8553 210.401 12.858C211.178 11.846 212.337 11.34 213.877 11.34C215.417 11.34 216.62 11.9047 217.485 13.034V12.088C217.485 11.9413 217.529 11.8167 217.617 11.714C217.72 11.6113 217.844 11.56 217.991 11.56H219.003C219.15 11.56 219.274 11.6113 219.377 11.714C219.48 11.8167 219.531 11.9413 219.531 12.088V22.758C219.531 26.146 217.808 27.84 214.361 27.84ZM214.317 21.328C215.314 21.328 216.07 20.998 216.583 20.338C217.096 19.678 217.375 18.8933 217.419 17.984C217.434 17.852 217.441 17.5953 217.441 17.214C217.441 16.8473 217.434 16.598 217.419 16.466C217.375 15.5567 217.096 14.772 216.583 14.112C216.084 13.452 215.329 13.122 214.317 13.122C213.276 13.122 212.52 13.4447 212.051 14.09C211.582 14.7353 211.325 15.586 211.281 16.642L211.259 17.214L211.281 17.808C211.325 18.8493 211.582 19.7 212.051 20.36C212.52 21.0053 213.276 21.328 214.317 21.328Z" fill="black"/>
</svg>
