<svg width="171" height="31" viewBox="0 0 171 31" fill="none" xmlns="http://www.w3.org/2000/svg">
<path opacity="0.7" d="M11 25.5C16.5228 25.5 21 21.0228 21 15.5C21 9.97715 16.5228 5.5 11 5.5C5.47715 5.5 1 9.97715 1 15.5C1 21.0228 5.47715 25.5 11 25.5Z" stroke="black" stroke-width="2" stroke-linecap="round" stroke-linejoin="round"/>
<path opacity="0.7" d="M11 19.5L15 15.5L11 11.5" stroke="black" stroke-width="2" stroke-linecap="round" stroke-linejoin="round"/>
<path opacity="0.7" d="M38.42 23C38.2733 23 38.1487 22.956 38.046 22.868C37.958 22.7653 37.914 22.6407 37.914 22.494V8.128C37.914 7.96667 37.958 7.842 38.046 7.754C38.1487 7.65133 38.2733 7.6 38.42 7.6H47.506C47.6527 7.6 47.77 7.65133 47.858 7.754C47.9607 7.842 48.012 7.96667 48.012 8.128V8.964C48.012 9.11067 47.968 9.23533 47.88 9.338C47.792 9.426 47.6673 9.47 47.506 9.47H40.026V14.288H47.022C47.1687 14.288 47.286 14.3393 47.374 14.442C47.4767 14.53 47.528 14.6547 47.528 14.816V15.63C47.528 15.7767 47.4767 15.9013 47.374 16.004C47.286 16.092 47.1687 16.136 47.022 16.136H40.026V21.13H47.682C47.8433 21.13 47.968 21.174 48.056 21.262C48.144 21.35 48.188 21.4747 48.188 21.636V22.494C48.188 22.6407 48.1367 22.7653 48.034 22.868C47.946 22.956 47.8287 23 47.682 23H38.42ZM50.4418 23C50.3245 23 50.2145 22.956 50.1118 22.868C50.0238 22.78 49.9798 22.67 49.9798 22.538C49.9798 22.406 50.0311 22.274 50.1338 22.142L53.9618 17.148L50.3758 12.418C50.2731 12.3007 50.2218 12.1687 50.2218 12.022C50.2218 11.89 50.2658 11.78 50.3538 11.692C50.4418 11.604 50.5518 11.56 50.6838 11.56H51.8058C52.0258 11.56 52.2165 11.6773 52.3778 11.912L55.3038 15.718L58.2298 11.934C58.3178 11.8167 58.3985 11.7287 58.4718 11.67C58.5598 11.5967 58.6698 11.56 58.8018 11.56H59.8798C60.0118 11.56 60.1218 11.604 60.2098 11.692C60.2978 11.78 60.3418 11.89 60.3418 12.022C60.3418 12.1687 60.2905 12.3007 60.1878 12.418L56.5578 17.192L60.3858 22.142C60.4885 22.274 60.5398 22.406 60.5398 22.538C60.5398 22.67 60.4958 22.78 60.4078 22.868C60.3198 22.956 60.2098 23 60.0778 23H58.9118C58.6918 23 58.5011 22.89 58.3398 22.67L55.2598 18.644L52.1358 22.67C52.0478 22.7727 51.9598 22.8533 51.8718 22.912C51.7985 22.9707 51.6958 23 51.5638 23H50.4418ZM67.2952 23C64.9778 23 63.8192 21.7093 63.8192 19.128V13.32H62.1032C61.9565 13.32 61.8318 13.276 61.7292 13.188C61.6412 13.0853 61.5972 12.9607 61.5972 12.814V12.066C61.5972 11.9193 61.6412 11.802 61.7292 11.714C61.8318 11.6113 61.9565 11.56 62.1032 11.56H63.8192V7.886C63.8192 7.73933 63.8632 7.622 63.9512 7.534C64.0538 7.43133 64.1785 7.38 64.3252 7.38H65.3592C65.5058 7.38 65.6232 7.43133 65.7112 7.534C65.8138 7.622 65.8652 7.73933 65.8652 7.886V11.56H68.5932C68.7398 11.56 68.8572 11.6113 68.9452 11.714C69.0478 11.802 69.0992 11.9193 69.0992 12.066V12.814C69.0992 12.9607 69.0478 13.0853 68.9452 13.188C68.8572 13.276 68.7398 13.32 68.5932 13.32H65.8652V18.974C65.8652 19.7073 65.9898 20.2647 66.2392 20.646C66.4885 21.0127 66.8992 21.196 67.4712 21.196H68.8132C68.9598 21.196 69.0772 21.2473 69.1652 21.35C69.2678 21.438 69.3192 21.5553 69.3192 21.702V22.494C69.3192 22.6407 69.2678 22.7653 69.1652 22.868C69.0772 22.956 68.9598 23 68.8132 23H67.2952ZM71.9289 23C71.7823 23 71.6576 22.956 71.5549 22.868C71.4669 22.7653 71.4229 22.6407 71.4229 22.494V12.088C71.4229 11.9413 71.4669 11.8167 71.5549 11.714C71.6576 11.6113 71.7823 11.56 71.9289 11.56H72.9409C73.0876 11.56 73.2123 11.6113 73.3149 11.714C73.4176 11.8167 73.4689 11.9413 73.4689 12.088V13.056C74.0703 12.0587 75.0969 11.56 76.5489 11.56H77.4069C77.5536 11.56 77.6709 11.6113 77.7589 11.714C77.8616 11.802 77.9129 11.9193 77.9129 12.066V12.968C77.9129 13.1147 77.8616 13.232 77.7589 13.32C77.6709 13.408 77.5536 13.452 77.4069 13.452H76.0869C75.2949 13.452 74.6716 13.6867 74.2169 14.156C73.7623 14.6107 73.5349 15.234 73.5349 16.026V22.494C73.5349 22.6407 73.4836 22.7653 73.3809 22.868C73.2783 22.956 73.1536 23 73.0069 23H71.9289ZM82.7985 23.22C82.0798 23.22 81.4125 23.0733 80.7965 22.78C80.1805 22.4867 79.6891 22.0907 79.3225 21.592C78.9705 21.0787 78.7945 20.514 78.7945 19.898C78.7945 18.93 79.1905 18.138 79.9825 17.522C80.7891 16.8913 81.8745 16.4807 83.2385 16.29L86.5165 15.828V15.19C86.5165 13.694 85.6585 12.946 83.9425 12.946C83.2971 12.946 82.7691 13.0853 82.3585 13.364C81.9478 13.628 81.6398 13.9433 81.4345 14.31C81.3905 14.442 81.3318 14.5373 81.2585 14.596C81.1998 14.6547 81.1118 14.684 80.9945 14.684H80.0485C79.9165 14.684 79.7991 14.64 79.6965 14.552C79.6085 14.4493 79.5645 14.332 79.5645 14.2C79.5791 13.848 79.7405 13.452 80.0485 13.012C80.3711 12.5573 80.8625 12.1687 81.5225 11.846C82.1825 11.5087 82.9965 11.34 83.9645 11.34C85.6071 11.34 86.7878 11.7287 87.5065 12.506C88.2251 13.2687 88.5845 14.222 88.5845 15.366V22.494C88.5845 22.6407 88.5331 22.7653 88.4305 22.868C88.3425 22.956 88.2251 23 88.0785 23H87.0665C86.9198 23 86.7951 22.956 86.6925 22.868C86.6045 22.7653 86.5605 22.6407 86.5605 22.494V21.548C86.2378 22.0173 85.7685 22.4133 85.1525 22.736C84.5365 23.0587 83.7518 23.22 82.7985 23.22ZM83.2605 21.57C84.2138 21.57 84.9911 21.262 85.5925 20.646C86.2085 20.0153 86.5165 19.1133 86.5165 17.94V17.324L83.9645 17.698C82.9231 17.8447 82.1385 18.094 81.6105 18.446C81.0825 18.7833 80.8185 19.216 80.8185 19.744C80.8185 20.3307 81.0605 20.7853 81.5445 21.108C82.0285 21.416 82.6005 21.57 83.2605 21.57ZM102.794 23.22C101.21 23.22 100.007 22.67 99.1857 21.57V22.494C99.1857 22.6407 99.1344 22.7653 99.0317 22.868C98.9437 22.956 98.8264 23 98.6797 23H97.6677C97.5211 23 97.3964 22.956 97.2937 22.868C97.2057 22.7653 97.1617 22.6407 97.1617 22.494V7.886C97.1617 7.73933 97.2057 7.622 97.2937 7.534C97.3964 7.43133 97.5211 7.38 97.6677 7.38H98.7457C98.8924 7.38 99.0097 7.43133 99.0977 7.534C99.1857 7.622 99.2297 7.73933 99.2297 7.886V12.946C100.095 11.8753 101.283 11.34 102.794 11.34C104.319 11.34 105.47 11.846 106.248 12.858C107.025 13.8553 107.443 15.1093 107.502 16.62C107.516 16.7813 107.524 17.0013 107.524 17.28C107.524 17.5587 107.516 17.7787 107.502 17.94C107.443 19.4653 107.025 20.7267 106.248 21.724C105.47 22.7213 104.319 23.22 102.794 23.22ZM102.332 21.438C103.373 21.438 104.128 21.1153 104.598 20.47C105.082 19.8247 105.346 18.974 105.39 17.918C105.404 17.7713 105.412 17.5587 105.412 17.28C105.412 14.508 104.385 13.122 102.332 13.122C101.349 13.122 100.594 13.4447 100.066 14.09C99.5377 14.7353 99.2591 15.4907 99.2297 16.356L99.2077 17.214L99.2297 18.05C99.2737 18.974 99.5451 19.7733 100.044 20.448C100.557 21.108 101.32 21.438 102.332 21.438ZM113.414 23.22C112.695 23.22 112.028 23.0733 111.412 22.78C110.796 22.4867 110.304 22.0907 109.938 21.592C109.586 21.0787 109.41 20.514 109.41 19.898C109.41 18.93 109.806 18.138 110.598 17.522C111.404 16.8913 112.49 16.4807 113.854 16.29L117.132 15.828V15.19C117.132 13.694 116.274 12.946 114.558 12.946C113.912 12.946 113.384 13.0853 112.974 13.364C112.563 13.628 112.255 13.9433 112.05 14.31C112.006 14.442 111.947 14.5373 111.874 14.596C111.815 14.6547 111.727 14.684 111.61 14.684H110.664C110.532 14.684 110.414 14.64 110.312 14.552C110.224 14.4493 110.18 14.332 110.18 14.2C110.194 13.848 110.356 13.452 110.664 13.012C110.986 12.5573 111.478 12.1687 112.138 11.846C112.798 11.5087 113.612 11.34 114.58 11.34C116.222 11.34 117.403 11.7287 118.122 12.506C118.84 13.2687 119.2 14.222 119.2 15.366V22.494C119.2 22.6407 119.148 22.7653 119.046 22.868C118.958 22.956 118.84 23 118.694 23H117.682C117.535 23 117.41 22.956 117.308 22.868C117.22 22.7653 117.176 22.6407 117.176 22.494V21.548C116.853 22.0173 116.384 22.4133 115.768 22.736C115.152 23.0587 114.367 23.22 113.414 23.22ZM113.876 21.57C114.829 21.57 115.606 21.262 116.208 20.646C116.824 20.0153 117.132 19.1133 117.132 17.94V17.324L114.58 17.698C113.538 17.8447 112.754 18.094 112.226 18.446C111.698 18.7833 111.434 19.216 111.434 19.744C111.434 20.3307 111.676 20.7853 112.16 21.108C112.644 21.416 113.216 21.57 113.876 21.57ZM126.721 23C124.404 23 123.245 21.7093 123.245 19.128V13.32H121.529C121.382 13.32 121.258 13.276 121.155 13.188C121.067 13.0853 121.023 12.9607 121.023 12.814V12.066C121.023 11.9193 121.067 11.802 121.155 11.714C121.258 11.6113 121.382 11.56 121.529 11.56H123.245V7.886C123.245 7.73933 123.289 7.622 123.377 7.534C123.48 7.43133 123.604 7.38 123.751 7.38H124.785C124.932 7.38 125.049 7.43133 125.137 7.534C125.24 7.622 125.291 7.73933 125.291 7.886V11.56H128.019C128.166 11.56 128.283 11.6113 128.371 11.714C128.474 11.802 128.525 11.9193 128.525 12.066V12.814C128.525 12.9607 128.474 13.0853 128.371 13.188C128.283 13.276 128.166 13.32 128.019 13.32H125.291V18.974C125.291 19.7073 125.416 20.2647 125.665 20.646C125.914 21.0127 126.325 21.196 126.897 21.196H128.239C128.386 21.196 128.503 21.2473 128.591 21.35C128.694 21.438 128.745 21.5553 128.745 21.702V22.494C128.745 22.6407 128.694 22.7653 128.591 22.868C128.503 22.956 128.386 23 128.239 23H126.721ZM135.315 23C132.997 23 131.839 21.7093 131.839 19.128V13.32H130.123C129.976 13.32 129.851 13.276 129.749 13.188C129.661 13.0853 129.617 12.9607 129.617 12.814V12.066C129.617 11.9193 129.661 11.802 129.749 11.714C129.851 11.6113 129.976 11.56 130.123 11.56H131.839V7.886C131.839 7.73933 131.883 7.622 131.971 7.534C132.073 7.43133 132.198 7.38 132.345 7.38H133.379C133.525 7.38 133.643 7.43133 133.731 7.534C133.833 7.622 133.885 7.73933 133.885 7.886V11.56H136.613C136.759 11.56 136.877 11.6113 136.965 11.714C137.067 11.802 137.119 11.9193 137.119 12.066V12.814C137.119 12.9607 137.067 13.0853 136.965 13.188C136.877 13.276 136.759 13.32 136.613 13.32H133.885V18.974C133.885 19.7073 134.009 20.2647 134.259 20.646C134.508 21.0127 134.919 21.196 135.491 21.196H136.833C136.979 21.196 137.097 21.2473 137.185 21.35C137.287 21.438 137.339 21.5553 137.339 21.702V22.494C137.339 22.6407 137.287 22.7653 137.185 22.868C137.097 22.956 136.979 23 136.833 23H135.315ZM144.018 23.22C142.508 23.22 141.298 22.758 140.388 21.834C139.494 20.8953 139.002 19.6193 138.914 18.006L138.892 17.258L138.914 16.532C139.017 14.948 139.516 13.6867 140.41 12.748C141.32 11.8093 142.515 11.34 143.996 11.34C145.624 11.34 146.886 11.8607 147.78 12.902C148.675 13.9287 149.122 15.322 149.122 17.082V17.456C149.122 17.6027 149.071 17.7273 148.968 17.83C148.88 17.918 148.763 17.962 148.616 17.962H141.004V18.16C141.048 19.1133 141.334 19.9273 141.862 20.602C142.405 21.262 143.116 21.592 143.996 21.592C144.671 21.592 145.221 21.46 145.646 21.196C146.086 20.9173 146.409 20.6313 146.614 20.338C146.746 20.162 146.842 20.0593 146.9 20.03C146.974 19.986 147.098 19.964 147.274 19.964H148.352C148.484 19.964 148.594 20.0007 148.682 20.074C148.77 20.1473 148.814 20.25 148.814 20.382C148.814 20.7047 148.609 21.0933 148.198 21.548C147.802 22.0027 147.238 22.3987 146.504 22.736C145.786 23.0587 144.957 23.22 144.018 23.22ZM147.032 16.444V16.378C147.032 15.366 146.754 14.5447 146.196 13.914C145.654 13.2687 144.92 12.946 143.996 12.946C143.072 12.946 142.339 13.2687 141.796 13.914C141.268 14.5447 141.004 15.366 141.004 16.378V16.444H147.032ZM152.259 23C152.112 23 151.988 22.956 151.885 22.868C151.797 22.7653 151.753 22.6407 151.753 22.494V12.088C151.753 11.9413 151.797 11.8167 151.885 11.714C151.988 11.6113 152.112 11.56 152.259 11.56H153.271C153.418 11.56 153.542 11.6113 153.645 11.714C153.748 11.8167 153.799 11.9413 153.799 12.088V13.056C154.4 12.0587 155.427 11.56 156.879 11.56H157.737C157.884 11.56 158.001 11.6113 158.089 11.714C158.192 11.802 158.243 11.9193 158.243 12.066V12.968C158.243 13.1147 158.192 13.232 158.089 13.32C158.001 13.408 157.884 13.452 157.737 13.452H156.417C155.625 13.452 155.002 13.6867 154.547 14.156C154.092 14.6107 153.865 15.234 153.865 16.026V22.494C153.865 22.6407 153.814 22.7653 153.711 22.868C153.608 22.956 153.484 23 153.337 23H152.259ZM162.112 27.18C161.995 27.18 161.892 27.136 161.804 27.048C161.716 26.96 161.672 26.8573 161.672 26.74C161.672 26.6373 161.709 26.5053 161.782 26.344L163.476 22.318L159.274 12.396C159.201 12.2053 159.164 12.0807 159.164 12.022C159.164 11.89 159.208 11.78 159.296 11.692C159.384 11.604 159.494 11.56 159.626 11.56H160.704C160.939 11.56 161.115 11.6847 161.232 11.934L164.576 19.942L168.008 11.934C168.126 11.6847 168.309 11.56 168.558 11.56H169.592C169.724 11.56 169.834 11.604 169.922 11.692C170.01 11.78 170.054 11.8827 170.054 12C170.054 12.044 170.018 12.176 169.944 12.396L163.696 26.806C163.579 27.0553 163.396 27.18 163.146 27.18H162.112Z" fill="black"/>
</svg>
