<svg width="227" height="31" viewBox="0 0 227 31" fill="none" xmlns="http://www.w3.org/2000/svg">
<g opacity="0.7">
<path d="M11 25.5C16.5228 25.5 21 21.0228 21 15.5C21 9.97715 16.5228 5.5 11 5.5C5.47715 5.5 1 9.97715 1 15.5C1 21.0228 5.47715 25.5 11 25.5Z" stroke="black" stroke-width="2" stroke-linecap="round" stroke-linejoin="round"/>
<path d="M11 19.5L15 15.5L11 11.5" stroke="black" stroke-width="2" stroke-linecap="round" stroke-linejoin="round"/>
<path d="M7 15.5H15" stroke="black" stroke-width="2" stroke-linecap="round" stroke-linejoin="round"/>
</g>
<path opacity="0.7" d="M43.722 23.22C41.83 23.22 40.3633 22.714 39.322 21.702C38.2953 20.6753 37.782 19.128 37.782 17.06V8.128C37.782 7.96667 37.826 7.842 37.914 7.754C38.0167 7.65133 38.1413 7.6 38.288 7.6H39.41C39.5713 7.6 39.696 7.65133 39.784 7.754C39.8867 7.842 39.938 7.96667 39.938 8.128V17.104C39.938 18.512 40.268 19.568 40.928 20.272C41.588 20.976 42.5193 21.328 43.722 21.328C44.9247 21.328 45.856 20.976 46.516 20.272C47.176 19.568 47.506 18.512 47.506 17.104V8.128C47.506 7.96667 47.55 7.842 47.638 7.754C47.7407 7.65133 47.8653 7.6 48.012 7.6H49.156C49.3027 7.6 49.42 7.65133 49.508 7.754C49.6107 7.85667 49.662 7.98133 49.662 8.128V17.06C49.662 19.128 49.1413 20.6753 48.1 21.702C47.0733 22.714 45.614 23.22 43.722 23.22ZM56.9278 23.22C55.9012 23.22 55.0358 23.0587 54.3318 22.736C53.6425 22.3987 53.1218 22.0173 52.7698 21.592C52.4325 21.1667 52.2638 20.8147 52.2638 20.536C52.2638 20.3893 52.3152 20.2793 52.4178 20.206C52.5352 20.118 52.6525 20.074 52.7698 20.074H53.7598C53.9065 20.074 54.0385 20.1473 54.1558 20.294C54.5078 20.7047 54.8892 21.0273 55.2998 21.262C55.7105 21.4967 56.2605 21.614 56.9498 21.614C57.7125 21.614 58.3285 21.4673 58.7978 21.174C59.2818 20.866 59.5238 20.448 59.5238 19.92C59.5238 19.568 59.4212 19.282 59.2158 19.062C59.0252 18.8273 58.6878 18.6293 58.2038 18.468C57.7345 18.292 57.0305 18.1013 56.0918 17.896C54.8158 17.6173 53.9065 17.214 53.3638 16.686C52.8358 16.158 52.5718 15.476 52.5718 14.64C52.5718 14.0827 52.7332 13.5547 53.0558 13.056C53.3932 12.5427 53.8772 12.132 54.5078 11.824C55.1532 11.5013 55.9232 11.34 56.8178 11.34C57.7565 11.34 58.5558 11.494 59.2158 11.802C59.8758 12.11 60.3672 12.4767 60.6898 12.902C61.0272 13.3127 61.1958 13.6573 61.1958 13.936C61.1958 14.068 61.1445 14.178 61.0418 14.266C60.9538 14.354 60.8438 14.398 60.7118 14.398H59.7878C59.6118 14.398 59.4652 14.3247 59.3478 14.178C59.1132 13.8993 58.9078 13.6867 58.7318 13.54C58.5705 13.3787 58.3285 13.2393 58.0058 13.122C57.6978 13.0047 57.3018 12.946 56.8178 12.946C56.1138 12.946 55.5712 13.1 55.1898 13.408C54.8085 13.7013 54.6178 14.09 54.6178 14.574C54.6178 14.882 54.6985 15.146 54.8598 15.366C55.0212 15.5713 55.3292 15.762 55.7838 15.938C56.2532 16.114 56.9278 16.2973 57.8078 16.488C59.2012 16.7813 60.1838 17.2067 60.7558 17.764C61.3425 18.3067 61.6358 19.0033 61.6358 19.854C61.6358 20.4847 61.4525 21.0567 61.0858 21.57C60.7192 22.0833 60.1765 22.4867 59.4578 22.78C58.7538 23.0733 57.9105 23.22 56.9278 23.22ZM68.7587 23.22C67.248 23.22 66.038 22.758 65.1287 21.834C64.234 20.8953 63.7427 19.6193 63.6547 18.006L63.6327 17.258L63.6547 16.532C63.7574 14.948 64.256 13.6867 65.1507 12.748C66.06 11.8093 67.2554 11.34 68.7367 11.34C70.3647 11.34 71.626 11.8607 72.5207 12.902C73.4154 13.9287 73.8627 15.322 73.8627 17.082V17.456C73.8627 17.6027 73.8114 17.7273 73.7087 17.83C73.6207 17.918 73.5034 17.962 73.3567 17.962H65.7447V18.16C65.7887 19.1133 66.0747 19.9273 66.6027 20.602C67.1454 21.262 67.8567 21.592 68.7367 21.592C69.4114 21.592 69.9614 21.46 70.3867 21.196C70.8267 20.9173 71.1494 20.6313 71.3547 20.338C71.4867 20.162 71.582 20.0593 71.6407 20.03C71.714 19.986 71.8387 19.964 72.0147 19.964H73.0927C73.2247 19.964 73.3347 20.0007 73.4227 20.074C73.5107 20.1473 73.5547 20.25 73.5547 20.382C73.5547 20.7047 73.3494 21.0933 72.9387 21.548C72.5427 22.0027 71.978 22.3987 71.2447 22.736C70.526 23.0587 69.6974 23.22 68.7587 23.22ZM71.7727 16.444V16.378C71.7727 15.366 71.494 14.5447 70.9367 13.914C70.394 13.2687 69.6607 12.946 68.7367 12.946C67.8127 12.946 67.0794 13.2687 66.5367 13.914C66.0087 14.5447 65.7447 15.366 65.7447 16.378V16.444H71.7727ZM76.9992 23C76.8526 23 76.7279 22.956 76.6252 22.868C76.5372 22.7653 76.4932 22.6407 76.4932 22.494V12.088C76.4932 11.9413 76.5372 11.8167 76.6252 11.714C76.7279 11.6113 76.8526 11.56 76.9992 11.56H78.0112C78.1579 11.56 78.2826 11.6113 78.3852 11.714C78.4879 11.8167 78.5392 11.9413 78.5392 12.088V13.056C79.1406 12.0587 80.1672 11.56 81.6192 11.56H82.4772C82.6239 11.56 82.7412 11.6113 82.8292 11.714C82.9319 11.802 82.9832 11.9193 82.9832 12.066V12.968C82.9832 13.1147 82.9319 13.232 82.8292 13.32C82.7412 13.408 82.6239 13.452 82.4772 13.452H81.1572C80.3652 13.452 79.7419 13.6867 79.2872 14.156C78.8326 14.6107 78.6052 15.234 78.6052 16.026V22.494C78.6052 22.6407 78.5539 22.7653 78.4512 22.868C78.3486 22.956 78.2239 23 78.0772 23H76.9992ZM90.2336 23C90.0869 23 89.9623 22.956 89.8596 22.868C89.7716 22.7653 89.7276 22.6407 89.7276 22.494V12.066C89.7276 11.9193 89.7716 11.802 89.8596 11.714C89.9623 11.6113 90.0869 11.56 90.2336 11.56H91.2236C91.3703 11.56 91.4876 11.6113 91.5756 11.714C91.6783 11.802 91.7296 11.9193 91.7296 12.066V12.836C92.4923 11.8387 93.5556 11.34 94.9196 11.34C96.5476 11.34 97.6989 12.0147 98.3736 13.364C98.7256 12.748 99.2243 12.2567 99.8696 11.89C100.515 11.5233 101.241 11.34 102.048 11.34C103.25 11.34 104.233 11.7507 104.996 12.572C105.758 13.3933 106.14 14.5813 106.14 16.136V22.494C106.14 22.6407 106.088 22.7653 105.986 22.868C105.898 22.956 105.78 23 105.634 23H104.6C104.453 23 104.328 22.956 104.226 22.868C104.138 22.7653 104.094 22.6407 104.094 22.494V16.334C104.094 15.19 103.852 14.3687 103.368 13.87C102.898 13.3713 102.275 13.122 101.498 13.122C100.808 13.122 100.214 13.3787 99.7156 13.892C99.2169 14.3907 98.9676 15.2047 98.9676 16.334V22.494C98.9676 22.6407 98.9163 22.7653 98.8136 22.868C98.7256 22.956 98.6083 23 98.4616 23H97.4276C97.2809 23 97.1563 22.956 97.0536 22.868C96.9656 22.7653 96.9216 22.6407 96.9216 22.494V16.334C96.9216 15.19 96.6723 14.3687 96.1736 13.87C95.6896 13.3713 95.0736 13.122 94.3256 13.122C93.6363 13.122 93.0423 13.3787 92.5436 13.892C92.0449 14.3907 91.7956 15.1973 91.7956 16.312V22.494C91.7956 22.6407 91.7443 22.7653 91.6416 22.868C91.5536 22.956 91.4363 23 91.2896 23H90.2336ZM112.468 23.22C111.75 23.22 111.082 23.0733 110.466 22.78C109.85 22.4867 109.359 22.0907 108.992 21.592C108.64 21.0787 108.464 20.514 108.464 19.898C108.464 18.93 108.86 18.138 109.652 17.522C110.459 16.8913 111.544 16.4807 112.908 16.29L116.186 15.828V15.19C116.186 13.694 115.328 12.946 113.612 12.946C112.967 12.946 112.439 13.0853 112.028 13.364C111.618 13.628 111.31 13.9433 111.104 14.31C111.06 14.442 111.002 14.5373 110.928 14.596C110.87 14.6547 110.782 14.684 110.664 14.684H109.718C109.586 14.684 109.469 14.64 109.366 14.552C109.278 14.4493 109.234 14.332 109.234 14.2C109.249 13.848 109.41 13.452 109.718 13.012C110.041 12.5573 110.532 12.1687 111.192 11.846C111.852 11.5087 112.666 11.34 113.634 11.34C115.277 11.34 116.458 11.7287 117.176 12.506C117.895 13.2687 118.254 14.222 118.254 15.366V22.494C118.254 22.6407 118.203 22.7653 118.1 22.868C118.012 22.956 117.895 23 117.748 23H116.736C116.59 23 116.465 22.956 116.362 22.868C116.274 22.7653 116.23 22.6407 116.23 22.494V21.548C115.908 22.0173 115.438 22.4133 114.822 22.736C114.206 23.0587 113.422 23.22 112.468 23.22ZM112.93 21.57C113.884 21.57 114.661 21.262 115.262 20.646C115.878 20.0153 116.186 19.1133 116.186 17.94V17.324L113.634 17.698C112.593 17.8447 111.808 18.094 111.28 18.446C110.752 18.7833 110.488 19.216 110.488 19.744C110.488 20.3307 110.73 20.7853 111.214 21.108C111.698 21.416 112.27 21.57 112.93 21.57ZM121.923 23C121.776 23 121.652 22.956 121.549 22.868C121.461 22.7653 121.417 22.6407 121.417 22.494V12.066C121.417 11.9193 121.461 11.802 121.549 11.714C121.652 11.6113 121.776 11.56 121.923 11.56H122.957C123.104 11.56 123.221 11.6113 123.309 11.714C123.412 11.802 123.463 11.9193 123.463 12.066V13.034C123.888 12.4913 124.387 12.0733 124.959 11.78C125.546 11.4867 126.272 11.34 127.137 11.34C128.545 11.34 129.638 11.7947 130.415 12.704C131.207 13.5987 131.603 14.794 131.603 16.29V22.494C131.603 22.6407 131.552 22.7653 131.449 22.868C131.361 22.956 131.244 23 131.097 23H129.997C129.85 23 129.726 22.956 129.623 22.868C129.535 22.7653 129.491 22.6407 129.491 22.494V16.4C129.491 15.3587 129.234 14.552 128.721 13.98C128.222 13.408 127.496 13.122 126.543 13.122C125.619 13.122 124.886 13.4153 124.343 14.002C123.8 14.574 123.529 15.3733 123.529 16.4V22.494C123.529 22.6407 123.478 22.7653 123.375 22.868C123.287 22.956 123.17 23 123.023 23H121.923ZM139.027 23.22C137.634 23.22 136.556 22.7727 135.793 21.878C135.03 20.9687 134.649 19.766 134.649 18.27V12.066C134.649 11.9193 134.693 11.802 134.781 11.714C134.884 11.6113 135.008 11.56 135.155 11.56H136.255C136.402 11.56 136.519 11.6113 136.607 11.714C136.71 11.802 136.761 11.9193 136.761 12.066V18.16C136.761 20.3453 137.714 21.438 139.621 21.438C140.545 21.438 141.278 21.152 141.821 20.58C142.364 19.9933 142.635 19.1867 142.635 18.16V12.066C142.635 11.9193 142.679 11.802 142.767 11.714C142.87 11.6113 142.994 11.56 143.141 11.56H144.241C144.388 11.56 144.505 11.6113 144.593 11.714C144.681 11.802 144.725 11.9193 144.725 12.066V22.494C144.725 22.6407 144.681 22.7653 144.593 22.868C144.505 22.956 144.388 23 144.241 23H143.207C143.06 23 142.936 22.956 142.833 22.868C142.745 22.7653 142.701 22.6407 142.701 22.494V21.526C142.29 22.0833 141.792 22.5087 141.205 22.802C140.618 23.0807 139.892 23.22 139.027 23.22ZM151.183 23.22C150.465 23.22 149.797 23.0733 149.181 22.78C148.565 22.4867 148.074 22.0907 147.707 21.592C147.355 21.0787 147.179 20.514 147.179 19.898C147.179 18.93 147.575 18.138 148.367 17.522C149.174 16.8913 150.259 16.4807 151.623 16.29L154.901 15.828V15.19C154.901 13.694 154.043 12.946 152.327 12.946C151.682 12.946 151.154 13.0853 150.743 13.364C150.333 13.628 150.025 13.9433 149.819 14.31C149.775 14.442 149.717 14.5373 149.643 14.596C149.585 14.6547 149.497 14.684 149.379 14.684H148.433C148.301 14.684 148.184 14.64 148.081 14.552C147.993 14.4493 147.949 14.332 147.949 14.2C147.964 13.848 148.125 13.452 148.433 13.012C148.756 12.5573 149.247 12.1687 149.907 11.846C150.567 11.5087 151.381 11.34 152.349 11.34C153.992 11.34 155.173 11.7287 155.891 12.506C156.61 13.2687 156.969 14.222 156.969 15.366V22.494C156.969 22.6407 156.918 22.7653 156.815 22.868C156.727 22.956 156.61 23 156.463 23H155.451C155.305 23 155.18 22.956 155.077 22.868C154.989 22.7653 154.945 22.6407 154.945 22.494V21.548C154.623 22.0173 154.153 22.4133 153.537 22.736C152.921 23.0587 152.137 23.22 151.183 23.22ZM151.645 21.57C152.599 21.57 153.376 21.262 153.977 20.646C154.593 20.0153 154.901 19.1133 154.901 17.94V17.324L152.349 17.698C151.308 17.8447 150.523 18.094 149.995 18.446C149.467 18.7833 149.203 19.216 149.203 19.744C149.203 20.3307 149.445 20.7853 149.929 21.108C150.413 21.416 150.985 21.57 151.645 21.57ZM160.66 23C160.513 23 160.389 22.956 160.286 22.868C160.198 22.7653 160.154 22.6407 160.154 22.494V7.886C160.154 7.73933 160.198 7.622 160.286 7.534C160.389 7.43133 160.513 7.38 160.66 7.38H161.694C161.841 7.38 161.958 7.43133 162.046 7.534C162.149 7.622 162.2 7.73933 162.2 7.886V22.494C162.2 22.6407 162.149 22.7653 162.046 22.868C161.958 22.956 161.841 23 161.694 23H160.66ZM175.56 27.84C174.357 27.84 173.389 27.6347 172.656 27.224C171.923 26.828 171.402 26.3733 171.094 25.86C170.786 25.3467 170.617 24.8847 170.588 24.474C170.573 24.3273 170.617 24.2027 170.72 24.1C170.837 23.9973 170.962 23.946 171.094 23.946H172.15C172.282 23.946 172.392 23.9753 172.48 24.034C172.568 24.1073 172.641 24.232 172.7 24.408C172.876 24.8773 173.162 25.2807 173.558 25.618C173.969 25.97 174.599 26.146 175.45 26.146C176.535 26.146 177.335 25.9113 177.848 25.442C178.361 24.9873 178.618 24.1733 178.618 23V21.504C178.237 21.988 177.753 22.3767 177.166 22.67C176.579 22.9487 175.883 23.088 175.076 23.088C173.521 23.088 172.355 22.5967 171.578 21.614C170.815 20.6167 170.412 19.3553 170.368 17.83L170.346 17.214L170.368 16.62C170.412 15.1093 170.823 13.8553 171.6 12.858C172.377 11.846 173.536 11.34 175.076 11.34C176.616 11.34 177.819 11.9047 178.684 13.034V12.088C178.684 11.9413 178.728 11.8167 178.816 11.714C178.919 11.6113 179.043 11.56 179.19 11.56H180.202C180.349 11.56 180.473 11.6113 180.576 11.714C180.679 11.8167 180.73 11.9413 180.73 12.088V22.758C180.73 26.146 179.007 27.84 175.56 27.84ZM175.516 21.328C176.513 21.328 177.269 20.998 177.782 20.338C178.295 19.678 178.574 18.8933 178.618 17.984C178.633 17.852 178.64 17.5953 178.64 17.214C178.64 16.8473 178.633 16.598 178.618 16.466C178.574 15.5567 178.295 14.772 177.782 14.112C177.283 13.452 176.528 13.122 175.516 13.122C174.475 13.122 173.719 13.4447 173.25 14.09C172.781 14.7353 172.524 15.586 172.48 16.642L172.458 17.214L172.48 17.808C172.524 18.8493 172.781 19.7 173.25 20.36C173.719 21.0053 174.475 21.328 175.516 21.328ZM188.269 23.22C186.876 23.22 185.798 22.7727 185.035 21.878C184.272 20.9687 183.891 19.766 183.891 18.27V12.066C183.891 11.9193 183.935 11.802 184.023 11.714C184.126 11.6113 184.25 11.56 184.397 11.56H185.497C185.644 11.56 185.761 11.6113 185.849 11.714C185.952 11.802 186.003 11.9193 186.003 12.066V18.16C186.003 20.3453 186.956 21.438 188.863 21.438C189.787 21.438 190.52 21.152 191.063 20.58C191.606 19.9933 191.877 19.1867 191.877 18.16V12.066C191.877 11.9193 191.921 11.802 192.009 11.714C192.112 11.6113 192.236 11.56 192.383 11.56H193.483C193.63 11.56 193.747 11.6113 193.835 11.714C193.923 11.802 193.967 11.9193 193.967 12.066V22.494C193.967 22.6407 193.923 22.7653 193.835 22.868C193.747 22.956 193.63 23 193.483 23H192.449C192.302 23 192.178 22.956 192.075 22.868C191.987 22.7653 191.943 22.6407 191.943 22.494V21.526C191.532 22.0833 191.034 22.5087 190.447 22.802C189.86 23.0807 189.134 23.22 188.269 23.22ZM197.565 9.426C197.419 9.426 197.294 9.382 197.191 9.294C197.103 9.19133 197.059 9.06667 197.059 8.92V7.732C197.059 7.58533 197.103 7.46067 197.191 7.358C197.294 7.25533 197.419 7.204 197.565 7.204H198.951C199.098 7.204 199.223 7.25533 199.325 7.358C199.428 7.46067 199.479 7.58533 199.479 7.732V8.92C199.479 9.06667 199.428 9.19133 199.325 9.294C199.223 9.382 199.098 9.426 198.951 9.426H197.565ZM197.741 23C197.595 23 197.47 22.956 197.367 22.868C197.279 22.7653 197.235 22.6407 197.235 22.494V12.066C197.235 11.9193 197.279 11.802 197.367 11.714C197.47 11.6113 197.595 11.56 197.741 11.56H198.797C198.944 11.56 199.061 11.6113 199.149 11.714C199.252 11.802 199.303 11.9193 199.303 12.066V22.494C199.303 22.6407 199.252 22.7653 199.149 22.868C199.061 22.956 198.944 23 198.797 23H197.741ZM206.744 23.22C205.218 23.22 204.067 22.7213 203.29 21.724C202.512 20.7267 202.102 19.4653 202.058 17.94L202.036 17.28L202.058 16.62C202.102 15.1093 202.512 13.8553 203.29 12.858C204.067 11.846 205.218 11.34 206.744 11.34C208.254 11.34 209.442 11.8753 210.308 12.946V7.886C210.308 7.73933 210.352 7.622 210.44 7.534C210.542 7.43133 210.667 7.38 210.814 7.38H211.87C212.016 7.38 212.134 7.43133 212.222 7.534C212.324 7.622 212.376 7.73933 212.376 7.886V22.494C212.376 22.6407 212.324 22.7653 212.222 22.868C212.134 22.956 212.016 23 211.87 23H210.88C210.733 23 210.608 22.956 210.506 22.868C210.418 22.7653 210.374 22.6407 210.374 22.494V21.57C209.523 22.67 208.313 23.22 206.744 23.22ZM207.206 21.438C208.218 21.438 208.973 21.108 209.472 20.448C209.985 19.7733 210.264 18.974 210.308 18.05C210.322 17.8887 210.33 17.61 210.33 17.214C210.33 16.8033 210.322 16.5173 210.308 16.356C210.278 15.4907 210 14.7353 209.472 14.09C208.944 13.4447 208.188 13.122 207.206 13.122C206.164 13.122 205.402 13.4447 204.918 14.09C204.448 14.7353 204.192 15.586 204.148 16.642L204.126 17.28C204.126 20.052 205.152 21.438 207.206 21.438ZM220.224 23.22C218.713 23.22 217.503 22.758 216.594 21.834C215.699 20.8953 215.208 19.6193 215.12 18.006L215.098 17.258L215.12 16.532C215.222 14.948 215.721 13.6867 216.616 12.748C217.525 11.8093 218.72 11.34 220.202 11.34C221.83 11.34 223.091 11.8607 223.986 12.902C224.88 13.9287 225.328 15.322 225.328 17.082V17.456C225.328 17.6027 225.276 17.7273 225.174 17.83C225.086 17.918 224.968 17.962 224.822 17.962H217.21V18.16C217.254 19.1133 217.54 19.9273 218.068 20.602C218.61 21.262 219.322 21.592 220.202 21.592C220.876 21.592 221.426 21.46 221.852 21.196C222.292 20.9173 222.614 20.6313 222.82 20.338C222.952 20.162 223.047 20.0593 223.106 20.03C223.179 19.986 223.304 19.964 223.48 19.964H224.558C224.69 19.964 224.8 20.0007 224.888 20.074C224.976 20.1473 225.02 20.25 225.02 20.382C225.02 20.7047 224.814 21.0933 224.404 21.548C224.008 22.0027 223.443 22.3987 222.71 22.736C221.991 23.0587 221.162 23.22 220.224 23.22ZM223.238 16.444V16.378C223.238 15.366 222.959 14.5447 222.402 13.914C221.859 13.2687 221.126 12.946 220.202 12.946C219.278 12.946 218.544 13.2687 218.002 13.914C217.474 14.5447 217.21 15.366 217.21 16.378V16.444H223.238Z" fill="black"/>
</svg>
