<svg width="714" height="55" viewBox="0 0 714 55" fill="none" xmlns="http://www.w3.org/2000/svg">
<path d="M3.3402 35.1535C3.19354 35.1541 3.06866 35.1033 2.96556 35.0011C2.86247 34.8988 2.81061 34.7744 2.81 34.6277L2.75008 20.3058C2.74941 20.1445 2.79285 20.0123 2.88042 19.9093C2.98266 19.8062 3.11444 19.7543 3.27578 19.7536L5.27776 19.7453C5.43909 19.7446 5.56397 19.7954 5.6524 19.8977C5.75549 19.9999 5.80738 20.1317 5.80805 20.293L5.8318 25.969L12.3217 25.9418L12.298 20.2659C12.2973 20.1046 12.3408 19.9724 12.4283 19.8693C12.5306 19.7662 12.6624 19.7144 12.8237 19.7137L14.8037 19.7054C14.965 19.7047 15.0972 19.7555 15.2003 19.8577C15.3034 19.96 15.3553 20.0918 15.356 20.2531L15.4159 34.575C15.4166 34.7363 15.3658 34.8685 15.2635 34.9716C15.1612 35.06 15.0294 35.1046 14.8681 35.1053L12.8881 35.1136C12.7415 35.1142 12.6166 35.0634 12.5135 34.9611C12.4104 34.8589 12.3585 34.7344 12.3579 34.5878L12.3332 28.6918L5.8433 28.719L5.86797 34.6149C5.86858 34.7616 5.81777 34.8865 5.71554 34.9896C5.62797 35.0926 5.50352 35.1444 5.34218 35.1451L3.3402 35.1535ZM23.6363 35.2886C21.9203 35.2958 20.5911 34.8613 19.6488 33.9853C18.7064 33.0945 18.1953 31.8793 18.1155 30.3396L18.0895 29.3717L18.1074 28.4037C18.1744 26.878 18.6827 25.6659 19.6322 24.7672C20.5818 23.8686 21.8999 23.4157 23.5866 23.4087C25.2732 23.4016 26.5951 23.8434 27.5522 24.7341C28.5092 25.6248 29.0276 26.8326 29.1073 28.3576C29.1227 28.5336 29.1314 28.8562 29.1334 29.3255C29.1354 29.7949 29.1294 30.1176 29.1154 30.2936C29.0485 31.8339 28.5476 33.0534 27.6127 33.9519C26.6778 34.8359 25.3523 35.2814 23.6363 35.2886ZM23.6272 33.1106C24.4045 33.1074 25.0048 32.8628 25.4281 32.3771C25.8514 31.8766 26.083 31.1496 26.123 30.1961C26.1371 30.0494 26.1432 29.7634 26.1414 29.3381C26.1396 28.9127 26.1311 28.6268 26.1158 28.4802C26.0678 27.527 25.8302 26.8093 25.4028 26.3271C24.9754 25.8302 24.373 25.5834 23.5957 25.5867C22.8184 25.5899 22.2181 25.8418 21.7948 26.3422C21.3715 26.828 21.1399 27.5476 21.0999 28.5011L21.0815 29.3592L21.107 30.2171C21.155 31.1703 21.3927 31.8953 21.8202 32.3922C22.2475 32.8744 22.8499 33.1139 23.6272 33.1106ZM32.1228 35.0331C31.9762 35.0337 31.8513 34.9829 31.7482 34.8806C31.6451 34.7784 31.5932 34.654 31.5926 34.5073L31.5492 24.1234C31.5486 23.9767 31.5994 23.8518 31.7016 23.7487C31.8038 23.6456 31.9283 23.5938 32.075 23.5932L33.791 23.586C33.9376 23.5854 34.0625 23.6362 34.1656 23.7384C34.2687 23.8407 34.3205 23.9651 34.3212 24.1118L34.3243 24.8598C35.0828 23.8593 36.144 23.3562 37.508 23.3505C39.136 23.3436 40.2754 23.9915 40.9262 25.2942C41.2757 24.706 41.7724 24.2346 42.4163 23.8799C43.06 23.5106 43.7559 23.3243 44.5039 23.3212C45.7066 23.3162 46.691 23.7227 47.4571 24.5408C48.2232 25.359 48.6095 26.5527 48.6161 28.122L48.6425 34.436C48.6431 34.5826 48.5923 34.7075 48.49 34.8106C48.4025 34.9136 48.278 34.9655 48.1167 34.9662L46.3127 34.9737C46.166 34.9743 46.0412 34.9235 45.9381 34.8213C45.835 34.719 45.7831 34.5946 45.7825 34.4479L45.7568 28.31C45.753 27.386 45.5522 26.7195 45.1544 26.3105C44.7713 25.8868 44.2571 25.6762 43.6118 25.6789C43.0398 25.6813 42.5494 25.896 42.1405 26.3231C41.7463 26.7501 41.5511 27.4182 41.5549 28.3276L41.5805 34.4655C41.5811 34.6122 41.5303 34.7371 41.4281 34.8402C41.3259 34.9432 41.2014 34.9951 41.0547 34.9957L39.2508 35.0033C39.1041 35.0039 38.9792 34.9531 38.8761 34.8508C38.773 34.7486 38.7212 34.6241 38.7206 34.4775L38.6949 28.3395C38.691 27.4155 38.4829 26.7491 38.0705 26.3401C37.6727 25.9165 37.1658 25.7059 36.5499 25.7085C35.9632 25.7109 35.4654 25.9257 35.0565 26.3527C34.6623 26.7797 34.4671 27.4479 34.4709 28.3572L34.4966 34.4951C34.4972 34.6418 34.4464 34.7667 34.3442 34.8698C34.2419 34.9729 34.1175 35.0247 33.9708 35.0254L32.1228 35.0331ZM56.3751 35.1516C54.7471 35.1584 53.4472 34.6945 52.4752 33.7599C51.5179 32.8106 51.0063 31.4781 50.9405 29.7623L50.9162 29.2124L50.9359 28.6623C51.0022 26.99 51.5101 25.6752 52.4594 24.7179C53.4234 23.7605 54.7121 23.2785 56.3254 23.2717C58.056 23.2645 59.3929 23.7869 60.336 24.839C61.2937 25.891 61.7763 27.297 61.7836 29.0569L61.7856 29.5189C61.7862 29.6656 61.7354 29.7905 61.6331 29.8936C61.5309 29.9967 61.3991 30.0486 61.2378 30.0492L53.9339 30.0798L53.9346 30.2558C53.9673 31.0623 54.1902 31.7434 54.6031 32.299C55.0307 32.8399 55.6112 33.1088 56.3445 33.1057C57.2099 33.1021 57.9051 32.7619 58.4303 32.085C58.5616 31.9231 58.6638 31.82 58.737 31.7757C58.8248 31.7313 58.9494 31.7088 59.1107 31.7081L61.0027 31.7002C61.1347 31.6997 61.2449 31.7432 61.3332 31.8309C61.4362 31.9038 61.488 31.9989 61.4884 32.1162C61.4899 32.4682 61.279 32.8871 60.8557 33.3729C60.447 33.8439 59.8547 34.2571 59.0789 34.6123C58.303 34.9676 57.4018 35.1473 56.3751 35.1516ZM58.7881 28.2115L58.7878 28.1455C58.7842 27.2801 58.5613 26.5844 58.1191 26.0582C57.6915 25.532 57.0964 25.2705 56.3338 25.2737C55.5711 25.2769 54.9782 25.5434 54.5551 26.0732C54.132 26.6029 53.9222 27.3005 53.9258 28.1658L53.9261 28.2318L58.7881 28.2115Z" fill="white"/>
<path d="M97.8662 34.7583C97.7489 34.7588 97.6387 34.7152 97.5357 34.6277C97.4473 34.54 97.4028 34.4302 97.4023 34.2982L97.4455 34.1001L102.688 19.888C102.789 19.5209 103.045 19.3365 103.456 19.3348L105.854 19.3247C106.235 19.3231 106.492 19.5054 106.626 19.8715L111.987 34.0392C112.002 34.0832 112.01 34.1491 112.01 34.2371C112.011 34.3691 111.967 34.4793 111.88 34.5677C111.792 34.656 111.689 34.7005 111.572 34.701L109.658 34.709C109.467 34.7098 109.321 34.6664 109.218 34.5788C109.115 34.4912 109.048 34.3962 109.018 34.2936L107.973 31.614L101.439 31.6413L100.416 34.3296C100.3 34.6088 100.088 34.749 99.7802 34.7503L97.8662 34.7583ZM107.193 29.0872L104.656 22.2998L102.199 29.1081L107.193 29.0872ZM120.139 34.8851C118.628 34.8914 117.453 34.3757 116.612 33.3379L116.616 34.1519C116.616 34.2985 116.566 34.4234 116.463 34.5265C116.376 34.6295 116.251 34.6814 116.09 34.6821L114.352 34.6893C114.205 34.6899 114.08 34.6391 113.977 34.5369C113.874 34.4347 113.822 34.3102 113.822 34.1635L113.761 19.5997C113.76 19.4383 113.811 19.3135 113.913 19.225C114.016 19.1219 114.14 19.0701 114.287 19.0695L116.157 19.0616C116.318 19.061 116.443 19.1118 116.531 19.2141C116.634 19.3016 116.686 19.4261 116.687 19.5874L116.707 24.4714C117.539 23.4999 118.666 23.0112 120.089 23.0052C121.57 22.999 122.709 23.4783 123.505 24.4429C124.301 25.4076 124.732 26.6598 124.797 28.1996C124.812 28.3755 124.821 28.6101 124.822 28.9035C124.823 29.2115 124.817 29.4535 124.803 29.6296C124.751 31.2138 124.331 32.4842 123.543 33.4409C122.755 34.3975 121.62 34.8789 120.139 34.8851ZM119.315 32.5345C120.899 32.5279 121.738 31.5491 121.833 29.598C121.847 29.4513 121.853 29.2312 121.852 28.9379C121.851 28.6446 121.843 28.4246 121.827 28.278C121.716 26.3278 120.869 25.356 119.285 25.3626C118.464 25.366 117.834 25.6327 117.396 26.1625C116.973 26.6776 116.748 27.3019 116.722 28.0354L116.704 28.8714L116.729 29.7293C116.777 30.5211 117.007 31.1875 117.42 31.7285C117.833 32.2694 118.464 32.5381 119.315 32.5345ZM132.355 34.834C130.639 34.8412 129.31 34.4067 128.367 33.5307C127.425 32.6399 126.914 31.4247 126.834 29.8851L126.808 28.9172L126.826 27.9491C126.893 26.4235 127.401 25.2113 128.351 24.3127C129.3 23.414 130.619 22.9612 132.305 22.9541C133.992 22.9471 135.314 23.3889 136.271 24.2795C137.228 25.1702 137.746 26.378 137.826 27.9031C137.841 28.079 137.85 28.4016 137.852 28.871C137.854 29.3403 137.848 29.663 137.834 29.839C137.767 31.3793 137.266 32.5988 136.331 33.4974C135.396 34.3813 134.071 34.8268 132.355 34.834ZM132.346 32.656C133.123 32.6528 133.723 32.4083 134.147 31.9225C134.57 31.422 134.802 30.6951 134.842 29.7416C134.856 29.5948 134.862 29.3088 134.86 28.8835C134.858 28.4581 134.85 28.1722 134.834 28.0256C134.786 27.0724 134.549 26.3548 134.121 25.8725C133.694 25.3757 133.092 25.1288 132.314 25.1321C131.537 25.1353 130.937 25.3872 130.513 25.8876C130.09 26.3734 129.859 27.0931 129.819 28.0466L129.8 28.9046L129.826 29.7625C129.874 30.7157 130.111 31.4407 130.539 31.9376C130.966 32.4198 131.568 32.6593 132.346 32.656ZM144.56 34.7829C143.211 34.7886 142.146 34.353 141.365 33.4763C140.584 32.5849 140.19 31.3765 140.184 29.8512L140.158 23.6693C140.157 23.5226 140.208 23.3977 140.31 23.2946C140.412 23.1915 140.537 23.1397 140.684 23.1391L142.62 23.131C142.781 23.1303 142.906 23.1811 142.994 23.2834C143.097 23.371 143.149 23.4954 143.15 23.6568L143.175 29.7067C143.183 31.5254 143.986 32.4313 145.584 32.4246C146.347 32.4215 146.947 32.1769 147.385 31.6911C147.838 31.2052 148.063 30.5369 148.059 29.6863L148.034 23.6363C148.033 23.4897 148.084 23.3648 148.186 23.2617C148.288 23.1586 148.413 23.1067 148.56 23.1061L150.496 23.098C150.657 23.0973 150.782 23.1482 150.87 23.2505C150.973 23.338 151.025 23.4625 151.026 23.6238L151.069 34.0077C151.07 34.1544 151.019 34.2793 150.917 34.3824C150.829 34.4854 150.705 34.5372 150.543 34.5379L148.761 34.5454C148.615 34.546 148.49 34.4952 148.387 34.3929C148.284 34.2907 148.232 34.1663 148.231 34.0196L148.227 33.1176C147.411 34.221 146.188 34.7761 144.56 34.7829ZM159.147 34.5019C157.813 34.5075 156.807 34.167 156.129 33.4805C155.466 32.7793 155.132 31.754 155.126 30.4047L155.105 25.4108L153.367 25.418C153.221 25.4186 153.096 25.3678 152.993 25.2656C152.89 25.1487 152.838 25.0169 152.837 24.8702L152.832 23.6162C152.831 23.4696 152.882 23.3447 152.984 23.2416C153.086 23.1385 153.211 23.0867 153.358 23.086L155.096 23.0788L155.08 19.4268C155.08 19.2655 155.13 19.1406 155.233 19.0522C155.335 18.9491 155.459 18.8972 155.606 18.8966L157.388 18.8891C157.549 18.8885 157.674 18.9393 157.763 19.0416C157.866 19.1291 157.918 19.2536 157.918 19.4149L157.934 23.0669L160.683 23.0554C160.845 23.0547 160.97 23.1055 161.058 23.2078C161.161 23.2954 161.213 23.4198 161.214 23.5812L161.219 24.8352C161.22 24.9965 161.169 25.1287 161.067 25.2318C160.964 25.3349 160.84 25.3868 160.693 25.3874L157.943 25.3989L157.963 30.1728C157.966 30.8035 158.078 31.2797 158.299 31.6014C158.521 31.9232 158.888 32.083 159.401 32.0808L160.919 32.0745C161.066 32.0739 161.191 32.1247 161.294 32.2269C161.397 32.3292 161.449 32.4536 161.449 32.6003L161.455 33.9643C161.456 34.1109 161.405 34.2358 161.303 34.3389C161.215 34.4419 161.091 34.4938 160.929 34.4945L159.147 34.5019Z" fill="white"/>
<path d="M195.338 34.3498C195.192 34.3504 195.067 34.2996 194.964 34.1974C194.861 34.0951 194.809 33.9707 194.808 33.824L194.748 19.5021C194.747 19.3408 194.791 19.2086 194.878 19.1056C194.981 19.0025 195.112 18.9506 195.274 18.9499L201.17 18.9253C202.93 18.9179 204.317 19.3301 205.333 20.1618C206.348 20.9789 206.859 22.1868 206.866 23.7855C206.873 25.3841 206.372 26.5962 205.363 27.4218C204.369 28.2326 202.985 28.6417 201.21 28.6492L197.932 28.6629L197.954 33.8108C197.955 33.9575 197.904 34.0824 197.802 34.1855C197.714 34.2885 197.59 34.3404 197.428 34.341L195.338 34.3498ZM201.09 26.2077C201.941 26.2041 202.593 26.0034 203.046 25.6055C203.499 25.1929 203.723 24.5906 203.72 23.7986C203.717 23.036 203.495 22.4429 203.053 22.0194C202.611 21.5812 201.95 21.364 201.07 21.3677L197.858 21.3811L197.878 26.2211L201.09 26.2077ZM209.576 34.2902C209.429 34.2908 209.305 34.24 209.201 34.1378C209.098 34.0356 209.046 33.9111 209.046 33.7644L209.003 23.4025C209.002 23.2559 209.053 23.131 209.155 23.0279C209.257 22.9101 209.382 22.8509 209.528 22.8503L211.31 22.8429C211.472 22.8422 211.604 22.893 211.707 22.9952C211.81 23.0974 211.862 23.2292 211.862 23.3906L211.866 24.2926C212.216 23.8217 212.655 23.4606 213.182 23.209C213.723 22.9574 214.339 22.8302 215.028 22.8273L215.93 22.8235C216.091 22.8229 216.216 22.8737 216.305 22.976C216.408 23.0635 216.46 23.188 216.46 23.3493L216.467 24.9333C216.468 25.08 216.417 25.2049 216.315 25.308C216.227 25.411 216.103 25.4628 215.941 25.4635L214.225 25.4707C213.536 25.4736 212.994 25.6738 212.6 26.0715C212.205 26.4692 212.01 27.0126 212.013 27.702L212.038 33.7519C212.038 33.8986 211.988 34.0235 211.885 34.1266C211.783 34.2297 211.651 34.2815 211.49 34.2822L209.576 34.2902ZM223.132 34.4535C221.416 34.4607 220.087 34.0262 219.145 33.1502C218.202 32.2594 217.691 31.0442 217.612 29.5046L217.586 28.5367L217.603 27.5686C217.67 26.043 218.179 24.8308 219.128 23.9322C220.078 23.0335 221.396 22.5807 223.083 22.5736C224.769 22.5666 226.091 23.0084 227.048 23.899C228.005 24.7897 228.524 25.9975 228.603 27.5226C228.619 27.6985 228.627 28.0211 228.629 28.4905C228.631 28.9598 228.625 29.2825 228.611 29.4585C228.545 30.9988 228.044 32.2183 227.109 33.1169C226.174 34.0008 224.848 34.4463 223.132 34.4535ZM223.123 32.2755C223.901 32.2723 224.501 32.0278 224.924 31.542C225.347 31.0415 225.579 30.3146 225.619 29.3611C225.633 29.2143 225.639 28.9283 225.637 28.503C225.636 28.0776 225.627 27.7917 225.612 27.6451C225.564 26.6919 225.326 25.9743 224.899 25.492C224.471 24.9952 223.869 24.7483 223.092 24.7516C222.314 24.7548 221.714 25.0067 221.291 25.5071C220.868 25.9929 220.636 26.7126 220.596 27.6661L220.577 28.5241L220.603 29.382C220.651 30.3352 220.889 31.0602 221.316 31.5571C221.744 32.0393 222.346 32.2788 223.123 32.2755ZM235.338 34.4024C233.856 34.4086 232.718 33.9367 231.922 32.9867C231.126 32.0367 230.695 30.7698 230.63 29.1861L230.605 28.4602L230.624 27.7561C230.661 26.2159 231.074 24.9602 231.862 23.9889C232.665 23.0175 233.807 22.5287 235.288 22.5225C236.711 22.5166 237.842 22.9959 238.682 23.9604L238.662 19.0764C238.661 18.9151 238.712 18.7902 238.814 18.7018C238.916 18.5987 239.041 18.5468 239.187 18.5462L241.057 18.5384C241.219 18.5377 241.344 18.5885 241.432 18.6908C241.535 18.7784 241.587 18.9028 241.588 19.0642L241.649 33.628C241.649 33.7747 241.598 33.8996 241.496 34.0027C241.409 34.1057 241.284 34.1576 241.123 34.1582L239.385 34.1655C239.238 34.1661 239.113 34.1153 239.01 34.0131C238.907 33.9108 238.855 33.7864 238.855 33.6397L238.851 32.8257C238.02 33.8706 236.848 34.3961 235.338 34.4024ZM236.142 32.0451C236.993 32.0415 237.622 31.7675 238.03 31.2232C238.439 30.6788 238.663 30.0105 238.704 29.2183C238.718 29.0423 238.724 28.7562 238.722 28.3602C238.721 27.9789 238.712 27.7003 238.697 27.5243C238.665 26.7911 238.427 26.1688 237.985 25.6573C237.558 25.1311 236.933 24.8697 236.112 24.8731C234.528 24.8798 233.689 25.8586 233.594 27.8097L233.575 28.4698L233.6 29.1297C233.71 31.0799 234.558 32.0517 236.142 32.0451ZM248.83 34.346C247.48 34.3516 246.415 33.9161 245.634 33.0394C244.853 32.148 244.46 30.9396 244.453 29.4143L244.427 23.2323C244.427 23.0857 244.477 22.9608 244.58 22.8577C244.682 22.7546 244.806 22.7027 244.953 22.7021L246.889 22.694C247.05 22.6933 247.175 22.7442 247.264 22.8465C247.367 22.934 247.419 23.0585 247.419 23.2198L247.445 29.2698C247.452 31.0884 248.255 31.9944 249.854 31.9877C250.617 31.9845 251.217 31.74 251.655 31.2542C252.108 30.7683 252.332 30.1 252.329 29.2493L252.303 23.1994C252.303 23.0527 252.353 22.9278 252.456 22.8247C252.558 22.7216 252.682 22.6698 252.829 22.6692L254.765 22.6611C254.926 22.6604 255.051 22.7112 255.14 22.8135C255.243 22.9011 255.295 23.0255 255.295 23.1869L255.339 33.5708C255.339 33.7174 255.288 33.8423 255.186 33.9454C255.099 34.0484 254.974 34.1003 254.813 34.101L253.031 34.1084C252.884 34.109 252.759 34.0582 252.656 33.956C252.553 33.8538 252.501 33.7293 252.501 33.5826L252.497 32.6806C251.68 33.7841 250.458 34.3392 248.83 34.346ZM263.198 34.2859C261.584 34.2926 260.292 33.8507 259.32 32.9601C258.363 32.0694 257.852 30.8322 257.787 29.2485L257.761 28.3686L257.779 27.4885C257.831 25.9043 258.332 24.6628 259.282 23.7642C260.246 22.8655 261.535 22.4127 263.148 22.406C264.292 22.4012 265.261 22.6025 266.055 23.0098C266.863 23.4171 267.459 23.9206 267.843 24.5204C268.241 25.1054 268.456 25.6618 268.488 26.1897C268.503 26.3363 268.452 26.4612 268.335 26.5643C268.233 26.6674 268.109 26.7193 267.962 26.7199L266.026 26.728C265.879 26.7286 265.762 26.6998 265.674 26.6415C265.6 26.5684 265.526 26.4514 265.452 26.2904C265.23 25.7193 264.935 25.3099 264.567 25.0621C264.214 24.8142 263.759 24.6915 263.202 24.6938C262.454 24.6969 261.868 24.9414 261.445 25.4271C261.021 25.8983 260.797 26.6179 260.772 27.586L260.753 28.4001L260.778 29.126C260.845 31.047 261.663 32.0043 263.232 31.9977C263.804 31.9953 264.266 31.8687 264.617 31.6179C264.968 31.3671 265.252 30.9553 265.469 30.3824C265.542 30.2207 265.615 30.1104 265.688 30.0514C265.776 29.9777 265.893 29.9406 266.04 29.94L267.976 29.9319C268.122 29.9313 268.247 29.9821 268.35 30.0843C268.468 30.1865 268.52 30.3109 268.506 30.4577C268.479 30.9711 268.276 31.522 267.897 32.1102C267.518 32.6985 266.933 33.2069 266.143 33.6356C265.353 34.0642 264.371 34.281 263.198 34.2859ZM275.985 34.0124C274.65 34.018 273.644 33.6775 272.967 32.991C272.304 32.2898 271.97 31.2645 271.964 29.9152L271.943 24.9212L270.205 24.9285C270.058 24.9291 269.933 24.8783 269.83 24.7761C269.727 24.6592 269.675 24.5274 269.675 24.3807L269.669 23.1267C269.669 22.9801 269.72 22.8552 269.822 22.7521C269.924 22.649 270.049 22.5971 270.195 22.5965L271.933 22.5892L271.918 18.9373C271.917 18.7759 271.968 18.6511 272.07 18.5626C272.173 18.4595 272.297 18.4077 272.444 18.4071L274.226 18.3996C274.387 18.3989 274.512 18.4498 274.6 18.5521C274.703 18.6396 274.755 18.7641 274.756 18.9254L274.771 22.5774L277.521 22.5659C277.683 22.5652 277.807 22.616 277.896 22.7183C277.999 22.8059 278.051 22.9303 278.051 23.0917L278.057 24.3456C278.057 24.507 278.007 24.6392 277.904 24.7423C277.802 24.8454 277.678 24.8972 277.531 24.8978L274.781 24.9093L274.801 29.6833C274.804 30.314 274.916 30.7902 275.137 31.1119C275.358 31.4337 275.726 31.5935 276.239 31.5913L277.757 31.585C277.904 31.5843 278.028 31.6352 278.132 31.7374C278.235 31.8396 278.287 31.9641 278.287 32.1107L278.293 33.4747C278.293 33.6214 278.243 33.7463 278.14 33.8494C278.053 33.9524 277.928 34.0043 277.767 34.0049L275.985 34.0124Z" fill="white"/>
<circle cx="515.549" cy="27.1149" r="25.4521" transform="rotate(-0.2397 515.549 27.1149)" fill="white"/>
<circle cx="601.666" cy="26.7155" r="25.4521" transform="rotate(-0.2397 601.666 26.7155)" fill="white"/>
<circle cx="687.781" cy="26.3151" r="25.4521" transform="rotate(-0.2397 687.781 26.3151)" fill="white"/>
</svg>
